<?xml version="1.0" encoding="utf-8"?>
<!-- Generator: Adobe Illustrator 15.0.0, SVG Export Plug-In . SVG Version: 6.00 Build 0)  -->
<!DOCTYPE svg PUBLIC "-//W3C//DTD SVG 1.1//EN" "http://www.w3.org/Graphics/SVG/1.1/DTD/svg11.dtd">
<svg version="1.1" id="Capa_1" xmlns="http://www.w3.org/2000/svg" xmlns:xlink="http://www.w3.org/1999/xlink" x="0px" y="0px"
	 width="398px" height="60.34px" viewBox="0 0 398 60.34" enable-background="new 0 0 398 60.34" xml:space="preserve">
<g>
	<g enable-background="new    ">
		<path fill="#D2D6D7" d="M20.588,35.289v-6.588l-2.832,5.052h-0.612L14.3,28.701v6.588h-1.08v-8.52h1.14l3.084,5.531l3.096-5.531
			h1.128v8.52H20.588z"/>
		<path fill="#D2D6D7" d="M26.204,35.409c-0.472,0-0.904-0.086-1.296-0.258c-0.392-0.172-0.728-0.406-1.008-0.702
			c-0.28-0.296-0.498-0.643-0.654-1.038c-0.156-0.396-0.234-0.814-0.234-1.254c0-0.44,0.078-0.856,0.234-1.248
			c0.156-0.392,0.376-0.736,0.66-1.032c0.284-0.296,0.622-0.529,1.014-0.702c0.392-0.172,0.824-0.258,1.296-0.258
			c0.472,0,0.902,0.088,1.29,0.264c0.388,0.177,0.718,0.41,0.99,0.702s0.482,0.632,0.63,1.021c0.148,0.388,0.222,0.79,0.222,1.206
			c0,0.088-0.002,0.168-0.006,0.239c-0.004,0.072-0.01,0.129-0.018,0.168h-5.196c0.024,0.313,0.096,0.597,0.216,0.853
			c0.12,0.256,0.276,0.476,0.468,0.66c0.192,0.184,0.41,0.328,0.654,0.432c0.244,0.104,0.501,0.156,0.774,0.156
			c0.192,0,0.38-0.026,0.564-0.078c0.184-0.052,0.356-0.122,0.516-0.21c0.16-0.088,0.302-0.196,0.426-0.324s0.218-0.271,0.282-0.432
			l0.912,0.252c-0.104,0.232-0.246,0.444-0.426,0.636c-0.18,0.192-0.388,0.358-0.624,0.498c-0.236,0.141-0.498,0.25-0.786,0.33
			S26.516,35.409,26.204,35.409z M28.352,31.737c-0.024-0.296-0.098-0.57-0.222-0.822s-0.28-0.466-0.468-0.642
			c-0.188-0.176-0.406-0.314-0.654-0.414c-0.248-0.101-0.512-0.15-0.792-0.15c-0.28,0-0.544,0.05-0.792,0.15
			c-0.249,0.1-0.466,0.239-0.654,0.42c-0.188,0.18-0.34,0.394-0.456,0.642c-0.116,0.248-0.186,0.521-0.21,0.816H28.352z"/>
		<path fill="#D2D6D7" d="M35.96,35.289h-1.056v-3.504c0-0.672-0.102-1.16-0.306-1.464c-0.204-0.304-0.514-0.456-0.93-0.456
			c-0.216,0-0.432,0.042-0.648,0.126s-0.42,0.198-0.612,0.342c-0.192,0.145-0.36,0.316-0.504,0.516
			c-0.144,0.2-0.252,0.421-0.324,0.66v3.78h-1.056v-6.264h0.96v1.344c0.248-0.44,0.606-0.792,1.074-1.056
			c0.468-0.265,0.978-0.396,1.53-0.396c0.36,0,0.66,0.066,0.9,0.198c0.24,0.132,0.432,0.316,0.576,0.552s0.246,0.515,0.306,0.834
			c0.06,0.32,0.09,0.668,0.09,1.044V35.289z"/>
	</g>
</g>
<circle fill="#0EA3BA" cx="5.266" cy="31.51" r="2.434"/>
<g enable-background="new    ">
	<path fill="#D2D6D7" d="M64.246,26.817h1.02l1.128,2.964l1.14-2.964h1.02l-1.476,3.708l1.464,3.516l2.88-7.271h1.176l-3.564,8.52
		h-0.936l-1.692-4.02l-1.704,4.02h-0.936l-3.552-8.52h1.164l2.892,7.271l1.452-3.516L64.246,26.817z"/>
	<path fill="#D2D6D7" d="M75.466,35.409c-0.472,0-0.902-0.088-1.29-0.264c-0.388-0.177-0.72-0.412-0.996-0.708
		c-0.276-0.296-0.49-0.641-0.642-1.032c-0.152-0.392-0.228-0.805-0.228-1.236c0-0.439,0.078-0.855,0.234-1.248
		c0.156-0.392,0.372-0.735,0.648-1.032c0.276-0.296,0.608-0.531,0.996-0.708c0.388-0.176,0.814-0.264,1.278-0.264
		c0.464,0,0.892,0.088,1.284,0.264c0.392,0.177,0.726,0.412,1.002,0.708c0.276,0.297,0.492,0.641,0.648,1.032
		c0.156,0.393,0.234,0.809,0.234,1.248c0,0.432-0.076,0.845-0.228,1.236c-0.152,0.391-0.368,0.736-0.648,1.032
		c-0.28,0.296-0.614,0.531-1.002,0.708C76.368,35.321,75.938,35.409,75.466,35.409z M73.39,32.181c0,0.328,0.054,0.633,0.162,0.912
		c0.108,0.28,0.256,0.524,0.444,0.732s0.408,0.372,0.66,0.492c0.252,0.12,0.522,0.18,0.81,0.18c0.288,0,0.558-0.06,0.81-0.18
		c0.252-0.12,0.474-0.286,0.666-0.498c0.192-0.212,0.342-0.46,0.45-0.744c0.108-0.284,0.162-0.59,0.162-0.918
		c0-0.32-0.054-0.622-0.162-0.906s-0.258-0.532-0.45-0.744s-0.414-0.378-0.666-0.498c-0.252-0.12-0.522-0.18-0.81-0.18
		c-0.288,0-0.558,0.063-0.81,0.186c-0.252,0.125-0.472,0.293-0.66,0.505s-0.336,0.46-0.444,0.743
		C73.444,31.547,73.39,31.854,73.39,32.181z"/>
	<path fill="#D2D6D7" d="M89.362,35.289h-1.056v-3.504c0-0.656-0.106-1.14-0.318-1.452c-0.212-0.312-0.526-0.468-0.942-0.468
		c-0.432,0-0.818,0.154-1.158,0.462c-0.34,0.308-0.582,0.706-0.726,1.194v3.768h-1.056v-3.504c0-0.672-0.104-1.16-0.312-1.464
		c-0.208-0.304-0.52-0.456-0.936-0.456c-0.424,0-0.808,0.149-1.152,0.45c-0.344,0.3-0.588,0.697-0.732,1.193v3.78h-1.056v-6.264
		h0.96v1.344c0.256-0.464,0.588-0.822,0.996-1.074s0.868-0.378,1.38-0.378c0.528,0,0.946,0.143,1.254,0.426
		c0.308,0.284,0.498,0.65,0.57,1.099c0.56-1.017,1.356-1.524,2.388-1.524c0.36,0,0.662,0.066,0.906,0.198
		c0.244,0.132,0.438,0.316,0.582,0.552s0.248,0.515,0.312,0.834c0.064,0.32,0.096,0.668,0.096,1.044V35.289z"/>
	<path fill="#D2D6D7" d="M93.778,35.409c-0.472,0-0.904-0.086-1.296-0.258c-0.392-0.172-0.728-0.406-1.008-0.702
		c-0.28-0.296-0.498-0.643-0.654-1.038c-0.156-0.396-0.234-0.814-0.234-1.254c0-0.44,0.078-0.856,0.234-1.248
		c0.156-0.392,0.376-0.736,0.66-1.032s0.622-0.529,1.014-0.702c0.392-0.172,0.824-0.258,1.296-0.258s0.902,0.088,1.29,0.264
		c0.388,0.177,0.718,0.41,0.99,0.702s0.482,0.632,0.63,1.021c0.148,0.388,0.222,0.79,0.222,1.206c0,0.088-0.002,0.168-0.006,0.239
		c-0.004,0.072-0.01,0.129-0.018,0.168h-5.196c0.024,0.313,0.096,0.597,0.216,0.853s0.276,0.476,0.468,0.66
		c0.192,0.184,0.41,0.328,0.654,0.432s0.501,0.156,0.774,0.156c0.192,0,0.38-0.026,0.564-0.078c0.184-0.052,0.356-0.122,0.516-0.21
		s0.302-0.196,0.426-0.324s0.218-0.271,0.282-0.432l0.912,0.252c-0.104,0.232-0.246,0.444-0.426,0.636
		c-0.18,0.192-0.388,0.358-0.624,0.498c-0.236,0.141-0.498,0.25-0.786,0.33C94.39,35.37,94.09,35.409,93.778,35.409z M95.926,31.737
		c-0.024-0.296-0.098-0.57-0.222-0.822s-0.28-0.466-0.468-0.642c-0.188-0.176-0.406-0.314-0.654-0.414
		c-0.248-0.101-0.512-0.15-0.792-0.15c-0.28,0-0.544,0.05-0.792,0.15c-0.249,0.1-0.466,0.239-0.654,0.42
		c-0.188,0.18-0.34,0.394-0.456,0.642c-0.116,0.248-0.186,0.521-0.21,0.816H95.926z"/>
	<path fill="#D2D6D7" d="M103.534,35.289h-1.056v-3.504c0-0.672-0.102-1.16-0.306-1.464c-0.204-0.304-0.514-0.456-0.93-0.456
		c-0.216,0-0.432,0.042-0.648,0.126c-0.216,0.084-0.42,0.198-0.612,0.342c-0.192,0.145-0.36,0.316-0.504,0.516
		c-0.144,0.2-0.252,0.421-0.324,0.66v3.78h-1.056v-6.264h0.96v1.344c0.248-0.44,0.606-0.792,1.074-1.056
		c0.468-0.265,0.978-0.396,1.53-0.396c0.36,0,0.66,0.066,0.9,0.198c0.24,0.132,0.432,0.316,0.576,0.552s0.246,0.515,0.306,0.834
		c0.06,0.32,0.09,0.668,0.09,1.044V35.289z"/>
</g>
<circle fill="#8B4F9F" cx="53.172" cy="31.51" r="2.434"/>
<circle fill="#D2D6D7" cx="140.386" cy="31.51" r="2.434"/>
<circle fill="#D2D6D7" cx="167.386" cy="31.51" r="2.434"/>
<text transform="matrix(1 0 0 1 67.4297 73.75)" fill="#D2D6D7" font-family="'Raleway-Medium'" font-size="12"> </text>
<text transform="matrix(1 0 0 1 80.5195 73.75)" fill="#D2D6D7" font-family="'Raleway-Medium'" font-size="12"> </text>
<g enable-background="new    ">
	<path fill="#D2D6D7" d="M182.13,27.919c-0.025-0.031-0.109-0.092-0.253-0.18c-0.144-0.088-0.323-0.18-0.54-0.276
		c-0.216-0.096-0.451-0.18-0.707-0.252c-0.257-0.071-0.513-0.107-0.769-0.107c-0.704,0-1.056,0.236-1.056,0.708
		c0,0.144,0.037,0.264,0.112,0.359c0.076,0.097,0.188,0.183,0.336,0.259c0.148,0.076,0.335,0.146,0.56,0.21
		c0.224,0.063,0.482,0.136,0.779,0.216c0.407,0.112,0.775,0.234,1.104,0.366c0.326,0.132,0.605,0.296,0.834,0.491
		c0.229,0.196,0.402,0.435,0.527,0.715c0.123,0.279,0.187,0.616,0.187,1.008c0,0.479-0.09,0.886-0.271,1.218
		c-0.18,0.332-0.418,0.6-0.715,0.804c-0.295,0.204-0.636,0.353-1.02,0.444c-0.385,0.092-0.78,0.138-1.188,0.138
		c-0.313,0-0.634-0.023-0.961-0.071c-0.328-0.049-0.647-0.118-0.959-0.21c-0.313-0.093-0.615-0.202-0.906-0.33
		c-0.293-0.128-0.563-0.276-0.812-0.444l0.864-1.716c0.031,0.04,0.136,0.116,0.313,0.228c0.176,0.112,0.395,0.225,0.653,0.336
		c0.261,0.112,0.55,0.212,0.87,0.301c0.318,0.088,0.645,0.132,0.972,0.132c0.696,0,1.046-0.212,1.046-0.637
		c0-0.159-0.054-0.292-0.156-0.396c-0.104-0.104-0.248-0.198-0.433-0.282c-0.186-0.084-0.401-0.162-0.653-0.233
		c-0.252-0.072-0.526-0.152-0.822-0.24c-0.393-0.12-0.732-0.25-1.02-0.391c-0.289-0.14-0.527-0.302-0.716-0.485
		c-0.188-0.185-0.327-0.396-0.42-0.637c-0.092-0.239-0.138-0.52-0.138-0.84c0-0.447,0.084-0.844,0.252-1.188s0.396-0.634,0.686-0.87
		c0.286-0.236,0.62-0.414,1.002-0.534c0.379-0.12,0.78-0.18,1.204-0.18c0.298,0,0.589,0.028,0.878,0.084
		c0.286,0.056,0.563,0.128,0.826,0.216c0.266,0.088,0.512,0.188,0.738,0.3c0.229,0.112,0.438,0.225,0.63,0.336L182.13,27.919z"/>
	<path fill="#D2D6D7" d="M188.226,34.064c-0.48,0-0.896-0.101-1.248-0.3c-0.354-0.2-0.625-0.48-0.816-0.84V36.5h-1.92v-8.855h1.668
		v1.02c0.232-0.359,0.521-0.64,0.87-0.84c0.348-0.2,0.762-0.3,1.241-0.3c0.424,0,0.813,0.084,1.17,0.252
		c0.355,0.168,0.664,0.398,0.925,0.69c0.26,0.292,0.464,0.636,0.612,1.031c0.146,0.396,0.222,0.822,0.222,1.278
		c0,0.472-0.067,0.908-0.204,1.308s-0.324,0.746-0.564,1.038s-0.526,0.522-0.862,0.69C188.981,33.98,188.616,34.064,188.226,34.064z
		 M187.577,32.444c0.208,0,0.398-0.046,0.57-0.138c0.172-0.092,0.32-0.214,0.449-0.366s0.227-0.33,0.295-0.534
		c0.066-0.204,0.102-0.418,0.102-0.642c0-0.232-0.038-0.446-0.114-0.643c-0.075-0.195-0.18-0.366-0.312-0.51
		c-0.133-0.144-0.293-0.256-0.48-0.336s-0.39-0.12-0.605-0.12c-0.264,0-0.519,0.078-0.762,0.234
		c-0.244,0.155-0.431,0.365-0.559,0.63v1.296c0.128,0.32,0.322,0.588,0.582,0.804C187.003,32.335,187.28,32.444,187.577,32.444z"/>
	<path fill="#D2D6D7" d="M194.933,34.064c-0.527,0-1.002-0.086-1.422-0.258c-0.42-0.172-0.775-0.406-1.067-0.702
		s-0.515-0.638-0.666-1.026c-0.152-0.388-0.228-0.794-0.228-1.218c0-0.456,0.074-0.886,0.228-1.29
		c0.151-0.404,0.372-0.758,0.659-1.062c0.289-0.305,0.643-0.544,1.063-0.721c0.42-0.176,0.898-0.264,1.434-0.264
		c0.537,0,1.014,0.088,1.43,0.264c0.416,0.177,0.77,0.414,1.056,0.714c0.288,0.301,0.507,0.646,0.654,1.038
		c0.147,0.393,0.223,0.805,0.223,1.236c0,0.112-0.005,0.222-0.013,0.33c-0.01,0.107-0.021,0.202-0.036,0.282h-4.655
		c0.031,0.424,0.187,0.746,0.463,0.966c0.274,0.22,0.59,0.33,0.94,0.33c0.278,0,0.55-0.068,0.812-0.204
		c0.26-0.136,0.434-0.32,0.521-0.552l1.632,0.456c-0.248,0.496-0.632,0.899-1.15,1.212
		C196.285,33.908,195.661,34.064,194.933,34.064z M196.265,30.2c-0.039-0.399-0.184-0.716-0.432-0.948
		c-0.248-0.231-0.556-0.348-0.924-0.348c-0.376,0-0.686,0.118-0.93,0.354c-0.244,0.235-0.387,0.55-0.426,0.941L196.265,30.2
		L196.265,30.2z"/>
	<path fill="#D2D6D7" d="M202.181,34.064c-0.526,0-1.002-0.086-1.422-0.258c-0.42-0.172-0.774-0.406-1.067-0.702
		c-0.292-0.296-0.515-0.638-0.666-1.026c-0.152-0.388-0.228-0.794-0.228-1.218c0-0.456,0.074-0.886,0.228-1.29
		c0.153-0.404,0.372-0.758,0.659-1.062c0.289-0.305,0.644-0.544,1.063-0.721c0.42-0.176,0.897-0.264,1.435-0.264
		s1.012,0.088,1.428,0.264c0.416,0.177,0.77,0.414,1.057,0.714c0.287,0.301,0.506,0.646,0.654,1.038
		c0.146,0.393,0.222,0.805,0.222,1.236c0,0.112-0.005,0.222-0.013,0.33c-0.008,0.107-0.02,0.202-0.035,0.282h-4.656
		c0.031,0.424,0.187,0.746,0.463,0.966c0.275,0.22,0.59,0.33,0.941,0.33c0.279,0,0.549-0.068,0.811-0.204
		c0.26-0.136,0.435-0.32,0.521-0.552l1.631,0.456c-0.248,0.496-0.631,0.899-1.15,1.212
		C203.532,33.908,202.909,34.064,202.181,34.064z M203.513,30.2c-0.039-0.399-0.184-0.716-0.432-0.948
		c-0.248-0.231-0.557-0.348-0.924-0.348c-0.377,0-0.688,0.118-0.932,0.354c-0.244,0.235-0.385,0.55-0.426,0.941L203.513,30.2
		L203.513,30.2z"/>
	<path fill="#D2D6D7" d="M209.032,34.064c-0.432,0-0.83-0.082-1.193-0.246s-0.678-0.394-0.941-0.69s-0.471-0.642-0.618-1.037
		c-0.147-0.396-0.222-0.83-0.222-1.303c0-0.456,0.066-0.884,0.203-1.284c0.137-0.399,0.328-0.745,0.576-1.037
		s0.542-0.522,0.883-0.69c0.34-0.168,0.713-0.252,1.121-0.252c0.439,0,0.838,0.104,1.193,0.312c0.355,0.209,0.631,0.488,0.822,0.841
		v-3.492h1.92v6.6c0,0.192,0.029,0.326,0.09,0.402s0.166,0.122,0.318,0.138v1.62c-0.176,0.04-0.328,0.066-0.455,0.078
		c-0.129,0.012-0.248,0.018-0.361,0.018c-0.336,0-0.607-0.07-0.814-0.21c-0.209-0.14-0.328-0.342-0.36-0.605l-0.035-0.324
		c-0.226,0.392-0.526,0.684-0.906,0.876C209.87,33.968,209.466,34.064,209.032,34.064z M209.55,32.444
		c0.264,0,0.519-0.078,0.762-0.234c0.244-0.155,0.431-0.369,0.558-0.642v-1.32c-0.119-0.319-0.313-0.582-0.582-0.786
		c-0.269-0.203-0.545-0.306-0.834-0.306c-0.207,0-0.397,0.046-0.569,0.138c-0.172,0.093-0.322,0.215-0.449,0.366
		c-0.129,0.152-0.228,0.328-0.295,0.528c-0.066,0.2-0.103,0.412-0.103,0.636c0,0.232,0.039,0.448,0.115,0.648
		c0.075,0.2,0.18,0.372,0.312,0.516c0.133,0.145,0.292,0.256,0.479,0.336C209.132,32.404,209.333,32.444,209.55,32.444z"/>
	<path fill="#D2D6D7" d="M216.749,34.064c-0.537,0-1.064-0.086-1.584-0.258c-0.521-0.172-0.961-0.422-1.32-0.75l0.685-1.177
		c0.385,0.265,0.758,0.469,1.122,0.612c0.363,0.145,0.714,0.216,1.05,0.216c0.248,0,0.438-0.044,0.576-0.132
		c0.137-0.088,0.204-0.216,0.204-0.384s-0.086-0.302-0.258-0.402c-0.174-0.1-0.475-0.206-0.906-0.317
		c-0.424-0.12-0.782-0.236-1.073-0.349c-0.293-0.111-0.531-0.235-0.715-0.372c-0.185-0.136-0.316-0.292-0.396-0.468
		c-0.08-0.176-0.119-0.384-0.119-0.624c0-0.319,0.063-0.612,0.19-0.876c0.129-0.264,0.306-0.487,0.528-0.672
		c0.224-0.184,0.49-0.328,0.798-0.432c0.31-0.104,0.644-0.156,1.002-0.156c0.474,0,0.914,0.064,1.326,0.192
		c0.411,0.128,0.811,0.359,1.194,0.695l-0.744,1.152c-0.36-0.248-0.682-0.428-0.961-0.54s-0.553-0.168-0.815-0.168
		c-0.208,0-0.384,0.042-0.526,0.126c-0.146,0.084-0.218,0.218-0.218,0.402c0,0.176,0.078,0.308,0.233,0.396
		c0.156,0.088,0.445,0.185,0.871,0.288c0.447,0.12,0.824,0.24,1.134,0.36c0.309,0.119,0.559,0.254,0.75,0.401
		c0.19,0.148,0.332,0.318,0.42,0.511c0.088,0.191,0.133,0.42,0.133,0.684c0,0.624-0.231,1.12-0.696,1.488
		C218.169,33.88,217.54,34.064,216.749,34.064z"/>
	<path fill="#D2D6D7" d="M226.853,34.064c-0.521,0-0.979-0.128-1.375-0.384c-0.395-0.256-0.709-0.58-0.941-0.973V36.5h-1.057v-8.82
		h0.938v1.176c0.247-0.384,0.569-0.694,0.965-0.93c0.396-0.236,0.834-0.354,1.314-0.354c0.432,0,0.828,0.088,1.188,0.264
		c0.361,0.177,0.674,0.414,0.938,0.715c0.265,0.3,0.47,0.646,0.617,1.037c0.148,0.393,0.224,0.801,0.224,1.225
		c0,0.448-0.067,0.87-0.205,1.266c-0.136,0.396-0.327,0.74-0.575,1.032s-0.543,0.524-0.889,0.696
		C227.647,33.978,227.269,34.064,226.853,34.064z M226.528,33.152c0.313,0,0.594-0.066,0.846-0.198s0.469-0.308,0.648-0.527
		c0.18-0.221,0.318-0.471,0.414-0.75c0.096-0.28,0.145-0.568,0.145-0.864c0-0.313-0.057-0.61-0.168-0.895
		c-0.113-0.283-0.266-0.531-0.457-0.743c-0.191-0.212-0.418-0.38-0.678-0.505c-0.26-0.123-0.542-0.186-0.846-0.186
		c-0.192,0-0.392,0.038-0.595,0.114c-0.204,0.076-0.396,0.176-0.575,0.3c-0.181,0.124-0.336,0.271-0.47,0.444
		c-0.131,0.172-0.218,0.354-0.258,0.546v1.788c0.088,0.208,0.2,0.401,0.336,0.582c0.138,0.18,0.293,0.336,0.47,0.468
		c0.176,0.132,0.362,0.235,0.563,0.312C226.103,33.115,226.312,33.152,226.528,33.152z"/>
	<path fill="#D2D6D7" d="M234.269,28.604c-0.527,0.016-0.994,0.152-1.398,0.408c-0.404,0.256-0.689,0.611-0.857,1.067v3.864h-1.057
		V27.68h0.984v1.452c0.216-0.433,0.5-0.782,0.852-1.051c0.354-0.268,0.729-0.418,1.129-0.449c0.08,0,0.147,0,0.203,0
		c0.057,0,0.104,0.004,0.145,0.012V28.604L234.269,28.604z"/>
	<path fill="#D2D6D7" d="M237.904,34.064c-0.472,0-0.901-0.088-1.29-0.264c-0.389-0.177-0.721-0.412-0.996-0.708
		c-0.275-0.296-0.49-0.641-0.643-1.032c-0.151-0.392-0.228-0.805-0.228-1.236c0-0.439,0.077-0.855,0.233-1.248
		c0.154-0.392,0.371-0.735,0.646-1.032c0.276-0.296,0.608-0.531,0.996-0.708c0.389-0.176,0.814-0.264,1.278-0.264
		s0.892,0.088,1.284,0.264c0.392,0.177,0.727,0.412,1.002,0.708c0.275,0.297,0.492,0.641,0.647,1.032
		c0.156,0.393,0.233,0.809,0.233,1.248c0,0.432-0.076,0.845-0.229,1.236c-0.152,0.392-0.367,0.736-0.647,1.032
		c-0.279,0.296-0.613,0.531-1.002,0.708C238.806,33.976,238.376,34.064,237.904,34.064z M235.829,30.835
		c0,0.328,0.053,0.633,0.161,0.912c0.108,0.28,0.257,0.524,0.444,0.732c0.187,0.208,0.408,0.372,0.66,0.492
		c0.252,0.12,0.521,0.18,0.81,0.18s0.558-0.06,0.81-0.18c0.252-0.12,0.475-0.286,0.666-0.498c0.192-0.212,0.342-0.46,0.451-0.744
		c0.107-0.284,0.161-0.59,0.161-0.918c0-0.32-0.054-0.622-0.161-0.906c-0.109-0.284-0.259-0.532-0.451-0.744
		c-0.191-0.212-0.414-0.378-0.666-0.498s-0.521-0.18-0.81-0.18s-0.558,0.063-0.81,0.186c-0.252,0.125-0.474,0.293-0.66,0.505
		c-0.188,0.212-0.336,0.46-0.444,0.743C235.882,30.202,235.829,30.508,235.829,30.835z"/>
	<path fill="#D2D6D7" d="M245.728,34.064c-0.521,0-0.978-0.128-1.373-0.384c-0.396-0.256-0.711-0.58-0.941-0.973V36.5h-1.057v-8.82
		h0.936v1.176c0.248-0.384,0.57-0.694,0.967-0.93c0.396-0.236,0.834-0.354,1.313-0.354c0.433,0,0.828,0.088,1.188,0.264
		c0.358,0.177,0.672,0.414,0.936,0.715c0.264,0.3,0.471,0.646,0.617,1.037c0.147,0.393,0.223,0.801,0.223,1.225
		c0,0.448-0.068,0.87-0.203,1.266c-0.137,0.396-0.328,0.74-0.576,1.032s-0.545,0.524-0.889,0.696
		C246.524,33.979,246.144,34.064,245.728,34.064z M245.404,33.152c0.312,0,0.595-0.066,0.847-0.198s0.467-0.308,0.646-0.527
		c0.182-0.221,0.318-0.471,0.414-0.75c0.097-0.28,0.145-0.568,0.145-0.864c0-0.313-0.056-0.61-0.168-0.895
		c-0.111-0.283-0.264-0.531-0.455-0.743c-0.191-0.212-0.419-0.38-0.679-0.505c-0.261-0.123-0.542-0.186-0.847-0.186
		c-0.191,0-0.39,0.038-0.594,0.114c-0.203,0.076-0.396,0.176-0.576,0.3c-0.181,0.124-0.336,0.271-0.468,0.444
		c-0.133,0.172-0.219,0.354-0.258,0.546v1.788c0.088,0.208,0.199,0.401,0.336,0.582c0.136,0.18,0.291,0.336,0.468,0.468
		c0.176,0.132,0.364,0.235,0.563,0.312C244.979,33.114,245.188,33.152,245.404,33.152z"/>
	<path fill="#D2D6D7" d="M252.567,34.064c-0.473,0-0.901-0.088-1.289-0.264c-0.389-0.177-0.721-0.412-0.996-0.708
		c-0.275-0.296-0.49-0.641-0.643-1.032c-0.153-0.391-0.229-0.805-0.229-1.236c0-0.439,0.077-0.855,0.232-1.248
		c0.156-0.392,0.373-0.735,0.648-1.032c0.275-0.296,0.607-0.531,0.996-0.708c0.389-0.176,0.814-0.264,1.277-0.264
		c0.465,0,0.893,0.088,1.285,0.264c0.391,0.177,0.726,0.412,1.002,0.708c0.274,0.297,0.492,0.641,0.646,1.032
		c0.156,0.393,0.233,0.809,0.233,1.248c0,0.432-0.076,0.845-0.228,1.236c-0.152,0.391-0.369,0.736-0.647,1.032
		c-0.28,0.296-0.614,0.531-1.003,0.708C253.47,33.976,253.04,34.064,252.567,34.064z M250.492,30.835
		c0,0.328,0.054,0.633,0.161,0.912c0.109,0.28,0.257,0.524,0.445,0.732c0.188,0.208,0.406,0.372,0.658,0.492
		c0.252,0.12,0.522,0.18,0.811,0.18c0.289,0,0.559-0.06,0.811-0.18c0.252-0.12,0.475-0.286,0.666-0.498
		c0.191-0.212,0.342-0.46,0.45-0.744s0.161-0.59,0.161-0.918c0-0.32-0.053-0.622-0.161-0.906c-0.108-0.284-0.259-0.532-0.45-0.744
		s-0.414-0.378-0.666-0.498s-0.521-0.18-0.811-0.18c-0.287,0-0.559,0.063-0.811,0.186c-0.252,0.125-0.472,0.293-0.658,0.505
		c-0.188,0.212-0.336,0.46-0.445,0.743C250.546,30.202,250.492,30.508,250.492,30.835z"/>
	<path fill="#D2D6D7" d="M260.332,28.604c-0.528,0.016-0.993,0.152-1.397,0.408c-0.403,0.256-0.689,0.611-0.857,1.067v3.864h-1.057
		V27.68h0.983v1.452c0.216-0.433,0.5-0.782,0.853-1.051c0.353-0.268,0.729-0.418,1.128-0.449c0.079,0,0.147,0,0.204,0
		c0.056,0,0.104,0.004,0.145,0.012L260.332,28.604L260.332,28.604z"/>
	<path fill="#D2D6D7" d="M264.616,33.632c-0.064,0.031-0.148,0.069-0.252,0.113c-0.104,0.044-0.223,0.088-0.354,0.132
		c-0.132,0.045-0.275,0.08-0.432,0.108c-0.156,0.028-0.318,0.042-0.485,0.042c-0.385,0-0.717-0.105-0.996-0.318
		c-0.281-0.212-0.42-0.541-0.42-0.989v-4.212h-0.854V27.68h0.854v-2.088h1.055v2.088h1.404v0.828h-1.404v3.888
		c0.018,0.232,0.093,0.4,0.229,0.504c0.136,0.104,0.296,0.156,0.48,0.156c0.207,0,0.396-0.034,0.568-0.103
		c0.173-0.067,0.29-0.122,0.354-0.162L264.616,33.632z"/>
	<path fill="#D2D6D7" d="M265.601,26.503v-1.319h1.056v1.319H265.601z M265.601,33.944V27.68h1.056v6.264H265.601z"/>
	<path fill="#D2D6D7" d="M271.096,34.064c-0.472,0-0.9-0.088-1.29-0.264c-0.389-0.177-0.72-0.412-0.995-0.708
		c-0.275-0.296-0.49-0.641-0.643-1.032c-0.151-0.392-0.228-0.805-0.228-1.236c0-0.439,0.077-0.855,0.232-1.248
		c0.155-0.392,0.372-0.735,0.647-1.032c0.275-0.296,0.607-0.531,0.996-0.708c0.389-0.176,0.813-0.264,1.277-0.264
		c0.465,0,0.893,0.088,1.284,0.264c0.393,0.177,0.728,0.412,1.002,0.708c0.275,0.297,0.492,0.641,0.648,1.032
		c0.156,0.393,0.232,0.809,0.232,1.248c0,0.432-0.075,0.845-0.228,1.236c-0.152,0.392-0.368,0.736-0.648,1.032
		c-0.278,0.296-0.612,0.531-1.002,0.708C271.997,33.976,271.567,34.064,271.096,34.064z M269.021,30.835
		c0,0.328,0.053,0.633,0.16,0.912c0.108,0.28,0.258,0.524,0.444,0.732c0.188,0.208,0.408,0.372,0.66,0.492
		c0.252,0.12,0.521,0.18,0.81,0.18s0.559-0.06,0.811-0.18c0.252-0.12,0.475-0.286,0.666-0.498c0.191-0.212,0.342-0.46,0.451-0.744
		c0.106-0.284,0.161-0.59,0.161-0.918c0-0.32-0.055-0.622-0.161-0.906c-0.109-0.284-0.26-0.532-0.451-0.744
		s-0.414-0.378-0.666-0.498s-0.521-0.18-0.811-0.18s-0.558,0.063-0.81,0.186c-0.252,0.125-0.473,0.293-0.66,0.505
		c-0.187,0.212-0.336,0.46-0.444,0.743C269.073,30.202,269.021,30.508,269.021,30.835z"/>
	<path fill="#D2D6D7" d="M280.983,33.944h-1.057V30.44c0-0.672-0.103-1.16-0.306-1.464c-0.204-0.304-0.514-0.456-0.93-0.456
		c-0.217,0-0.434,0.042-0.648,0.126c-0.217,0.084-0.42,0.198-0.612,0.342c-0.191,0.145-0.359,0.316-0.504,0.516
		c-0.144,0.2-0.252,0.421-0.322,0.66v3.78h-1.058V27.68h0.96v1.344c0.248-0.44,0.606-0.792,1.074-1.056
		c0.468-0.265,0.979-0.396,1.53-0.396c0.358,0,0.66,0.066,0.898,0.198c0.24,0.132,0.434,0.316,0.576,0.552
		c0.145,0.236,0.246,0.515,0.307,0.834c0.061,0.32,0.09,0.668,0.09,1.044L280.983,33.944L280.983,33.944z"/>
	<path fill="#D2D6D7" d="M284.235,34.064c-0.295,0-0.572-0.05-0.828-0.15s-0.479-0.237-0.666-0.414
		c-0.188-0.176-0.336-0.382-0.443-0.617c-0.106-0.236-0.162-0.494-0.162-0.774c0-0.288,0.064-0.55,0.191-0.786
		c0.129-0.235,0.311-0.438,0.547-0.605c0.236-0.169,0.517-0.301,0.84-0.396c0.324-0.095,0.679-0.145,1.063-0.145
		c0.303,0,0.61,0.027,0.924,0.084c0.312,0.056,0.588,0.132,0.828,0.228v-0.504c0-0.512-0.146-0.914-0.434-1.206
		c-0.287-0.292-0.695-0.438-1.224-0.438c-0.633,0-1.297,0.243-1.992,0.731l-0.348-0.684c0.808-0.544,1.619-0.816,2.436-0.816
		c0.824,0,1.467,0.22,1.927,0.66c0.461,0.44,0.689,1.06,0.689,1.86v2.556c0,0.248,0.112,0.376,0.336,0.384v0.912
		c-0.111,0.016-0.204,0.028-0.275,0.036c-0.072,0.008-0.148,0.012-0.229,0.012c-0.208,0-0.374-0.062-0.498-0.186
		s-0.198-0.274-0.222-0.45l-0.024-0.444c-0.279,0.376-0.634,0.662-1.062,0.858C285.181,33.965,284.724,34.064,284.235,34.064z
		 M284.512,33.272c0.376,0,0.727-0.07,1.051-0.21c0.323-0.14,0.569-0.326,0.737-0.559c0.152-0.151,0.229-0.308,0.229-0.468v-0.924
		c-0.513-0.2-1.045-0.3-1.597-0.3c-0.528,0-0.958,0.112-1.29,0.336s-0.498,0.516-0.498,0.876c0,0.176,0.033,0.34,0.103,0.492
		c0.067,0.151,0.163,0.284,0.288,0.396c0.123,0.112,0.27,0.2,0.438,0.265C284.14,33.24,284.319,33.272,284.512,33.272z"/>
	<path fill="#D2D6D7" d="M289.3,25.184h1.058v7.14c0,0.232,0.061,0.414,0.186,0.546c0.123,0.132,0.298,0.198,0.521,0.198
		c0.088,0,0.191-0.014,0.313-0.042c0.119-0.028,0.232-0.062,0.336-0.102l0.168,0.852c-0.176,0.072-0.385,0.132-0.624,0.18
		s-0.452,0.072-0.636,0.072c-0.408,0-0.729-0.116-0.967-0.348c-0.235-0.232-0.354-0.557-0.354-0.973V25.184z"/>
	<path fill="#D2D6D7" d="M298.623,33.632c-0.063,0.031-0.146,0.069-0.252,0.113c-0.104,0.044-0.222,0.088-0.354,0.132
		c-0.132,0.045-0.275,0.08-0.433,0.108c-0.157,0.028-0.317,0.042-0.486,0.042c-0.383,0-0.715-0.105-0.995-0.318
		c-0.279-0.212-0.421-0.541-0.421-0.989v-4.212h-0.852V27.68h0.852v-2.088h1.058v2.088h1.404v0.828h-1.404v3.888
		c0.016,0.232,0.092,0.4,0.229,0.504c0.136,0.104,0.295,0.156,0.479,0.156c0.208,0,0.396-0.034,0.569-0.103
		c0.172-0.067,0.29-0.122,0.354-0.162L298.623,33.632z"/>
	<path fill="#D2D6D7" d="M302.259,34.064c-0.472,0-0.9-0.088-1.289-0.264c-0.389-0.177-0.721-0.412-0.995-0.708
		c-0.276-0.296-0.49-0.641-0.644-1.032s-0.228-0.805-0.228-1.236c0-0.439,0.076-0.855,0.232-1.248
		c0.156-0.392,0.373-0.735,0.648-1.032c0.274-0.296,0.606-0.531,0.996-0.708c0.388-0.176,0.813-0.264,1.276-0.264
		c0.465,0,0.894,0.088,1.285,0.264c0.392,0.177,0.727,0.412,1.002,0.708c0.275,0.297,0.492,0.641,0.647,1.032
		c0.156,0.393,0.232,0.809,0.232,1.248c0,0.432-0.075,0.845-0.228,1.236s-0.368,0.736-0.647,1.032
		c-0.279,0.296-0.613,0.531-1.002,0.708C303.161,33.976,302.731,34.064,302.259,34.064z M300.184,30.835
		c0,0.328,0.054,0.633,0.16,0.912c0.109,0.28,0.258,0.524,0.445,0.732c0.188,0.208,0.407,0.372,0.659,0.492
		c0.252,0.12,0.521,0.18,0.81,0.18c0.289,0,0.56-0.06,0.812-0.18c0.252-0.12,0.475-0.286,0.666-0.498
		c0.19-0.212,0.342-0.46,0.45-0.744c0.107-0.284,0.16-0.59,0.16-0.918c0-0.32-0.053-0.622-0.16-0.906
		c-0.108-0.284-0.26-0.532-0.45-0.744c-0.191-0.212-0.414-0.378-0.666-0.498s-0.521-0.18-0.812-0.18
		c-0.287,0-0.558,0.063-0.81,0.186c-0.252,0.125-0.472,0.293-0.659,0.505s-0.336,0.46-0.445,0.743
		C300.237,30.202,300.184,30.508,300.184,30.835z"/>
	<path fill="#D2D6D7" d="M180.365,43.004c-0.528,0.016-0.994,0.152-1.397,0.408c-0.404,0.256-0.689,0.611-0.857,1.067v3.864h-1.057
		v-6.264h0.983v1.452c0.216-0.433,0.5-0.782,0.853-1.051c0.353-0.268,0.729-0.418,1.127-0.449c0.08,0,0.148,0,0.205,0
		c0.056,0,0.104,0.004,0.145,0.012L180.365,43.004L180.365,43.004z"/>
	<path fill="#D2D6D7" d="M184.037,48.464c-0.472,0-0.903-0.086-1.296-0.258s-0.729-0.406-1.008-0.702
		c-0.28-0.296-0.498-0.643-0.654-1.038c-0.156-0.396-0.234-0.814-0.234-1.254s0.078-0.856,0.234-1.248
		c0.156-0.392,0.376-0.736,0.66-1.032c0.283-0.296,0.621-0.529,1.014-0.702c0.393-0.172,0.824-0.258,1.297-0.258
		c0.471,0,0.901,0.088,1.289,0.264c0.389,0.177,0.719,0.41,0.99,0.702s0.482,0.632,0.63,1.021c0.147,0.388,0.222,0.79,0.222,1.206
		c0,0.088-0.002,0.168-0.006,0.239c-0.004,0.072-0.01,0.129-0.018,0.168h-5.196c0.024,0.313,0.097,0.597,0.216,0.853
		c0.12,0.256,0.276,0.476,0.469,0.66c0.191,0.184,0.41,0.328,0.654,0.432c0.243,0.104,0.502,0.156,0.773,0.156
		c0.191,0,0.38-0.026,0.564-0.078c0.184-0.052,0.354-0.122,0.516-0.21c0.16-0.088,0.302-0.196,0.426-0.324s0.218-0.271,0.282-0.432
		l0.911,0.252c-0.104,0.232-0.246,0.444-0.426,0.636c-0.181,0.192-0.389,0.358-0.623,0.498c-0.236,0.141-0.498,0.25-0.787,0.33
		C184.649,48.424,184.349,48.464,184.037,48.464z M186.185,44.792c-0.023-0.296-0.099-0.57-0.223-0.822
		c-0.123-0.252-0.279-0.466-0.468-0.642c-0.188-0.176-0.405-0.314-0.653-0.414c-0.248-0.101-0.513-0.15-0.791-0.15
		c-0.281,0-0.545,0.05-0.793,0.15s-0.467,0.239-0.654,0.42c-0.188,0.18-0.34,0.394-0.455,0.642
		c-0.116,0.248-0.188,0.521-0.211,0.816H186.185z"/>
	<path fill="#D2D6D7" d="M187.937,45.201c0-0.44,0.076-0.856,0.229-1.248c0.152-0.393,0.367-0.734,0.648-1.026
		c0.279-0.292,0.613-0.523,1.002-0.696c0.387-0.172,0.82-0.258,1.301-0.258c0.625,0,1.162,0.138,1.615,0.414
		c0.451,0.276,0.793,0.646,1.025,1.11l-1.031,0.323c-0.16-0.296-0.385-0.525-0.674-0.689c-0.287-0.164-0.607-0.246-0.959-0.246
		c-0.289,0-0.562,0.058-0.816,0.174c-0.256,0.116-0.477,0.278-0.66,0.486s-0.329,0.452-0.438,0.731
		c-0.107,0.28-0.162,0.588-0.162,0.925c0,0.328,0.057,0.636,0.168,0.924s0.262,0.538,0.449,0.75c0.188,0.212,0.408,0.378,0.66,0.498
		s0.522,0.18,0.811,0.18c0.185,0,0.365-0.026,0.547-0.078c0.18-0.052,0.344-0.122,0.492-0.21c0.146-0.088,0.277-0.189,0.389-0.306
		c0.113-0.116,0.193-0.242,0.24-0.378l1.031,0.312c-0.096,0.232-0.229,0.444-0.4,0.636c-0.172,0.192-0.375,0.356-0.605,0.492
		c-0.231,0.137-0.49,0.244-0.774,0.324c-0.283,0.08-0.582,0.12-0.894,0.12c-0.473,0-0.904-0.088-1.297-0.264
		c-0.393-0.177-0.729-0.412-1.008-0.708s-0.498-0.643-0.654-1.038C188.015,46.058,187.937,45.64,187.937,45.201z"/>
	<path fill="#D2D6D7" d="M197.681,48.464c-0.473,0-0.901-0.088-1.289-0.264c-0.389-0.177-0.721-0.412-0.996-0.708
		c-0.276-0.296-0.489-0.641-0.643-1.032c-0.152-0.391-0.229-0.805-0.229-1.236c0-0.439,0.078-0.855,0.234-1.248
		c0.155-0.392,0.371-0.735,0.647-1.032c0.274-0.296,0.606-0.531,0.996-0.708c0.387-0.176,0.813-0.264,1.276-0.264
		c0.465,0,0.894,0.088,1.285,0.264c0.391,0.177,0.725,0.412,1.002,0.708c0.275,0.297,0.491,0.641,0.646,1.032
		c0.156,0.393,0.234,0.809,0.234,1.248c0,0.432-0.076,0.845-0.229,1.236c-0.151,0.392-0.367,0.736-0.647,1.032
		c-0.279,0.296-0.613,0.531-1.002,0.708C198.583,48.376,198.153,48.464,197.681,48.464z M195.604,45.236
		c0,0.328,0.055,0.633,0.162,0.912c0.107,0.28,0.256,0.524,0.443,0.732s0.407,0.372,0.659,0.492s0.522,0.18,0.812,0.18
		s0.559-0.06,0.811-0.18s0.475-0.286,0.666-0.498s0.342-0.46,0.449-0.744c0.107-0.284,0.162-0.59,0.162-0.918
		c0-0.32-0.055-0.622-0.162-0.906c-0.107-0.284-0.258-0.532-0.449-0.744s-0.414-0.378-0.666-0.498s-0.521-0.18-0.811-0.18
		s-0.56,0.063-0.812,0.186c-0.252,0.125-0.472,0.293-0.659,0.505c-0.188,0.212-0.336,0.46-0.443,0.743
		C195.659,44.602,195.604,44.909,195.604,45.236z"/>
	<path fill="#D2D6D7" d="M205.444,43.004c-0.527,0.016-0.994,0.152-1.396,0.408c-0.404,0.256-0.691,0.611-0.859,1.067v3.864h-1.055
		v-6.264h0.982v1.452c0.217-0.433,0.5-0.782,0.854-1.051c0.353-0.268,0.728-0.418,1.127-0.449c0.08,0,0.148,0,0.205,0
		c0.055,0,0.104,0.004,0.144,0.012L205.444,43.004L205.444,43.004z"/>
	<path fill="#D2D6D7" d="M208.961,48.464c-0.433,0-0.832-0.088-1.2-0.264c-0.367-0.177-0.684-0.412-0.947-0.708
		c-0.264-0.296-0.471-0.641-0.618-1.032c-0.147-0.392-0.222-0.805-0.222-1.236c0-0.439,0.069-0.857,0.209-1.254
		c0.142-0.396,0.336-0.742,0.588-1.038c0.253-0.296,0.554-0.529,0.9-0.702c0.348-0.172,0.73-0.258,1.146-0.258
		c0.504,0,0.953,0.132,1.35,0.396c0.396,0.264,0.709,0.584,0.941,0.96v-3.744h1.057v7.464c0,0.248,0.111,0.376,0.336,0.384v0.912
		c-0.111,0.016-0.201,0.028-0.27,0.036c-0.068,0.008-0.135,0.012-0.199,0.012c-0.207,0-0.391-0.069-0.545-0.21
		c-0.156-0.14-0.234-0.302-0.234-0.486v-0.527c-0.248,0.408-0.578,0.726-0.99,0.954C209.851,48.35,209.417,48.464,208.961,48.464z
		 M209.213,47.552c0.192,0,0.39-0.036,0.595-0.108c0.203-0.071,0.396-0.172,0.576-0.3c0.18-0.128,0.336-0.277,0.467-0.45
		c0.133-0.172,0.22-0.354,0.258-0.546v-1.8c-0.071-0.2-0.18-0.39-0.323-0.57c-0.144-0.18-0.306-0.336-0.485-0.468
		c-0.18-0.132-0.371-0.235-0.576-0.312c-0.203-0.077-0.404-0.114-0.605-0.114c-0.313,0-0.594,0.066-0.846,0.198
		s-0.469,0.308-0.647,0.527c-0.181,0.221-0.317,0.473-0.414,0.757c-0.097,0.283-0.144,0.573-0.144,0.869
		c0,0.313,0.055,0.61,0.168,0.895c0.111,0.284,0.264,0.53,0.455,0.738s0.418,0.374,0.678,0.498S208.909,47.552,209.213,47.552z"/>
	<path fill="#D2D6D7" d="M216.125,48.464c-0.504,0-1-0.078-1.487-0.234c-0.487-0.155-0.908-0.382-1.261-0.678l0.456-0.708
		c0.368,0.28,0.736,0.49,1.104,0.63c0.369,0.141,0.758,0.21,1.164,0.21c0.457,0,0.818-0.09,1.086-0.27
		c0.27-0.181,0.402-0.435,0.402-0.763c0-0.151-0.035-0.281-0.106-0.39c-0.072-0.109-0.181-0.202-0.324-0.282
		s-0.328-0.151-0.554-0.216c-0.223-0.063-0.482-0.132-0.778-0.204c-0.376-0.096-0.7-0.188-0.974-0.275
		c-0.271-0.088-0.495-0.192-0.672-0.313c-0.176-0.121-0.304-0.264-0.383-0.432c-0.08-0.168-0.121-0.376-0.121-0.624
		c0-0.313,0.063-0.59,0.188-0.834s0.294-0.448,0.51-0.612c0.217-0.164,0.471-0.288,0.764-0.372c0.291-0.084,0.604-0.126,0.94-0.126
		c0.474,0,0.912,0.076,1.32,0.229c0.407,0.151,0.752,0.352,1.03,0.6l-0.479,0.636c-0.266-0.231-0.561-0.405-0.889-0.521
		c-0.327-0.116-0.663-0.174-1.008-0.174c-0.385,0-0.711,0.082-0.979,0.245c-0.268,0.164-0.402,0.427-0.402,0.786
		c0,0.145,0.026,0.265,0.078,0.36c0.053,0.096,0.139,0.18,0.258,0.252c0.121,0.072,0.274,0.136,0.463,0.192
		c0.188,0.056,0.414,0.115,0.679,0.18c0.416,0.096,0.776,0.194,1.086,0.294c0.308,0.1,0.563,0.218,0.769,0.354
		c0.203,0.137,0.354,0.297,0.455,0.48c0.102,0.185,0.15,0.408,0.15,0.672c0,0.584-0.225,1.048-0.674,1.392
		C217.489,48.292,216.886,48.464,216.125,48.464z"/>
	<path fill="#D2D6D7" d="M219.81,42.333v-2.604h0.91v2.604H219.81z"/>
	<path fill="#D2D6D7" d="M226.816,48.464c-0.296,0-0.572-0.05-0.828-0.15c-0.257-0.1-0.478-0.237-0.666-0.414
		c-0.188-0.176-0.336-0.382-0.444-0.617c-0.107-0.236-0.162-0.494-0.162-0.774c0-0.288,0.064-0.55,0.192-0.786
		c0.128-0.235,0.31-0.438,0.546-0.605c0.236-0.169,0.516-0.301,0.84-0.396c0.324-0.095,0.68-0.144,1.063-0.144
		c0.305,0,0.611,0.027,0.925,0.084c0.313,0.056,0.588,0.132,0.828,0.228v-0.504c0-0.512-0.146-0.914-0.433-1.206
		s-0.695-0.438-1.225-0.438c-0.632,0-1.296,0.243-1.992,0.731l-0.348-0.684c0.809-0.544,1.619-0.816,2.436-0.816
		c0.824,0,1.467,0.22,1.928,0.66c0.459,0.44,0.689,1.06,0.689,1.86v2.556c0,0.248,0.111,0.376,0.336,0.384v0.912
		c-0.113,0.016-0.205,0.028-0.275,0.036c-0.072,0.008-0.148,0.012-0.229,0.012c-0.209,0-0.375-0.062-0.498-0.186
		c-0.125-0.124-0.199-0.274-0.223-0.45l-0.023-0.444c-0.281,0.376-0.635,0.662-1.063,0.858
		C227.763,48.366,227.304,48.464,226.816,48.464z M227.093,47.672c0.375,0,0.727-0.07,1.051-0.21
		c0.322-0.14,0.568-0.326,0.736-0.559c0.152-0.151,0.229-0.308,0.229-0.468v-0.924c-0.513-0.2-1.044-0.3-1.597-0.3
		c-0.527,0-0.959,0.112-1.289,0.336c-0.332,0.224-0.498,0.516-0.498,0.876c0,0.176,0.033,0.34,0.103,0.492
		c0.067,0.151,0.163,0.284,0.287,0.396s0.271,0.2,0.438,0.265C226.72,47.64,226.9,47.672,227.093,47.672z"/>
	<path fill="#D2D6D7" d="M233.464,48.344l-2.472-6.264h1.093l1.979,5.34l1.992-5.34h1.008l-2.471,6.264H233.464z"/>
	<path fill="#D2D6D7" d="M240.665,48.464c-0.473,0-0.904-0.086-1.297-0.258s-0.729-0.406-1.008-0.702s-0.498-0.643-0.654-1.038
		c-0.156-0.396-0.232-0.814-0.232-1.254s0.076-0.856,0.232-1.248c0.156-0.392,0.377-0.736,0.66-1.032
		c0.284-0.296,0.622-0.529,1.014-0.702c0.394-0.172,0.824-0.258,1.297-0.258s0.902,0.088,1.289,0.264
		c0.389,0.177,0.719,0.41,0.99,0.702s0.482,0.632,0.631,1.021c0.147,0.388,0.223,0.79,0.223,1.206c0,0.088-0.002,0.168-0.006,0.239
		c-0.006,0.072-0.012,0.129-0.02,0.168h-5.195c0.023,0.313,0.096,0.597,0.217,0.853c0.119,0.256,0.275,0.476,0.467,0.66
		s0.41,0.328,0.654,0.432s0.502,0.156,0.773,0.156c0.191,0,0.381-0.026,0.564-0.078c0.183-0.052,0.354-0.122,0.516-0.21
		c0.16-0.088,0.303-0.196,0.426-0.324c0.125-0.128,0.219-0.271,0.283-0.432l0.91,0.252c-0.104,0.232-0.245,0.444-0.426,0.636
		s-0.388,0.358-0.623,0.498c-0.236,0.141-0.498,0.25-0.787,0.33C241.276,48.425,240.976,48.464,240.665,48.464z M242.812,44.792
		c-0.023-0.296-0.099-0.57-0.221-0.822c-0.125-0.252-0.281-0.466-0.47-0.642c-0.188-0.176-0.405-0.314-0.653-0.414
		c-0.248-0.101-0.513-0.15-0.791-0.15c-0.281,0-0.545,0.05-0.793,0.15s-0.466,0.239-0.654,0.42c-0.188,0.18-0.34,0.394-0.455,0.642
		s-0.186,0.521-0.211,0.816H242.812z"/>
	<path fill="#D2D6D7" d="M248.296,43.004c-0.527,0.016-0.994,0.152-1.396,0.408c-0.404,0.256-0.69,0.611-0.858,1.067v3.864h-1.056
		v-6.264h0.982v1.452c0.217-0.433,0.5-0.782,0.854-1.051c0.354-0.268,0.729-0.418,1.128-0.449c0.08,0,0.147,0,0.204,0
		c0.056,0,0.104,0.004,0.145,0.012v0.961H248.296z"/>
	<path fill="#D2D6D7" d="M250.948,48.464c-0.296,0-0.572-0.05-0.828-0.15s-0.479-0.237-0.666-0.414
		c-0.188-0.176-0.336-0.382-0.443-0.617c-0.107-0.236-0.162-0.494-0.162-0.774c0-0.288,0.063-0.55,0.191-0.786
		c0.128-0.235,0.311-0.438,0.547-0.605c0.235-0.169,0.516-0.301,0.84-0.396c0.324-0.095,0.678-0.144,1.063-0.144
		c0.304,0,0.611,0.027,0.924,0.084c0.313,0.056,0.589,0.132,0.828,0.228v-0.504c0-0.512-0.145-0.914-0.434-1.206
		c-0.287-0.292-0.694-0.438-1.223-0.438c-0.633,0-1.297,0.243-1.992,0.731l-0.349-0.684c0.808-0.544,1.62-0.816,2.437-0.816
		c0.824,0,1.465,0.22,1.927,0.66c0.46,0.44,0.688,1.06,0.688,1.86v2.556c0,0.248,0.112,0.376,0.336,0.384v0.912
		c-0.111,0.016-0.203,0.028-0.274,0.036c-0.072,0.008-0.148,0.012-0.229,0.012c-0.207,0-0.373-0.062-0.498-0.186
		c-0.123-0.124-0.197-0.274-0.222-0.45l-0.024-0.444c-0.278,0.376-0.634,0.662-1.062,0.858
		C251.894,48.366,251.437,48.464,250.948,48.464z M251.224,47.672c0.377,0,0.727-0.07,1.051-0.21c0.324-0.14,0.57-0.326,0.738-0.559
		c0.15-0.151,0.228-0.308,0.228-0.468v-0.924c-0.513-0.2-1.044-0.3-1.597-0.3c-0.527,0-0.957,0.112-1.289,0.336
		c-0.332,0.224-0.498,0.516-0.498,0.876c0,0.176,0.033,0.34,0.102,0.492c0.068,0.151,0.164,0.284,0.288,0.396s0.271,0.2,0.438,0.265
		C250.853,47.64,251.032,47.672,251.224,47.672z"/>
	<path fill="#D2D6D7" d="M258.484,48.417c-0.425,0-0.814-0.088-1.171-0.265c-0.355-0.176-0.661-0.411-0.918-0.708
		c-0.256-0.296-0.453-0.636-0.594-1.02c-0.141-0.384-0.209-0.784-0.209-1.2c0-0.439,0.068-0.857,0.209-1.254
		c0.141-0.396,0.338-0.742,0.594-1.038c0.257-0.296,0.563-0.529,0.918-0.702c0.355-0.172,0.75-0.258,1.183-0.258
		c0.528,0,0.983,0.128,1.368,0.384c0.384,0.257,0.708,0.58,0.973,0.973v-1.248h0.936v6.191c0,0.448-0.084,0.842-0.252,1.183
		c-0.168,0.34-0.396,0.626-0.684,0.857c-0.289,0.232-0.627,0.408-1.015,0.528s-0.802,0.18-1.242,0.18
		c-0.712,0-1.29-0.122-1.733-0.366c-0.443-0.244-0.813-0.582-1.109-1.014l0.611-0.54c0.248,0.368,0.567,0.644,0.959,0.828
		c0.394,0.184,0.816,0.276,1.272,0.276c0.288,0,0.562-0.04,0.822-0.12c0.26-0.08,0.485-0.2,0.678-0.36
		c0.193-0.16,0.347-0.36,0.462-0.6c0.116-0.24,0.174-0.524,0.174-0.853v-1.104c-0.119,0.191-0.262,0.366-0.426,0.521
		c-0.164,0.156-0.342,0.288-0.533,0.396c-0.191,0.107-0.396,0.189-0.613,0.246C258.929,48.388,258.708,48.417,258.484,48.417z
		 M258.808,47.552c0.225,0,0.439-0.04,0.647-0.12s0.399-0.186,0.576-0.318c0.176-0.132,0.323-0.281,0.442-0.449
		c0.121-0.168,0.201-0.34,0.24-0.517v-1.8c-0.088-0.216-0.201-0.412-0.342-0.588c-0.141-0.176-0.298-0.33-0.475-0.462
		c-0.176-0.132-0.365-0.234-0.569-0.306c-0.204-0.072-0.409-0.108-0.618-0.108c-0.32,0-0.605,0.068-0.857,0.204
		c-0.252,0.136-0.467,0.316-0.643,0.54s-0.313,0.478-0.408,0.762c-0.096,0.284-0.144,0.57-0.144,0.858
		c0,0.312,0.056,0.607,0.168,0.888c0.112,0.281,0.265,0.524,0.456,0.732s0.418,0.374,0.678,0.498S258.504,47.552,258.808,47.552z"/>
	<path fill="#D2D6D7" d="M266.248,48.464c-0.472,0-0.904-0.086-1.296-0.258c-0.393-0.172-0.729-0.406-1.008-0.702
		c-0.28-0.296-0.498-0.643-0.654-1.038c-0.156-0.396-0.234-0.814-0.234-1.254s0.078-0.856,0.234-1.248
		c0.156-0.392,0.376-0.736,0.66-1.032c0.283-0.296,0.621-0.529,1.014-0.702c0.394-0.172,0.824-0.258,1.297-0.258
		c0.472,0,0.901,0.088,1.289,0.264c0.39,0.177,0.72,0.41,0.99,0.702c0.271,0.292,0.482,0.632,0.63,1.021
		c0.147,0.388,0.223,0.79,0.223,1.206c0,0.088-0.003,0.168-0.007,0.239c-0.004,0.072-0.01,0.129-0.018,0.168h-5.196
		c0.024,0.313,0.098,0.597,0.216,0.853c0.12,0.256,0.276,0.476,0.47,0.66c0.19,0.184,0.41,0.328,0.653,0.432
		s0.501,0.156,0.773,0.156c0.191,0,0.38-0.026,0.563-0.078c0.185-0.052,0.355-0.122,0.517-0.21c0.161-0.088,0.302-0.196,0.426-0.324
		s0.218-0.271,0.282-0.432l0.911,0.252c-0.104,0.232-0.246,0.444-0.426,0.636c-0.181,0.192-0.389,0.358-0.623,0.498
		c-0.236,0.141-0.498,0.25-0.787,0.33C266.86,48.424,266.56,48.464,266.248,48.464z M268.396,44.792
		c-0.023-0.296-0.099-0.57-0.223-0.822c-0.124-0.252-0.279-0.466-0.468-0.642c-0.188-0.176-0.406-0.314-0.654-0.414
		c-0.248-0.101-0.512-0.15-0.791-0.15c-0.28,0-0.545,0.05-0.793,0.15s-0.466,0.239-0.653,0.42c-0.188,0.18-0.34,0.394-0.455,0.642
		c-0.116,0.248-0.188,0.521-0.211,0.816H268.396z"/>
	<path fill="#D2D6D7" d="M275.8,48.464c-0.504,0-1-0.078-1.487-0.234c-0.488-0.155-0.908-0.382-1.261-0.678l0.456-0.708
		c0.368,0.28,0.735,0.49,1.104,0.63c0.367,0.141,0.756,0.21,1.164,0.21c0.455,0,0.816-0.09,1.086-0.27
		c0.268-0.181,0.401-0.435,0.401-0.763c0-0.151-0.036-0.281-0.108-0.39c-0.071-0.108-0.18-0.202-0.323-0.282
		c-0.143-0.08-0.328-0.151-0.552-0.216c-0.226-0.063-0.484-0.132-0.78-0.204c-0.376-0.096-0.7-0.188-0.972-0.275
		c-0.272-0.088-0.496-0.192-0.672-0.313c-0.178-0.12-0.306-0.264-0.386-0.432c-0.079-0.168-0.118-0.376-0.118-0.624
		c0-0.313,0.062-0.59,0.186-0.834s0.294-0.448,0.51-0.612c0.218-0.164,0.472-0.288,0.763-0.372c0.293-0.084,0.605-0.126,0.941-0.126
		c0.472,0,0.912,0.076,1.319,0.229c0.408,0.151,0.752,0.352,1.033,0.6l-0.48,0.636c-0.264-0.231-0.561-0.405-0.889-0.521
		s-0.664-0.174-1.008-0.174c-0.385,0-0.709,0.082-0.979,0.245c-0.269,0.164-0.401,0.427-0.401,0.786c0,0.145,0.025,0.265,0.077,0.36
		c0.053,0.095,0.139,0.18,0.26,0.252c0.118,0.072,0.272,0.136,0.461,0.192c0.188,0.056,0.414,0.115,0.678,0.18
		c0.416,0.096,0.779,0.194,1.087,0.294c0.308,0.1,0.563,0.218,0.768,0.354c0.204,0.137,0.356,0.297,0.456,0.48
		c0.101,0.185,0.15,0.408,0.15,0.672c0,0.584-0.225,1.048-0.672,1.392C277.164,48.292,276.56,48.464,275.8,48.464z"/>
	<path fill="#D2D6D7" d="M282.903,48.464c-0.521,0-0.979-0.128-1.373-0.384c-0.396-0.256-0.711-0.58-0.942-0.973V50.9h-1.056v-8.819
		h0.936v1.176c0.248-0.384,0.57-0.694,0.967-0.93c0.396-0.236,0.834-0.354,1.313-0.354c0.434,0,0.828,0.088,1.188,0.264
		c0.359,0.177,0.673,0.414,0.937,0.715c0.264,0.3,0.47,0.646,0.617,1.037c0.147,0.393,0.223,0.801,0.223,1.225
		c0,0.448-0.067,0.87-0.204,1.266c-0.136,0.396-0.328,0.74-0.575,1.032c-0.248,0.292-0.545,0.524-0.889,0.696
		S283.319,48.464,282.903,48.464z M282.579,47.552c0.313,0,0.595-0.066,0.847-0.198s0.469-0.308,0.647-0.527
		c0.181-0.221,0.318-0.471,0.414-0.75c0.096-0.28,0.145-0.568,0.145-0.864c0-0.313-0.057-0.61-0.168-0.895
		c-0.111-0.283-0.264-0.531-0.456-0.743c-0.191-0.212-0.419-0.38-0.679-0.505c-0.26-0.123-0.541-0.186-0.846-0.186
		c-0.191,0-0.391,0.038-0.594,0.114c-0.204,0.076-0.396,0.176-0.576,0.3c-0.181,0.124-0.336,0.271-0.469,0.444
		c-0.132,0.172-0.218,0.354-0.258,0.546v1.788c0.088,0.208,0.2,0.401,0.336,0.582c0.137,0.18,0.292,0.336,0.469,0.468
		c0.176,0.132,0.363,0.235,0.563,0.312C282.155,47.514,282.364,47.552,282.579,47.552z"/>
	<path fill="#D2D6D7" d="M289.779,48.464c-0.472,0-0.904-0.086-1.296-0.258c-0.394-0.172-0.729-0.406-1.008-0.702
		c-0.28-0.296-0.498-0.643-0.654-1.038c-0.156-0.396-0.234-0.814-0.234-1.254s0.078-0.856,0.234-1.248
		c0.156-0.392,0.376-0.736,0.66-1.032c0.283-0.296,0.621-0.529,1.014-0.702c0.393-0.172,0.824-0.258,1.297-0.258
		c0.471,0,0.901,0.088,1.289,0.264c0.389,0.177,0.719,0.41,0.99,0.702c0.271,0.292,0.481,0.632,0.63,1.021
		c0.147,0.388,0.222,0.79,0.222,1.206c0,0.088-0.002,0.168-0.006,0.239c-0.004,0.072-0.01,0.129-0.018,0.168h-5.196
		c0.024,0.313,0.097,0.597,0.216,0.853c0.12,0.256,0.276,0.476,0.469,0.66c0.191,0.184,0.41,0.328,0.654,0.432
		c0.243,0.104,0.501,0.156,0.773,0.156c0.19,0,0.38-0.026,0.563-0.078c0.185-0.052,0.355-0.122,0.517-0.21
		c0.16-0.088,0.302-0.196,0.426-0.324s0.218-0.271,0.282-0.432l0.91,0.252c-0.104,0.232-0.245,0.444-0.426,0.636
		c-0.18,0.192-0.388,0.358-0.623,0.498c-0.235,0.141-0.498,0.25-0.787,0.33C290.392,48.424,290.091,48.464,289.779,48.464z
		 M291.927,44.792c-0.022-0.296-0.098-0.57-0.222-0.822c-0.124-0.252-0.28-0.466-0.468-0.642c-0.188-0.176-0.406-0.314-0.654-0.414
		c-0.248-0.101-0.512-0.15-0.791-0.15c-0.281,0-0.545,0.05-0.793,0.15s-0.466,0.239-0.654,0.42c-0.188,0.18-0.34,0.394-0.454,0.642
		c-0.116,0.248-0.188,0.521-0.211,0.816H291.927z"/>
	<path fill="#D2D6D7" d="M296.871,48.464c-0.472,0-0.904-0.086-1.296-0.258c-0.393-0.172-0.729-0.406-1.008-0.702
		c-0.28-0.296-0.498-0.643-0.654-1.038c-0.156-0.396-0.234-0.814-0.234-1.254s0.078-0.856,0.234-1.248
		c0.156-0.392,0.376-0.736,0.66-1.032c0.283-0.296,0.621-0.529,1.014-0.702c0.394-0.172,0.824-0.258,1.297-0.258
		c0.472,0,0.901,0.088,1.289,0.264c0.39,0.177,0.72,0.41,0.99,0.702c0.271,0.292,0.482,0.632,0.63,1.021
		c0.147,0.388,0.223,0.79,0.223,1.206c0,0.088-0.003,0.168-0.007,0.239c-0.004,0.072-0.01,0.129-0.018,0.168h-5.196
		c0.024,0.313,0.098,0.597,0.216,0.853c0.12,0.256,0.276,0.476,0.47,0.66c0.19,0.184,0.409,0.328,0.653,0.432
		c0.243,0.104,0.501,0.156,0.773,0.156c0.191,0,0.38-0.026,0.563-0.078c0.185-0.052,0.355-0.122,0.517-0.21
		c0.161-0.088,0.302-0.196,0.426-0.324s0.218-0.271,0.282-0.432l0.911,0.252c-0.104,0.232-0.246,0.444-0.427,0.636
		c-0.18,0.192-0.388,0.358-0.622,0.498c-0.236,0.141-0.498,0.25-0.787,0.33C297.483,48.424,297.183,48.464,296.871,48.464z
		 M299.019,44.792c-0.023-0.296-0.099-0.57-0.223-0.822c-0.124-0.252-0.279-0.466-0.468-0.642c-0.188-0.176-0.406-0.314-0.654-0.414
		c-0.248-0.101-0.512-0.15-0.791-0.15c-0.28,0-0.545,0.05-0.793,0.15s-0.466,0.239-0.653,0.42c-0.188,0.18-0.34,0.394-0.455,0.642
		c-0.116,0.248-0.188,0.521-0.211,0.816H299.019z"/>
	<path fill="#D2D6D7" d="M303.771,48.464c-0.434,0-0.832-0.088-1.2-0.264c-0.368-0.177-0.685-0.412-0.947-0.708
		c-0.265-0.296-0.471-0.641-0.619-1.032c-0.146-0.392-0.222-0.805-0.222-1.236c0-0.439,0.07-0.857,0.21-1.254
		c0.141-0.396,0.336-0.742,0.588-1.038c0.252-0.296,0.553-0.529,0.9-0.702c0.348-0.172,0.729-0.258,1.146-0.258
		c0.504,0,0.953,0.132,1.351,0.396c0.396,0.264,0.709,0.584,0.94,0.96v-3.744h1.058v7.464c0,0.248,0.11,0.376,0.336,0.384v0.912
		c-0.112,0.016-0.202,0.028-0.271,0.036c-0.067,0.008-0.135,0.012-0.199,0.012c-0.207,0-0.39-0.069-0.545-0.21
		c-0.155-0.14-0.233-0.302-0.233-0.486v-0.527c-0.248,0.408-0.578,0.726-0.99,0.954C304.661,48.35,304.228,48.464,303.771,48.464z
		 M304.023,47.552c0.191,0,0.39-0.036,0.594-0.108c0.204-0.071,0.396-0.172,0.576-0.3c0.18-0.128,0.336-0.277,0.468-0.45
		c0.133-0.172,0.219-0.354,0.258-0.546v-1.8c-0.072-0.2-0.18-0.39-0.324-0.57c-0.144-0.18-0.305-0.336-0.484-0.468
		c-0.181-0.132-0.372-0.235-0.576-0.312s-0.405-0.114-0.606-0.114c-0.312,0-0.594,0.066-0.846,0.198s-0.468,0.308-0.646,0.527
		c-0.182,0.221-0.318,0.473-0.414,0.757c-0.098,0.283-0.145,0.573-0.145,0.869c0,0.313,0.056,0.61,0.168,0.895
		c0.111,0.284,0.265,0.53,0.455,0.738c0.192,0.208,0.418,0.374,0.678,0.498C303.438,47.49,303.72,47.552,304.023,47.552z"/>
</g>
<g>
	<g>
		<line fill="none" stroke="#D2D6D7" stroke-miterlimit="10" x1="145.702" y1="31.51" x2="161.56" y2="31.51"/>
		<g>
			<polygon fill="#D2D6D7" points="159.567,33.205 161.265,31.51 159.567,29.814 161.007,29.814 162.702,31.51 161.007,33.205 			
				"/>
		</g>
	</g>
</g>
<circle fill="#D2D6D7" cx="140.386" cy="45.26" r="2.434"/>
<circle fill="#D2D6D7" cx="160.267" cy="45.26" r="2.434"/>
<g>
	<g>
		<line fill="none" stroke="#D2D6D7" stroke-miterlimit="10" x1="145.702" y1="45.26" x2="154.442" y2="45.26"/>
		<g>
			<polygon fill="#D2D6D7" points="152.45,46.955 154.146,45.26 152.45,43.564 153.89,43.564 155.585,45.26 153.89,46.955 			"/>
		</g>
	</g>
</g>
<g>
	<g enable-background="new    ">
		<path fill="#D2D6D7" d="M20.588-80.044v-6.588l-2.832,5.052h-0.612L14.3-86.632v6.588h-1.08v-8.52h1.14l3.084,5.531l3.096-5.531
			h1.128v8.52H20.588z"/>
		<path fill="#D2D6D7" d="M26.204-79.924c-0.472,0-0.904-0.086-1.296-0.258c-0.392-0.172-0.728-0.406-1.008-0.702
			c-0.28-0.296-0.498-0.643-0.654-1.038c-0.156-0.396-0.234-0.814-0.234-1.254c0-0.44,0.078-0.856,0.234-1.248
			c0.156-0.392,0.376-0.736,0.66-1.032c0.284-0.296,0.622-0.529,1.014-0.702c0.392-0.172,0.824-0.258,1.296-0.258
			c0.472,0,0.902,0.088,1.29,0.264c0.388,0.177,0.718,0.41,0.99,0.702s0.482,0.632,0.63,1.021c0.148,0.388,0.222,0.79,0.222,1.206
			c0,0.088-0.002,0.168-0.006,0.239c-0.004,0.072-0.01,0.129-0.018,0.168h-5.196c0.024,0.313,0.096,0.597,0.216,0.853
			c0.12,0.256,0.276,0.476,0.468,0.66c0.192,0.184,0.41,0.328,0.654,0.432c0.244,0.104,0.501,0.156,0.774,0.156
			c0.192,0,0.38-0.026,0.564-0.078c0.184-0.052,0.356-0.122,0.516-0.21c0.16-0.088,0.302-0.196,0.426-0.324s0.218-0.271,0.282-0.432
			l0.912,0.252c-0.104,0.232-0.246,0.444-0.426,0.636c-0.18,0.192-0.388,0.358-0.624,0.498c-0.236,0.141-0.498,0.25-0.786,0.33
			S26.516-79.924,26.204-79.924z M28.352-83.597c-0.024-0.296-0.098-0.57-0.222-0.822s-0.28-0.466-0.468-0.642
			c-0.188-0.176-0.406-0.314-0.654-0.414c-0.248-0.101-0.512-0.15-0.792-0.15c-0.28,0-0.544,0.05-0.792,0.15
			c-0.249,0.1-0.466,0.239-0.654,0.42c-0.188,0.18-0.34,0.394-0.456,0.642c-0.116,0.248-0.186,0.521-0.21,0.816H28.352z"/>
		<path fill="#D2D6D7" d="M35.96-80.044h-1.056v-3.504c0-0.672-0.102-1.16-0.306-1.464c-0.204-0.304-0.514-0.456-0.93-0.456
			c-0.216,0-0.432,0.042-0.648,0.126S32.6-85.145,32.408-85c-0.192,0.145-0.36,0.316-0.504,0.516c-0.144,0.2-0.252,0.421-0.324,0.66
			v3.78h-1.056v-6.264h0.96v1.344c0.248-0.44,0.606-0.792,1.074-1.056c0.468-0.265,0.978-0.396,1.53-0.396
			c0.36,0,0.66,0.066,0.9,0.198c0.24,0.132,0.432,0.316,0.576,0.552s0.246,0.515,0.306,0.834c0.06,0.32,0.09,0.668,0.09,1.044
			V-80.044z"/>
	</g>
</g>
<circle fill="#0EA3BA" cx="5.266" cy="-83.823" r="2.434"/>
<g enable-background="new    ">
	<path fill="#D2D6D7" d="M64.246-88.517h1.02l1.128,2.964l1.14-2.964h1.02l-1.476,3.708l1.464,3.516l2.88-7.271h1.176l-3.564,8.52
		h-0.936l-1.692-4.02l-1.704,4.02h-0.936l-3.552-8.52h1.164l2.892,7.271l1.452-3.516L64.246-88.517z"/>
	<path fill="#D2D6D7" d="M75.466-79.924c-0.472,0-0.902-0.088-1.29-0.264c-0.388-0.177-0.72-0.412-0.996-0.708
		c-0.276-0.296-0.49-0.641-0.642-1.032c-0.152-0.392-0.228-0.805-0.228-1.236c0-0.439,0.078-0.855,0.234-1.248
		c0.156-0.392,0.372-0.735,0.648-1.032c0.276-0.296,0.608-0.531,0.996-0.708c0.388-0.176,0.814-0.264,1.278-0.264
		c0.464,0,0.892,0.088,1.284,0.264c0.392,0.177,0.726,0.412,1.002,0.708c0.276,0.297,0.492,0.641,0.648,1.032
		c0.156,0.393,0.234,0.809,0.234,1.248c0,0.432-0.076,0.845-0.228,1.236c-0.152,0.391-0.368,0.736-0.648,1.032
		c-0.28,0.296-0.614,0.531-1.002,0.708C76.368-80.013,75.938-79.924,75.466-79.924z M73.39-83.152c0,0.328,0.054,0.633,0.162,0.912
		c0.108,0.28,0.256,0.524,0.444,0.732s0.408,0.372,0.66,0.492c0.252,0.12,0.522,0.18,0.81,0.18c0.288,0,0.558-0.06,0.81-0.18
		c0.252-0.12,0.474-0.286,0.666-0.498c0.192-0.212,0.342-0.46,0.45-0.744c0.108-0.284,0.162-0.59,0.162-0.918
		c0-0.32-0.054-0.622-0.162-0.906s-0.258-0.532-0.45-0.744s-0.414-0.378-0.666-0.498c-0.252-0.12-0.522-0.18-0.81-0.18
		c-0.288,0-0.558,0.063-0.81,0.186c-0.252,0.125-0.472,0.293-0.66,0.505s-0.336,0.46-0.444,0.743
		C73.444-83.787,73.39-83.479,73.39-83.152z"/>
	<path fill="#D2D6D7" d="M89.362-80.044h-1.056v-3.504c0-0.656-0.106-1.14-0.318-1.452c-0.212-0.312-0.526-0.468-0.942-0.468
		c-0.432,0-0.818,0.154-1.158,0.462c-0.34,0.308-0.582,0.706-0.726,1.194v3.768h-1.056v-3.504c0-0.672-0.104-1.16-0.312-1.464
		c-0.208-0.304-0.52-0.456-0.936-0.456c-0.424,0-0.808,0.149-1.152,0.45c-0.344,0.3-0.588,0.697-0.732,1.193v3.78h-1.056v-6.264
		h0.96v1.344c0.256-0.464,0.588-0.822,0.996-1.074s0.868-0.378,1.38-0.378c0.528,0,0.946,0.143,1.254,0.426
		c0.308,0.284,0.498,0.65,0.57,1.099c0.56-1.017,1.356-1.524,2.388-1.524c0.36,0,0.662,0.066,0.906,0.198
		c0.244,0.132,0.438,0.316,0.582,0.552s0.248,0.515,0.312,0.834c0.064,0.32,0.096,0.668,0.096,1.044V-80.044z"/>
	<path fill="#D2D6D7" d="M93.778-79.924c-0.472,0-0.904-0.086-1.296-0.258c-0.392-0.172-0.728-0.406-1.008-0.702
		c-0.28-0.296-0.498-0.643-0.654-1.038c-0.156-0.396-0.234-0.814-0.234-1.254c0-0.44,0.078-0.856,0.234-1.248
		c0.156-0.392,0.376-0.736,0.66-1.032s0.622-0.529,1.014-0.702c0.392-0.172,0.824-0.258,1.296-0.258s0.902,0.088,1.29,0.264
		c0.388,0.177,0.718,0.41,0.99,0.702s0.482,0.632,0.63,1.021c0.148,0.388,0.222,0.79,0.222,1.206c0,0.088-0.002,0.168-0.006,0.239
		c-0.004,0.072-0.01,0.129-0.018,0.168h-5.196c0.024,0.313,0.096,0.597,0.216,0.853s0.276,0.476,0.468,0.66
		c0.192,0.184,0.41,0.328,0.654,0.432s0.501,0.156,0.774,0.156c0.192,0,0.38-0.026,0.564-0.078c0.184-0.052,0.356-0.122,0.516-0.21
		s0.302-0.196,0.426-0.324s0.218-0.271,0.282-0.432l0.912,0.252c-0.104,0.232-0.246,0.444-0.426,0.636
		c-0.18,0.192-0.388,0.358-0.624,0.498c-0.236,0.141-0.498,0.25-0.786,0.33C94.39-79.963,94.09-79.924,93.778-79.924z
		 M95.926-83.597c-0.024-0.296-0.098-0.57-0.222-0.822s-0.28-0.466-0.468-0.642c-0.188-0.176-0.406-0.314-0.654-0.414
		c-0.248-0.101-0.512-0.15-0.792-0.15c-0.28,0-0.544,0.05-0.792,0.15c-0.249,0.1-0.466,0.239-0.654,0.42
		c-0.188,0.18-0.34,0.394-0.456,0.642c-0.116,0.248-0.186,0.521-0.21,0.816H95.926z"/>
	<path fill="#D2D6D7" d="M103.534-80.044h-1.056v-3.504c0-0.672-0.102-1.16-0.306-1.464c-0.204-0.304-0.514-0.456-0.93-0.456
		c-0.216,0-0.432,0.042-0.648,0.126c-0.216,0.084-0.42,0.198-0.612,0.342c-0.192,0.145-0.36,0.316-0.504,0.516
		c-0.144,0.2-0.252,0.421-0.324,0.66v3.78h-1.056v-6.264h0.96v1.344c0.248-0.44,0.606-0.792,1.074-1.056
		c0.468-0.265,0.978-0.396,1.53-0.396c0.36,0,0.66,0.066,0.9,0.198c0.24,0.132,0.432,0.316,0.576,0.552s0.246,0.515,0.306,0.834
		c0.06,0.32,0.09,0.668,0.09,1.044V-80.044z"/>
</g>
<circle fill="#8B4F9F" cx="53.172" cy="-83.823" r="2.434"/>
<circle fill="#D2D6D7" cx="273.184" cy="-83.823" r="2.434"/>
<circle fill="#D2D6D7" cx="300.184" cy="-83.823" r="2.434"/>
<line fill="none" stroke="#758288" stroke-miterlimit="10" x1="176.005" y1="-96.416" x2="176.005" y2="-18.333"/>
<line fill="none" stroke="#758288" stroke-miterlimit="10" x1="241.479" y1="-96.416" x2="241.479" y2="-18.333"/>
<g>
	<g>
		<path fill="#D2D6D7" d="M139.409-88.563l2.58,4.439l2.604-4.439h1.177l-3.24,5.412v3.107h-1.08v-3.131l-3.228-5.388H139.409z"/>
		<path fill="#D2D6D7" d="M148.458-79.923c-0.473,0-0.904-0.086-1.297-0.258c-0.392-0.172-0.729-0.406-1.008-0.703
			c-0.279-0.295-0.498-0.643-0.654-1.037c-0.156-0.396-0.234-0.814-0.234-1.254c0-0.441,0.078-0.857,0.234-1.248
			c0.156-0.392,0.377-0.737,0.66-1.033c0.284-0.296,0.622-0.529,1.014-0.702c0.393-0.172,0.824-0.258,1.297-0.258
			c0.472,0,0.901,0.088,1.289,0.264c0.389,0.177,0.719,0.41,0.99,0.702c0.272,0.292,0.482,0.632,0.631,1.021
			c0.147,0.387,0.221,0.789,0.221,1.205c0,0.088-0.002,0.168-0.006,0.24c-0.004,0.072-0.01,0.129-0.018,0.168h-5.195
			c0.023,0.313,0.096,0.596,0.215,0.852c0.121,0.256,0.277,0.477,0.469,0.66c0.191,0.183,0.41,0.328,0.654,0.432
			c0.244,0.105,0.5,0.156,0.773,0.156c0.192,0,0.381-0.025,0.564-0.078c0.184-0.051,0.355-0.121,0.516-0.209
			c0.161-0.088,0.303-0.197,0.426-0.324c0.125-0.129,0.219-0.271,0.282-0.432l0.912,0.252c-0.104,0.232-0.246,0.443-0.427,0.635
			c-0.18,0.193-0.387,0.359-0.623,0.498c-0.236,0.141-0.498,0.25-0.786,0.33S148.77-79.923,148.458-79.923z M150.605-83.596
			c-0.024-0.297-0.099-0.57-0.222-0.822c-0.125-0.252-0.28-0.466-0.469-0.642c-0.188-0.176-0.406-0.314-0.654-0.414
			c-0.248-0.101-0.512-0.15-0.791-0.15c-0.28,0-0.545,0.05-0.793,0.15c-0.248,0.1-0.465,0.239-0.653,0.42
			c-0.188,0.18-0.341,0.394-0.456,0.642c-0.116,0.248-0.186,0.52-0.21,0.816H150.605z"/>
		<path fill="#D2D6D7" d="M154.384-79.923c-0.295,0-0.571-0.051-0.828-0.15c-0.256-0.099-0.478-0.238-0.666-0.414
			c-0.188-0.176-0.336-0.383-0.443-0.617c-0.107-0.236-0.162-0.494-0.162-0.775c0-0.287,0.064-0.549,0.191-0.785
			c0.129-0.236,0.311-0.438,0.547-0.605c0.236-0.17,0.516-0.301,0.84-0.396c0.324-0.095,0.678-0.145,1.063-0.145
			c0.304,0,0.611,0.027,0.924,0.084c0.312,0.057,0.588,0.133,0.828,0.229v-0.506c0-0.512-0.145-0.915-0.433-1.207
			s-0.696-0.438-1.224-0.438c-0.633,0-1.297,0.243-1.992,0.731l-0.348-0.684c0.808-0.544,1.619-0.816,2.436-0.816
			c0.824,0,1.467,0.22,1.926,0.66c0.461,0.44,0.69,1.06,0.69,1.86v2.557c0,0.248,0.112,0.375,0.336,0.383v0.912
			c-0.112,0.016-0.204,0.029-0.276,0.037c-0.072,0.008-0.148,0.012-0.228,0.012c-0.208,0-0.374-0.063-0.498-0.186
			c-0.124-0.125-0.198-0.275-0.222-0.451l-0.024-0.443c-0.28,0.375-0.634,0.662-1.062,0.857
			C155.33-80.022,154.872-79.923,154.384-79.923z M154.66-80.716c0.376,0,0.726-0.07,1.05-0.209c0.324-0.141,0.57-0.326,0.738-0.559
			c0.152-0.152,0.229-0.309,0.229-0.469v-0.924c-0.512-0.199-1.045-0.299-1.596-0.299c-0.529,0-0.959,0.111-1.291,0.336
			c-0.332,0.223-0.498,0.516-0.498,0.875c0,0.176,0.034,0.34,0.103,0.492c0.067,0.152,0.163,0.285,0.288,0.396
			c0.123,0.111,0.27,0.199,0.438,0.264S154.468-80.716,154.66-80.716z"/>
		<path fill="#D2D6D7" d="M162.737-85.383c-0.527,0.016-0.994,0.152-1.398,0.408c-0.404,0.256-0.689,0.611-0.857,1.068v3.863h-1.057
			v-6.263h0.984v1.452c0.217-0.433,0.5-0.782,0.852-1.051c0.353-0.268,0.729-0.418,1.129-0.449c0.08,0,0.147,0,0.203,0
			c0.057,0,0.104,0.004,0.145,0.012L162.737-85.383L162.737-85.383z"/>
		<path fill="#D2D6D7" d="M165.976-79.923c-0.504,0-1-0.078-1.487-0.234c-0.487-0.156-0.908-0.383-1.26-0.678l0.456-0.709
			c0.367,0.281,0.736,0.49,1.104,0.631s0.756,0.209,1.164,0.209c0.456,0,0.818-0.09,1.086-0.27c0.268-0.18,0.402-0.434,0.402-0.762
			c0-0.152-0.036-0.281-0.107-0.391c-0.072-0.107-0.181-0.201-0.324-0.281c-0.145-0.08-0.328-0.152-0.553-0.217
			c-0.224-0.063-0.484-0.131-0.779-0.203c-0.377-0.096-0.701-0.188-0.973-0.275s-0.496-0.193-0.672-0.313
			c-0.176-0.121-0.304-0.264-0.384-0.432s-0.12-0.377-0.12-0.625c0-0.312,0.063-0.589,0.186-0.833
			c0.125-0.244,0.295-0.448,0.51-0.612c0.217-0.164,0.471-0.288,0.763-0.372s0.606-0.126,0.942-0.126
			c0.472,0,0.912,0.076,1.32,0.229c0.407,0.151,0.752,0.352,1.031,0.6l-0.48,0.636c-0.264-0.231-0.56-0.405-0.888-0.521
			c-0.327-0.116-0.663-0.174-1.008-0.174c-0.384,0-0.71,0.082-0.978,0.245c-0.269,0.164-0.402,0.427-0.402,0.786
			c0,0.145,0.025,0.266,0.078,0.361c0.052,0.096,0.138,0.18,0.258,0.252c0.12,0.072,0.273,0.135,0.462,0.191
			c0.189,0.056,0.414,0.115,0.679,0.18c0.416,0.096,0.777,0.195,1.086,0.295c0.308,0.1,0.563,0.217,0.768,0.354
			c0.203,0.137,0.355,0.297,0.455,0.48c0.101,0.183,0.15,0.408,0.15,0.672c0,0.584-0.224,1.047-0.672,1.391
			C167.341-80.096,166.737-79.923,165.976-79.923z"/>
	</g>
</g>
<text transform="matrix(1 0 0 1 67.4297 -41.584)" fill="#D2D6D7" font-family="'Raleway-Medium'" font-size="12"> </text>
<text transform="matrix(1 0 0 1 80.5195 -41.584)" fill="#D2D6D7" font-family="'Raleway-Medium'" font-size="12"> </text>
<text transform="matrix(1 0 0 1 308.999 -81.3896)" fill="#D2D6D7" font-family="'Raleway-ExtraBold'" font-size="12">Speeds</text>
<text transform="matrix(1 0 0 1 352.3906 -81.3896)" fill="#D2D6D7" font-family="'Raleway-Medium'" font-size="12"> proportional to </text>
<text transform="matrix(1 0 0 1 308.999 -66.9893)" fill="#D2D6D7" font-family="'Raleway-Medium'" font-size="12">records&apos; average speed </text>
<g>
	<g>
		<line fill="none" stroke="#D2D6D7" stroke-miterlimit="10" x1="278.5" y1="-83.824" x2="294.357" y2="-83.824"/>
		<g>
			<polygon fill="#D2D6D7" points="292.365,-82.128 294.063,-83.824 292.365,-85.519 293.805,-85.519 295.5,-83.824 
				293.805,-82.128 			"/>
		</g>
	</g>
</g>
<circle fill="#D2D6D7" cx="273.184" cy="-70.073" r="2.434"/>
<circle fill="#D2D6D7" cx="293.064" cy="-70.073" r="2.434"/>
<g>
	<g>
		<line fill="none" stroke="#D2D6D7" stroke-miterlimit="10" x1="278.5" y1="-70.074" x2="287.24" y2="-70.074"/>
		<g>
			<polygon fill="#D2D6D7" points="285.248,-68.378 286.943,-70.074 285.248,-71.769 286.688,-71.769 288.383,-70.074 
				286.688,-68.378 			"/>
		</g>
	</g>
</g>
</svg>
