<?xml version="1.0" encoding="utf-8"?>
<!-- Generator: Adobe Illustrator 15.0.0, SVG Export Plug-In . SVG Version: 6.00 Build 0)  -->
<!DOCTYPE svg PUBLIC "-//W3C//DTD SVG 1.1//EN" "http://www.w3.org/Graphics/SVG/1.1/DTD/svg11.dtd">
<svg version="1.1" id="Capa_1" xmlns="http://www.w3.org/2000/svg" xmlns:xlink="http://www.w3.org/1999/xlink" x="0px" y="0px"
	 width="398px" height="60.336px" viewBox="0 0 398 60.336" enable-background="new 0 0 398 60.336" xml:space="preserve">
<g>
	<g>
		<defs>
			<circle id="SVGID_1_" cx="216.537" cy="31.39" r="25"/>
		</defs>
		<clipPath id="SVGID_2_">
			<use xlink:href="#SVGID_1_"  overflow="visible"/>
		</clipPath>
		<g clip-path="url(#SVGID_2_)">
			<line fill="none" stroke="#7A9FAD" stroke-width="0.5" x1="221.428" y1="66.244" x2="181.684" y2="36.279"/>
			<line fill="none" stroke="#7A9FAD" stroke-width="0.5" x1="223.925" y1="62.933" x2="184.181" y2="32.967"/>
			<line fill="none" stroke="#7A9FAD" stroke-width="0.5" x1="226.421" y1="59.621" x2="186.677" y2="29.655"/>
			<line fill="none" stroke="#7A9FAD" stroke-width="0.5" x1="228.918" y1="56.309" x2="189.174" y2="26.342"/>
			<line fill="none" stroke="#7A9FAD" stroke-width="0.5" x1="231.416" y1="52.996" x2="191.671" y2="23.03"/>
			<line fill="none" stroke="#7A9FAD" stroke-width="0.5" x1="233.912" y1="49.684" x2="194.168" y2="19.719"/>
			<line fill="none" stroke="#7A9FAD" stroke-width="0.5" x1="236.409" y1="46.371" x2="196.665" y2="16.406"/>
			<line fill="none" stroke="#7A9FAD" stroke-width="0.5" x1="238.906" y1="43.06" x2="199.162" y2="13.094"/>
			<line fill="none" stroke="#7A9FAD" stroke-width="0.5" x1="241.402" y1="39.746" x2="201.659" y2="9.781"/>
			<line fill="none" stroke="#7A9FAD" stroke-width="0.5" x1="243.9" y1="36.436" x2="204.156" y2="6.469"/>
			<line fill="none" stroke="#7A9FAD" stroke-width="0.5" x1="246.396" y1="33.123" x2="206.652" y2="3.158"/>
			<line fill="none" stroke="#7A9FAD" stroke-width="0.5" x1="248.895" y1="29.811" x2="209.148" y2="-0.156"/>
			<line fill="none" stroke="#7A9FAD" stroke-width="0.5" x1="251.391" y1="26.498" x2="211.646" y2="-3.467"/>
		</g>
	</g>
</g>
<circle fill="none" stroke="#D2D6D7" cx="216.537" cy="31.39" r="25"/>
<g>
	<g>
		<defs>
			<circle id="SVGID_3_" cx="216.039" cy="49.233" r="7"/>
		</defs>
		<clipPath id="SVGID_4_">
			<use xlink:href="#SVGID_3_"  overflow="visible"/>
		</clipPath>
		<g clip-path="url(#SVGID_4_)">
			<line fill="none" stroke="#7A9FAD" stroke-width="0.5" x1="220.11" y1="85.978" x2="180.277" y2="56.131"/>
			<line fill="none" stroke="#7A9FAD" stroke-width="0.5" x1="222.598" y1="82.658" x2="182.765" y2="52.813"/>
			<line fill="none" stroke="#7A9FAD" stroke-width="0.5" x1="225.085" y1="79.34" x2="185.251" y2="49.491"/>
			<line fill="none" stroke="#7A9FAD" stroke-width="0.5" x1="227.571" y1="76.02" x2="187.739" y2="46.172"/>
			<line fill="none" stroke="#7A9FAD" stroke-width="0.5" x1="230.06" y1="72.7" x2="190.226" y2="42.852"/>
			<line fill="none" stroke="#7A9FAD" stroke-width="0.5" x1="232.546" y1="69.38" x2="192.714" y2="39.533"/>
			<line fill="none" stroke="#7A9FAD" stroke-width="0.5" x1="235.033" y1="66.061" x2="195.2" y2="36.214"/>
			<line fill="none" stroke="#7A9FAD" stroke-width="0.5" x1="237.521" y1="62.741" x2="197.688" y2="32.893"/>
			<line fill="none" stroke="#7A9FAD" stroke-width="0.5" x1="240.007" y1="59.421" x2="200.175" y2="29.573"/>
			<line fill="none" stroke="#7A9FAD" stroke-width="0.5" x1="242.494" y1="56.103" x2="202.662" y2="26.254"/>
			<line fill="none" stroke="#7A9FAD" stroke-width="0.5" x1="244.982" y1="52.783" x2="205.148" y2="22.935"/>
			<line fill="none" stroke="#7A9FAD" stroke-width="0.5" x1="247.47" y1="49.462" x2="207.637" y2="19.615"/>
			<line fill="none" stroke="#7A9FAD" stroke-width="0.5" x1="249.956" y1="46.145" x2="210.123" y2="16.295"/>
		</g>
	</g>
</g>
<g>
	<g>
		<g>
			<path fill="#D2D6D7" stroke="#192F38" stroke-width="2" d="M206.811,26.648h1.465l3.24,8.52h-1.705l-0.791-2.123h-2.977
				l-0.779,2.123h-1.705L206.811,26.648z M208.719,31.881l-1.176-3.348l-1.225,3.348H208.719z"/>
			<path fill="#D2D6D7" stroke="#192F38" stroke-width="2" d="M216.039,30.272c-0.488,0.009-0.924,0.103-1.309,0.282
				c-0.383,0.181-0.66,0.449-0.828,0.811v3.803h-1.607v-6.287h1.477v1.344c0.111-0.217,0.244-0.409,0.396-0.582
				c0.151-0.172,0.315-0.321,0.492-0.449c0.176-0.128,0.354-0.227,0.534-0.294s0.354-0.103,0.521-0.103c0.088,0,0.154,0,0.198,0
				s0.086,0.004,0.126,0.012V30.272z"/>
			<path fill="#D2D6D7" stroke="#192F38" stroke-width="2" d="M219.543,35.289c-0.504,0-0.96-0.086-1.368-0.259
				c-0.407-0.172-0.756-0.405-1.044-0.702c-0.288-0.295-0.51-0.64-0.666-1.031c-0.156-0.393-0.234-0.805-0.234-1.236
				c0-0.447,0.076-0.869,0.229-1.266s0.372-0.744,0.66-1.045c0.288-0.299,0.638-0.537,1.05-0.713
				c0.412-0.177,0.874-0.266,1.386-0.266s0.971,0.089,1.375,0.266c0.403,0.176,0.747,0.411,1.031,0.707
				c0.284,0.297,0.5,0.641,0.648,1.032c0.147,0.392,0.222,0.8,0.222,1.224c0,0.104-0.002,0.205-0.006,0.301
				c-0.005,0.096-0.015,0.176-0.03,0.24h-4.859c0.023,0.248,0.084,0.467,0.18,0.66c0.096,0.19,0.22,0.354,0.371,0.491
				c0.152,0.136,0.324,0.239,0.517,0.312c0.192,0.074,0.392,0.108,0.601,0.108c0.319,0,0.621-0.077,0.905-0.233
				s0.478-0.362,0.582-0.619l1.38,0.385c-0.231,0.48-0.602,0.875-1.109,1.184C220.854,35.135,220.247,35.289,219.543,35.289z
				 M221.175,31.496c-0.04-0.472-0.214-0.85-0.522-1.134c-0.307-0.284-0.682-0.427-1.121-0.427c-0.217,0-0.418,0.038-0.606,0.113
				c-0.188,0.076-0.354,0.184-0.498,0.318c-0.144,0.137-0.262,0.301-0.354,0.492c-0.093,0.191-0.146,0.402-0.162,0.637H221.175
				L221.175,31.496z"/>
			<path fill="#D2D6D7" stroke="#192F38" stroke-width="2" d="M225.531,35.289c-0.305,0-0.588-0.051-0.852-0.15
				c-0.265-0.1-0.492-0.239-0.685-0.42c-0.192-0.18-0.343-0.391-0.45-0.631c-0.107-0.239-0.162-0.504-0.162-0.791
				c0-0.297,0.066-0.57,0.198-0.822s0.315-0.467,0.552-0.643s0.518-0.313,0.846-0.414c0.328-0.1,0.688-0.149,1.08-0.149
				c0.28,0,0.555,0.024,0.822,0.071c0.268,0.049,0.506,0.117,0.715,0.205v-0.36c0-0.415-0.119-0.735-0.354-0.96
				c-0.236-0.225-0.586-0.336-1.05-0.336c-0.336,0-0.664,0.061-0.984,0.181c-0.32,0.119-0.648,0.296-0.984,0.526l-0.492-1.02
				c0.809-0.535,1.681-0.805,2.617-0.805c0.903,0,1.605,0.223,2.105,0.666s0.75,1.087,0.75,1.927v1.956
				c0,0.168,0.029,0.288,0.09,0.359c0.061,0.072,0.158,0.111,0.294,0.119v1.369c-0.272,0.057-0.508,0.084-0.708,0.084
				c-0.304,0-0.538-0.067-0.701-0.203c-0.164-0.137-0.267-0.315-0.307-0.541l-0.036-0.348c-0.28,0.368-0.62,0.647-1.021,0.84
				C226.415,35.193,225.986,35.289,225.531,35.289z M225.986,34.112c0.272,0,0.531-0.048,0.775-0.146
				c0.243-0.096,0.434-0.223,0.569-0.383c0.176-0.137,0.265-0.289,0.265-0.457v-0.719c-0.193-0.072-0.4-0.131-0.625-0.175
				c-0.224-0.044-0.439-0.065-0.647-0.065c-0.417,0-0.757,0.094-1.021,0.281s-0.396,0.426-0.396,0.715
				c0,0.271,0.104,0.498,0.312,0.678C225.427,34.022,225.684,34.112,225.986,34.112z"/>
		</g>
	</g>
	<g>
		<g>
			<path fill="#D2D6D7" d="M206.811,26.648h1.465l3.24,8.52h-1.705l-0.791-2.123h-2.977l-0.779,2.123h-1.705L206.811,26.648z
				 M208.719,31.881l-1.176-3.348l-1.225,3.348H208.719z"/>
			<path fill="#D2D6D7" d="M216.039,30.272c-0.488,0.009-0.924,0.103-1.309,0.282c-0.383,0.181-0.66,0.449-0.828,0.811v3.803h-1.607
				v-6.287h1.477v1.344c0.111-0.217,0.244-0.409,0.396-0.582c0.151-0.172,0.315-0.321,0.492-0.449
				c0.176-0.128,0.354-0.227,0.534-0.294s0.354-0.103,0.521-0.103c0.088,0,0.154,0,0.198,0s0.086,0.004,0.126,0.012V30.272z"/>
			<path fill="#D2D6D7" d="M219.543,35.289c-0.504,0-0.96-0.086-1.368-0.259c-0.407-0.172-0.756-0.405-1.044-0.702
				c-0.288-0.295-0.51-0.64-0.666-1.031c-0.156-0.393-0.234-0.805-0.234-1.236c0-0.447,0.076-0.869,0.229-1.266
				s0.372-0.744,0.66-1.045c0.288-0.299,0.638-0.537,1.05-0.713c0.412-0.177,0.874-0.266,1.386-0.266s0.971,0.089,1.375,0.266
				c0.403,0.176,0.747,0.411,1.031,0.707c0.284,0.297,0.5,0.641,0.648,1.032c0.147,0.392,0.222,0.8,0.222,1.224
				c0,0.104-0.002,0.205-0.006,0.301c-0.005,0.096-0.015,0.176-0.03,0.24h-4.859c0.023,0.248,0.084,0.467,0.18,0.66
				c0.096,0.19,0.22,0.354,0.371,0.491c0.152,0.136,0.324,0.239,0.517,0.312c0.192,0.074,0.392,0.108,0.601,0.108
				c0.319,0,0.621-0.077,0.905-0.233s0.478-0.362,0.582-0.619l1.38,0.385c-0.231,0.48-0.602,0.875-1.109,1.184
				C220.854,35.135,220.247,35.289,219.543,35.289z M221.175,31.496c-0.04-0.472-0.214-0.85-0.522-1.134
				c-0.307-0.284-0.682-0.427-1.121-0.427c-0.217,0-0.418,0.038-0.606,0.113c-0.188,0.076-0.354,0.184-0.498,0.318
				c-0.144,0.137-0.262,0.301-0.354,0.492c-0.093,0.191-0.146,0.402-0.162,0.637H221.175L221.175,31.496z"/>
			<path fill="#D2D6D7" d="M225.531,35.289c-0.305,0-0.588-0.051-0.852-0.15c-0.265-0.1-0.492-0.239-0.685-0.42
				c-0.192-0.18-0.343-0.391-0.45-0.631c-0.107-0.239-0.162-0.504-0.162-0.791c0-0.297,0.066-0.57,0.198-0.822
				s0.315-0.467,0.552-0.643s0.518-0.313,0.846-0.414c0.328-0.1,0.688-0.149,1.08-0.149c0.28,0,0.555,0.024,0.822,0.071
				c0.268,0.049,0.506,0.117,0.715,0.205v-0.36c0-0.415-0.119-0.735-0.354-0.96c-0.236-0.225-0.586-0.336-1.05-0.336
				c-0.336,0-0.664,0.061-0.984,0.181c-0.32,0.119-0.648,0.296-0.984,0.526l-0.492-1.02c0.809-0.535,1.681-0.805,2.617-0.805
				c0.903,0,1.605,0.223,2.105,0.666s0.75,1.087,0.75,1.927v1.956c0,0.168,0.029,0.288,0.09,0.359
				c0.061,0.072,0.158,0.111,0.294,0.119v1.369c-0.272,0.057-0.508,0.084-0.708,0.084c-0.304,0-0.538-0.067-0.701-0.203
				c-0.164-0.137-0.267-0.315-0.307-0.541l-0.036-0.348c-0.28,0.368-0.62,0.647-1.021,0.84
				C226.415,35.193,225.986,35.289,225.531,35.289z M225.986,34.112c0.272,0,0.531-0.048,0.775-0.146
				c0.243-0.096,0.434-0.223,0.569-0.383c0.176-0.137,0.265-0.289,0.265-0.457v-0.719c-0.193-0.072-0.4-0.131-0.625-0.175
				c-0.224-0.044-0.439-0.065-0.647-0.065c-0.417,0-0.757,0.094-1.021,0.281s-0.396,0.426-0.396,0.715
				c0,0.271,0.104,0.498,0.312,0.678C225.427,34.022,225.684,34.112,225.986,34.112z"/>
		</g>
	</g>
	<g>
		<path fill="#D2D6D7" d="M248.27,17.168v-8.52h3.551c0.377,0,0.723,0.077,1.039,0.232c0.315,0.156,0.588,0.365,0.815,0.625
			s0.406,0.552,0.534,0.875c0.128,0.324,0.191,0.654,0.191,0.99c0,0.353-0.06,0.692-0.18,1.021c-0.119,0.327-0.289,0.62-0.51,0.876
			c-0.22,0.257-0.484,0.461-0.792,0.611c-0.308,0.152-0.649,0.229-1.026,0.229h-2.543v3.06H248.27z M249.35,13.148h2.483
			c0.224,0,0.426-0.047,0.606-0.139c0.18-0.092,0.334-0.221,0.461-0.385c0.129-0.164,0.229-0.354,0.301-0.569
			s0.107-0.443,0.107-0.685c0-0.248-0.041-0.479-0.125-0.695c-0.084-0.217-0.197-0.403-0.336-0.563
			c-0.141-0.159-0.305-0.284-0.492-0.372c-0.188-0.088-0.387-0.132-0.594-0.132h-2.412V13.148z"/>
		<path fill="#D2D6D7" d="M258.889,11.828c-0.527,0.016-0.994,0.152-1.397,0.408c-0.404,0.256-0.69,0.611-0.858,1.066v3.865h-1.056
			v-6.264h0.983v1.452c0.217-0.433,0.5-0.782,0.853-1.051s0.728-0.419,1.128-0.449c0.08,0,0.148,0,0.204,0s0.104,0.004,0.144,0.013
			V11.828z"/>
		<path fill="#D2D6D7" d="M262.525,17.289c-0.473,0-0.902-0.088-1.291-0.265c-0.387-0.177-0.719-0.412-0.995-0.708
			s-0.49-0.641-0.642-1.031c-0.152-0.393-0.229-0.806-0.229-1.236c0-0.439,0.078-0.855,0.234-1.248
			c0.155-0.393,0.371-0.735,0.647-1.032c0.276-0.296,0.608-0.531,0.996-0.708c0.388-0.176,0.813-0.264,1.278-0.264
			c0.464,0,0.892,0.088,1.283,0.264c0.393,0.177,0.727,0.412,1.002,0.708c0.275,0.297,0.492,0.642,0.647,1.032
			c0.156,0.393,0.233,0.809,0.233,1.248c0,0.432-0.075,0.845-0.229,1.236c-0.152,0.391-0.367,0.735-0.648,1.031
			c-0.278,0.296-0.612,0.531-1,0.708S262.997,17.289,262.525,17.289z M260.449,14.061c0,0.328,0.054,0.633,0.162,0.912
			c0.107,0.279,0.256,0.523,0.443,0.732c0.188,0.207,0.408,0.371,0.66,0.491s0.521,0.181,0.811,0.181
			c0.287,0,0.558-0.061,0.81-0.181s0.474-0.286,0.666-0.497c0.192-0.213,0.342-0.461,0.45-0.744
			c0.107-0.285,0.162-0.591,0.162-0.918c0-0.32-0.055-0.623-0.162-0.906c-0.108-0.285-0.258-0.532-0.45-0.744
			c-0.192-0.213-0.414-0.379-0.666-0.498c-0.252-0.12-0.522-0.18-0.81-0.18c-0.289,0-0.559,0.063-0.811,0.186
			c-0.252,0.125-0.472,0.293-0.66,0.505c-0.188,0.212-0.336,0.46-0.443,0.743C260.503,13.426,260.449,13.732,260.449,14.061z"/>
		<path fill="#D2D6D7" d="M270.35,17.289c-0.521,0-0.979-0.129-1.375-0.385c-0.396-0.256-0.709-0.58-0.94-0.973v3.792h-1.058v-8.819
			h0.938v1.176c0.247-0.384,0.568-0.693,0.966-0.93c0.396-0.236,0.834-0.354,1.313-0.354c0.433,0,0.828,0.088,1.188,0.264
			c0.36,0.177,0.673,0.414,0.937,0.715c0.265,0.301,0.471,0.646,0.619,1.037c0.146,0.393,0.222,0.801,0.222,1.225
			c0,0.448-0.068,0.871-0.204,1.266c-0.137,0.396-0.328,0.74-0.576,1.033c-0.248,0.291-0.544,0.523-0.889,0.695
			C271.145,17.203,270.766,17.289,270.35,17.289z M270.025,16.377c0.312,0,0.594-0.066,0.846-0.199
			c0.252-0.131,0.468-0.307,0.648-0.526c0.18-0.221,0.316-0.471,0.414-0.75c0.096-0.28,0.144-0.567,0.144-0.864
			c0-0.313-0.056-0.609-0.168-0.895c-0.112-0.283-0.265-0.531-0.456-0.743s-0.418-0.38-0.678-0.505
			c-0.26-0.123-0.543-0.186-0.846-0.186c-0.193,0-0.392,0.037-0.596,0.113s-0.396,0.176-0.576,0.301
			c-0.18,0.123-0.336,0.271-0.468,0.443c-0.132,0.172-0.219,0.354-0.258,0.546V14.9c0.088,0.208,0.198,0.4,0.336,0.582
			c0.136,0.18,0.292,0.336,0.468,0.469c0.176,0.131,0.364,0.234,0.563,0.311C269.602,16.338,269.809,16.377,270.025,16.377z"/>
		<path fill="#D2D6D7" d="M277.188,17.289c-0.472,0-0.9-0.088-1.289-0.265c-0.39-0.177-0.721-0.412-0.996-0.708
			s-0.49-0.641-0.643-1.031c-0.152-0.393-0.228-0.806-0.228-1.236c0-0.439,0.077-0.855,0.233-1.248
			c0.154-0.393,0.371-0.735,0.646-1.032c0.275-0.296,0.607-0.531,0.996-0.708c0.389-0.176,0.814-0.264,1.277-0.264
			c0.465,0,0.893,0.088,1.285,0.264c0.391,0.177,0.727,0.412,1.002,0.708c0.274,0.297,0.491,0.642,0.647,1.032
			c0.155,0.393,0.233,0.809,0.233,1.248c0,0.432-0.076,0.845-0.229,1.236c-0.152,0.391-0.368,0.735-0.648,1.031
			c-0.278,0.296-0.612,0.531-1.002,0.708C278.09,17.201,277.66,17.289,277.188,17.289z M275.113,14.061
			c0,0.328,0.053,0.633,0.16,0.912c0.108,0.279,0.258,0.523,0.444,0.732c0.188,0.207,0.408,0.371,0.66,0.491s0.521,0.181,0.81,0.181
			s0.559-0.061,0.811-0.181s0.475-0.286,0.666-0.497c0.191-0.213,0.342-0.461,0.451-0.744c0.107-0.285,0.16-0.591,0.16-0.918
			c0-0.32-0.053-0.623-0.16-0.906c-0.109-0.285-0.26-0.532-0.451-0.744c-0.191-0.213-0.414-0.379-0.666-0.498
			c-0.252-0.12-0.521-0.18-0.811-0.18s-0.558,0.063-0.81,0.186c-0.252,0.125-0.473,0.293-0.66,0.505
			c-0.187,0.212-0.336,0.46-0.444,0.743C275.166,13.426,275.113,13.732,275.113,14.061z"/>
		<path fill="#D2D6D7" d="M284.953,11.828c-0.528,0.016-0.994,0.152-1.398,0.408s-0.688,0.611-0.856,1.066v3.865h-1.058v-6.264
			h0.984v1.452c0.215-0.433,0.5-0.782,0.852-1.051c0.353-0.269,0.729-0.419,1.129-0.449c0.08,0,0.146,0,0.203,0
			s0.104,0.004,0.146,0.013L284.953,11.828L284.953,11.828z"/>
		<path fill="#D2D6D7" d="M289.236,16.856c-0.064,0.03-0.148,0.069-0.252,0.112c-0.104,0.045-0.223,0.089-0.354,0.133
			c-0.133,0.045-0.276,0.08-0.432,0.107c-0.156,0.028-0.318,0.043-0.486,0.043c-0.385,0-0.717-0.105-0.996-0.318
			c-0.28-0.213-0.42-0.541-0.42-0.989v-4.212h-0.853v-0.828h0.853V8.816h1.056v2.088h1.403v0.828h-1.403v3.889
			c0.018,0.231,0.092,0.399,0.229,0.504c0.137,0.104,0.297,0.155,0.48,0.155c0.207,0,0.397-0.034,0.569-0.103
			c0.172-0.067,0.289-0.122,0.354-0.162L289.236,16.856z"/>
		<path fill="#D2D6D7" d="M290.221,9.729v-1.32h1.057v1.319L290.221,9.729L290.221,9.729z M290.221,17.168v-6.264h1.057v6.264
			H290.221z"/>
		<path fill="#D2D6D7" d="M295.717,17.289c-0.473,0-0.902-0.088-1.291-0.265c-0.388-0.177-0.719-0.412-0.996-0.708
			c-0.274-0.296-0.488-0.641-0.641-1.031c-0.152-0.393-0.229-0.806-0.229-1.236c0-0.439,0.078-0.855,0.233-1.248
			s0.371-0.735,0.647-1.032c0.275-0.296,0.607-0.531,0.996-0.708c0.388-0.176,0.813-0.264,1.277-0.264
			c0.463,0,0.893,0.088,1.283,0.264c0.393,0.177,0.727,0.412,1.002,0.708c0.275,0.297,0.492,0.642,0.648,1.032
			c0.156,0.393,0.233,0.809,0.233,1.248c0,0.432-0.075,0.845-0.229,1.236c-0.153,0.391-0.367,0.735-0.648,1.031
			c-0.278,0.296-0.612,0.531-1.002,0.708C296.618,17.201,296.188,17.289,295.717,17.289z M293.641,14.061
			c0,0.328,0.055,0.633,0.162,0.912s0.256,0.523,0.443,0.732c0.188,0.207,0.408,0.371,0.66,0.491s0.521,0.181,0.811,0.181
			c0.287,0,0.559-0.061,0.811-0.181s0.474-0.286,0.666-0.497c0.191-0.213,0.342-0.461,0.449-0.744
			c0.107-0.285,0.162-0.591,0.162-0.918c0-0.32-0.055-0.623-0.162-0.906c-0.107-0.285-0.258-0.532-0.449-0.744
			c-0.192-0.213-0.414-0.379-0.666-0.498c-0.252-0.12-0.522-0.18-0.811-0.18c-0.289,0-0.559,0.063-0.811,0.186
			c-0.252,0.125-0.473,0.293-0.66,0.505s-0.336,0.46-0.443,0.743C293.693,13.426,293.641,13.732,293.641,14.061z"/>
		<path fill="#D2D6D7" d="M305.604,17.168h-1.056v-3.504c0-0.672-0.103-1.16-0.307-1.463c-0.203-0.305-0.515-0.457-0.931-0.457
			c-0.217,0-0.432,0.043-0.647,0.127s-0.42,0.197-0.611,0.342c-0.192,0.145-0.36,0.315-0.504,0.516
			c-0.146,0.199-0.252,0.421-0.323,0.66v3.779h-1.058v-6.264h0.961v1.344c0.248-0.439,0.604-0.791,1.074-1.056
			c0.467-0.265,0.978-0.396,1.528-0.396c0.359,0,0.66,0.065,0.9,0.197c0.24,0.133,0.432,0.316,0.576,0.553s0.246,0.515,0.307,0.834
			c0.059,0.32,0.09,0.668,0.09,1.043V17.168L305.604,17.168z"/>
		<path fill="#D2D6D7" d="M308.856,17.289c-0.297,0-0.572-0.051-0.828-0.15s-0.479-0.237-0.666-0.414
			c-0.188-0.176-0.336-0.383-0.444-0.617c-0.107-0.236-0.162-0.494-0.162-0.773c0-0.289,0.064-0.551,0.192-0.787
			c0.128-0.234,0.31-0.438,0.546-0.604c0.236-0.169,0.516-0.301,0.84-0.396c0.324-0.096,0.679-0.145,1.063-0.145
			c0.304,0,0.61,0.027,0.924,0.084c0.313,0.057,0.588,0.133,0.828,0.229v-0.506c0-0.513-0.146-0.914-0.433-1.207
			c-0.288-0.291-0.695-0.438-1.225-0.438c-0.632,0-1.296,0.243-1.992,0.73l-0.348-0.684c0.809-0.544,1.62-0.816,2.436-0.816
			c0.824,0,1.467,0.221,1.927,0.66c0.46,0.44,0.69,1.061,0.69,1.86v2.556c0,0.248,0.111,0.377,0.336,0.385v0.912
			c-0.113,0.017-0.205,0.028-0.276,0.037c-0.071,0.008-0.147,0.012-0.228,0.012c-0.209,0-0.375-0.063-0.498-0.187
			c-0.125-0.124-0.199-0.274-0.223-0.45l-0.023-0.443c-0.281,0.375-0.635,0.662-1.063,0.857S309.344,17.289,308.856,17.289z
			 M309.133,16.496c0.375,0,0.727-0.07,1.05-0.209c0.323-0.141,0.569-0.326,0.737-0.56c0.152-0.151,0.229-0.308,0.229-0.468v-0.924
			c-0.513-0.201-1.044-0.301-1.597-0.301c-0.527,0-0.959,0.112-1.29,0.336c-0.332,0.225-0.498,0.516-0.498,0.877
			c0,0.176,0.034,0.34,0.104,0.491c0.066,0.151,0.163,0.284,0.287,0.396c0.124,0.113,0.27,0.201,0.438,0.266
			C308.76,16.465,308.94,16.496,309.133,16.496z"/>
		<path fill="#D2D6D7" d="M313.92,8.408h1.057v7.141c0,0.231,0.062,0.414,0.187,0.545c0.123,0.133,0.298,0.199,0.521,0.199
			c0.089,0,0.192-0.015,0.313-0.043c0.119-0.027,0.231-0.062,0.336-0.102L316.501,17c-0.176,0.072-0.385,0.133-0.624,0.181
			c-0.24,0.048-0.452,0.071-0.636,0.071c-0.408,0-0.73-0.115-0.967-0.348c-0.235-0.232-0.354-0.557-0.354-0.973V8.408z"/>
		<path fill="#D2D6D7" d="M323.244,16.856c-0.064,0.03-0.148,0.069-0.252,0.112c-0.104,0.045-0.224,0.089-0.354,0.133
			c-0.132,0.045-0.275,0.08-0.432,0.107c-0.156,0.028-0.318,0.043-0.486,0.043c-0.384,0-0.716-0.105-0.996-0.318
			c-0.279-0.213-0.42-0.541-0.42-0.989v-4.212h-0.853v-0.828h0.853V8.816h1.057v2.088h1.403v0.828h-1.403v3.889
			c0.017,0.231,0.092,0.399,0.229,0.504c0.136,0.104,0.296,0.155,0.48,0.155c0.207,0,0.396-0.034,0.568-0.103
			c0.172-0.067,0.29-0.122,0.354-0.162L323.244,16.856z"/>
		<path fill="#D2D6D7" d="M326.88,17.289c-0.472,0-0.901-0.088-1.29-0.265s-0.72-0.412-0.996-0.708
			c-0.274-0.296-0.49-0.641-0.642-1.031c-0.152-0.393-0.229-0.806-0.229-1.236c0-0.439,0.077-0.855,0.233-1.248
			c0.155-0.393,0.372-0.735,0.646-1.032c0.276-0.296,0.608-0.531,0.996-0.708c0.39-0.176,0.814-0.264,1.278-0.264
			s0.892,0.088,1.284,0.264c0.392,0.177,0.727,0.412,1.002,0.708c0.275,0.297,0.492,0.642,0.648,1.032
			c0.155,0.393,0.232,0.809,0.232,1.248c0,0.432-0.076,0.845-0.228,1.236c-0.152,0.391-0.368,0.735-0.648,1.031
			c-0.279,0.296-0.613,0.531-1.002,0.708C327.781,17.201,327.352,17.289,326.88,17.289z M324.805,14.061
			c0,0.328,0.054,0.633,0.161,0.912c0.108,0.279,0.257,0.523,0.444,0.732c0.187,0.207,0.408,0.371,0.66,0.491
			s0.521,0.181,0.81,0.181s0.559-0.061,0.811-0.181s0.475-0.286,0.666-0.497c0.191-0.213,0.342-0.461,0.45-0.744
			c0.107-0.285,0.161-0.591,0.161-0.918c0-0.32-0.054-0.623-0.161-0.906c-0.108-0.285-0.259-0.532-0.45-0.744
			c-0.191-0.213-0.414-0.379-0.666-0.498c-0.252-0.12-0.521-0.18-0.811-0.18s-0.558,0.063-0.81,0.186
			c-0.252,0.125-0.474,0.293-0.66,0.505c-0.188,0.212-0.336,0.46-0.444,0.743S324.805,13.732,324.805,14.061z"/>
		<path fill="#D2D6D7" d="M251.413,26.229c-0.528,0.017-0.994,0.151-1.397,0.407c-0.404,0.257-0.69,0.611-0.858,1.068v3.863h-1.056
			v-6.264h0.983v1.451c0.216-0.432,0.5-0.781,0.853-1.051c0.352-0.268,0.728-0.418,1.127-0.449c0.08,0,0.148,0,0.205,0
			c0.056,0,0.104,0.004,0.144,0.013V26.229z"/>
		<path fill="#D2D6D7" d="M255.085,31.689c-0.472,0-0.903-0.086-1.296-0.258s-0.729-0.406-1.008-0.702
			c-0.28-0.296-0.498-0.644-0.654-1.038c-0.156-0.396-0.234-0.814-0.234-1.254s0.078-0.855,0.234-1.248s0.376-0.736,0.66-1.031
			c0.283-0.297,0.622-0.529,1.014-0.703c0.393-0.172,0.824-0.258,1.297-0.258c0.471,0,0.901,0.088,1.289,0.264
			c0.389,0.178,0.719,0.41,0.99,0.703c0.271,0.291,0.482,0.631,0.63,1.021c0.148,0.388,0.222,0.79,0.222,1.206
			c0,0.088-0.002,0.168-0.006,0.238c-0.004,0.072-0.01,0.129-0.018,0.168h-5.196c0.024,0.313,0.097,0.598,0.216,0.854
			c0.12,0.256,0.276,0.477,0.469,0.66c0.191,0.184,0.41,0.328,0.654,0.432c0.243,0.104,0.5,0.156,0.773,0.156
			c0.191,0,0.38-0.025,0.564-0.078c0.184-0.052,0.355-0.121,0.516-0.21c0.16-0.088,0.302-0.196,0.426-0.323
			c0.124-0.129,0.218-0.271,0.282-0.433l0.911,0.252c-0.104,0.231-0.245,0.444-0.426,0.636c-0.18,0.192-0.388,0.358-0.623,0.498
			c-0.236,0.141-0.498,0.25-0.787,0.33C255.697,31.65,255.396,31.689,255.085,31.689z M257.232,28.018
			c-0.023-0.297-0.098-0.57-0.221-0.822c-0.125-0.252-0.281-0.466-0.469-0.643c-0.188-0.176-0.406-0.313-0.654-0.413
			c-0.248-0.101-0.512-0.15-0.791-0.15c-0.281,0-0.545,0.05-0.793,0.15c-0.248,0.1-0.466,0.239-0.654,0.42
			c-0.188,0.18-0.34,0.394-0.455,0.642c-0.116,0.248-0.187,0.521-0.211,0.816H257.232z"/>
		<path fill="#D2D6D7" d="M258.984,28.426c0-0.44,0.076-0.856,0.229-1.248c0.152-0.393,0.368-0.734,0.648-1.026
			c0.279-0.292,0.613-0.522,1.002-0.696c0.388-0.172,0.822-0.258,1.302-0.258c0.624,0,1.162,0.139,1.614,0.414
			c0.451,0.275,0.794,0.646,1.025,1.109l-1.031,0.324c-0.16-0.297-0.385-0.525-0.672-0.689c-0.289-0.164-0.608-0.246-0.961-0.246
			c-0.287,0-0.56,0.059-0.815,0.174c-0.257,0.116-0.476,0.278-0.66,0.486s-0.33,0.451-0.438,0.73
			c-0.107,0.28-0.162,0.588-0.162,0.926c0,0.328,0.057,0.636,0.168,0.924c0.113,0.287,0.263,0.537,0.451,0.75
			c0.188,0.212,0.407,0.378,0.66,0.498c0.252,0.119,0.521,0.18,0.81,0.18c0.184,0,0.366-0.025,0.546-0.078
			c0.18-0.052,0.344-0.121,0.492-0.21c0.147-0.088,0.277-0.188,0.39-0.306c0.112-0.116,0.192-0.242,0.24-0.378l1.032,0.312
			c-0.097,0.232-0.23,0.444-0.402,0.637c-0.172,0.191-0.374,0.355-0.605,0.492c-0.232,0.137-0.49,0.243-0.774,0.323
			s-0.582,0.12-0.894,0.12c-0.473,0-0.904-0.088-1.297-0.264c-0.392-0.178-0.728-0.412-1.008-0.709
			c-0.279-0.295-0.498-0.643-0.654-1.037C259.063,29.283,258.984,28.864,258.984,28.426z"/>
		<path fill="#D2D6D7" d="M268.729,31.689c-0.473,0-0.901-0.088-1.289-0.264c-0.389-0.178-0.721-0.412-0.996-0.709
			c-0.276-0.295-0.489-0.641-0.643-1.031c-0.152-0.391-0.229-0.805-0.229-1.236c0-0.439,0.078-0.855,0.234-1.248
			c0.155-0.392,0.371-0.734,0.647-1.031c0.274-0.297,0.606-0.531,0.996-0.709c0.387-0.176,0.813-0.264,1.276-0.264
			c0.465,0,0.894,0.088,1.285,0.264c0.391,0.178,0.725,0.412,1.002,0.709c0.275,0.297,0.491,0.641,0.646,1.031
			c0.156,0.393,0.234,0.809,0.234,1.248c0,0.432-0.076,0.846-0.229,1.236c-0.151,0.393-0.367,0.736-0.647,1.031
			c-0.279,0.297-0.613,0.531-1.002,0.709C269.631,31.602,269.201,31.689,268.729,31.689z M266.652,28.461
			c0,0.328,0.055,0.633,0.162,0.912s0.256,0.523,0.443,0.731s0.407,0.372,0.659,0.491c0.252,0.121,0.522,0.181,0.812,0.181
			s0.559-0.06,0.811-0.181c0.252-0.119,0.475-0.285,0.666-0.497s0.342-0.46,0.449-0.744s0.162-0.59,0.162-0.918
			c0-0.319-0.055-0.622-0.162-0.906s-0.258-0.532-0.449-0.743c-0.191-0.213-0.414-0.379-0.666-0.498
			c-0.252-0.121-0.521-0.181-0.811-0.181s-0.56,0.063-0.812,0.187c-0.252,0.125-0.472,0.293-0.659,0.504
			c-0.188,0.213-0.336,0.461-0.443,0.744S266.652,28.133,266.652,28.461z"/>
		<path fill="#D2D6D7" d="M276.492,26.229c-0.527,0.017-0.994,0.151-1.396,0.407c-0.404,0.257-0.691,0.611-0.859,1.068v3.863h-1.055
			v-6.264h0.982v1.451c0.217-0.432,0.5-0.781,0.854-1.051c0.353-0.268,0.728-0.418,1.127-0.449c0.08,0,0.148,0,0.205,0
			c0.055,0,0.104,0.004,0.144,0.013L276.492,26.229L276.492,26.229z"/>
		<path fill="#D2D6D7" d="M280.009,31.689c-0.433,0-0.832-0.088-1.2-0.264c-0.367-0.178-0.684-0.412-0.947-0.709
			c-0.264-0.295-0.471-0.641-0.618-1.031c-0.147-0.393-0.222-0.805-0.222-1.236c0-0.439,0.069-0.857,0.209-1.254
			c0.142-0.396,0.336-0.742,0.588-1.037c0.253-0.297,0.554-0.529,0.9-0.703c0.348-0.172,0.73-0.258,1.146-0.258
			c0.504,0,0.953,0.133,1.35,0.396s0.709,0.584,0.941,0.959V22.81h1.057v7.464c0,0.248,0.111,0.376,0.336,0.385v0.91
			c-0.111,0.016-0.201,0.027-0.27,0.036c-0.068,0.008-0.135,0.013-0.199,0.013c-0.207,0-0.391-0.07-0.545-0.211
			c-0.156-0.14-0.234-0.302-0.234-0.486v-0.526c-0.248,0.407-0.578,0.726-0.99,0.954C280.898,31.574,280.465,31.689,280.009,31.689z
			 M280.262,30.776c0.191,0,0.389-0.036,0.594-0.108c0.203-0.07,0.396-0.172,0.576-0.299c0.18-0.129,0.336-0.277,0.467-0.451
			c0.134-0.172,0.22-0.354,0.259-0.545v-1.801c-0.072-0.199-0.181-0.39-0.324-0.57c-0.144-0.18-0.306-0.336-0.485-0.467
			c-0.18-0.133-0.371-0.236-0.576-0.313c-0.203-0.077-0.404-0.114-0.605-0.114c-0.313,0-0.594,0.065-0.846,0.198
			c-0.252,0.132-0.469,0.308-0.647,0.527c-0.181,0.221-0.317,0.473-0.414,0.756s-0.144,0.574-0.144,0.869
			c0,0.313,0.055,0.61,0.168,0.896c0.111,0.284,0.264,0.53,0.455,0.737c0.191,0.209,0.418,0.375,0.678,0.498
			C279.676,30.715,279.957,30.776,280.262,30.776z"/>
		<path fill="#D2D6D7" d="M284.93,25.558v-2.604h0.911v2.604H284.93z"/>
		<path fill="#D2D6D7" d="M289.598,31.689c-0.505,0-1-0.078-1.488-0.234c-0.487-0.154-0.907-0.381-1.26-0.678l0.455-0.708
			c0.368,0.28,0.736,0.49,1.104,0.63c0.368,0.141,0.757,0.211,1.164,0.211c0.457,0,0.817-0.091,1.086-0.271
			c0.269-0.181,0.401-0.435,0.401-0.763c0-0.151-0.035-0.281-0.106-0.391c-0.072-0.109-0.181-0.201-0.324-0.281
			s-0.327-0.152-0.553-0.217c-0.224-0.063-0.483-0.132-0.779-0.203c-0.376-0.097-0.7-0.189-0.973-0.275
			c-0.271-0.088-0.496-0.192-0.673-0.313c-0.176-0.12-0.303-0.264-0.383-0.432c-0.08-0.169-0.121-0.376-0.121-0.624
			c0-0.313,0.063-0.59,0.188-0.834s0.294-0.448,0.51-0.612c0.217-0.164,0.471-0.288,0.764-0.372
			c0.291-0.084,0.604-0.126,0.941-0.126c0.473,0,0.911,0.076,1.319,0.229c0.408,0.15,0.752,0.352,1.03,0.6l-0.479,0.637
			c-0.265-0.231-0.56-0.406-0.888-0.521c-0.328-0.116-0.664-0.174-1.009-0.174c-0.385,0-0.711,0.082-0.979,0.244
			c-0.268,0.164-0.402,0.428-0.402,0.787c0,0.145,0.026,0.264,0.078,0.359c0.053,0.096,0.14,0.18,0.258,0.252
			c0.121,0.072,0.274,0.137,0.464,0.191c0.188,0.057,0.413,0.115,0.678,0.181c0.416,0.097,0.776,0.194,1.086,0.294
			c0.308,0.1,0.563,0.219,0.769,0.354c0.203,0.138,0.354,0.297,0.455,0.48c0.102,0.186,0.15,0.408,0.15,0.672
			c0,0.584-0.225,1.049-0.673,1.393S290.357,31.689,289.598,31.689z"/>
		<path fill="#D2D6D7" d="M297.973,31.689c-0.295,0-0.572-0.05-0.828-0.15c-0.256-0.1-0.479-0.236-0.666-0.414
			c-0.188-0.176-0.336-0.381-0.442-0.617c-0.108-0.235-0.162-0.493-0.162-0.773c0-0.288,0.063-0.55,0.19-0.785
			c0.129-0.236,0.312-0.439,0.548-0.605c0.235-0.17,0.516-0.301,0.84-0.396c0.323-0.095,0.678-0.145,1.062-0.145
			c0.305,0,0.612,0.027,0.924,0.084c0.313,0.057,0.59,0.133,0.828,0.229v-0.507c0-0.513-0.144-0.914-0.433-1.206
			c-0.287-0.292-0.694-0.438-1.224-0.438c-0.633,0-1.297,0.242-1.991,0.73l-0.349-0.684c0.808-0.545,1.619-0.816,2.437-0.816
			c0.824,0,1.465,0.221,1.926,0.66c0.46,0.439,0.689,1.061,0.689,1.859v2.557c0,0.248,0.112,0.376,0.336,0.384v0.913
			c-0.111,0.016-0.203,0.027-0.275,0.036c-0.071,0.008-0.147,0.013-0.229,0.013c-0.208,0-0.373-0.063-0.498-0.187
			c-0.123-0.124-0.197-0.274-0.222-0.45l-0.024-0.443c-0.279,0.375-0.634,0.661-1.062,0.857
			C298.918,31.59,298.461,31.689,297.973,31.689z M298.248,30.897c0.377,0,0.727-0.069,1.051-0.21s0.57-0.326,0.738-0.559
			c0.15-0.151,0.229-0.309,0.229-0.469v-0.924c-0.514-0.199-1.045-0.3-1.598-0.3c-0.527,0-0.957,0.112-1.289,0.336
			s-0.498,0.517-0.498,0.876c0,0.176,0.033,0.34,0.102,0.492c0.068,0.15,0.164,0.283,0.289,0.396
			c0.123,0.111,0.271,0.199,0.438,0.264C297.877,30.864,298.057,30.897,298.248,30.897z"/>
		<path fill="#D2D6D7" d="M304.621,31.568l-2.473-6.264h1.092l1.98,5.34l1.991-5.34h1.008l-2.473,6.264H304.621z"/>
		<path fill="#D2D6D7" d="M311.82,31.689c-0.474,0-0.904-0.086-1.296-0.258c-0.393-0.172-0.729-0.406-1.01-0.702
			c-0.278-0.296-0.498-0.644-0.652-1.038c-0.156-0.396-0.233-0.814-0.233-1.254s0.077-0.855,0.233-1.248
			c0.154-0.393,0.376-0.736,0.66-1.031c0.283-0.297,0.621-0.529,1.014-0.703c0.392-0.172,0.824-0.258,1.296-0.258
			c0.473,0,0.902,0.088,1.29,0.264c0.388,0.178,0.718,0.41,0.99,0.703c0.271,0.291,0.48,0.631,0.63,1.021
			c0.147,0.388,0.223,0.79,0.223,1.206c0,0.088-0.002,0.168-0.006,0.238c-0.005,0.072-0.011,0.129-0.019,0.168h-5.196
			c0.022,0.313,0.096,0.598,0.217,0.854c0.119,0.256,0.275,0.477,0.467,0.66c0.192,0.184,0.41,0.328,0.654,0.432
			s0.502,0.156,0.773,0.156c0.192,0,0.381-0.025,0.563-0.078c0.183-0.052,0.356-0.121,0.517-0.21
			c0.159-0.088,0.303-0.196,0.427-0.323c0.124-0.129,0.218-0.271,0.281-0.433l0.912,0.252c-0.104,0.231-0.246,0.444-0.426,0.636
			c-0.181,0.192-0.389,0.358-0.625,0.498c-0.236,0.141-0.498,0.25-0.785,0.33C312.432,31.648,312.133,31.689,311.82,31.689z
			 M313.969,28.018c-0.023-0.297-0.099-0.57-0.223-0.822s-0.279-0.466-0.468-0.643c-0.189-0.176-0.406-0.313-0.653-0.413
			c-0.248-0.101-0.513-0.15-0.793-0.15c-0.279,0-0.544,0.05-0.791,0.15c-0.249,0.1-0.467,0.239-0.654,0.42
			c-0.188,0.18-0.34,0.394-0.457,0.642c-0.114,0.248-0.186,0.521-0.209,0.816H313.969z"/>
		<path fill="#D2D6D7" d="M319.452,26.229c-0.528,0.017-0.994,0.151-1.397,0.407c-0.403,0.257-0.689,0.611-0.857,1.068v3.863h-1.057
			v-6.264h0.983v1.451c0.216-0.432,0.5-0.781,0.853-1.051c0.353-0.268,0.729-0.418,1.128-0.449c0.079,0,0.147,0,0.204,0
			c0.056,0,0.104,0.004,0.145,0.013L319.452,26.229L319.452,26.229z"/>
		<path fill="#D2D6D7" d="M322.104,31.689c-0.295,0-0.571-0.05-0.827-0.15c-0.257-0.1-0.479-0.236-0.666-0.414
			c-0.188-0.176-0.336-0.381-0.443-0.617c-0.107-0.235-0.162-0.493-0.162-0.773c0-0.288,0.064-0.55,0.191-0.785
			c0.129-0.236,0.311-0.439,0.547-0.605c0.236-0.17,0.516-0.301,0.84-0.396c0.324-0.095,0.678-0.145,1.063-0.145
			c0.303,0,0.61,0.027,0.924,0.084c0.312,0.057,0.588,0.133,0.828,0.229v-0.507c0-0.513-0.146-0.914-0.434-1.206
			s-0.696-0.438-1.224-0.438c-0.633,0-1.297,0.242-1.992,0.73l-0.348-0.684c0.808-0.545,1.618-0.816,2.436-0.816
			c0.824,0,1.466,0.221,1.926,0.66c0.461,0.439,0.69,1.061,0.69,1.859v2.557c0,0.248,0.112,0.376,0.336,0.384v0.913
			c-0.112,0.016-0.204,0.027-0.276,0.036c-0.071,0.008-0.147,0.013-0.228,0.013c-0.208,0-0.374-0.063-0.498-0.187
			s-0.198-0.274-0.222-0.45l-0.024-0.443c-0.28,0.375-0.634,0.661-1.062,0.857C323.05,31.59,322.592,31.689,322.104,31.689z
			 M322.38,30.897c0.376,0,0.727-0.069,1.05-0.21c0.324-0.141,0.57-0.326,0.738-0.559c0.152-0.151,0.229-0.309,0.229-0.469v-0.924
			c-0.514-0.199-1.046-0.3-1.598-0.3c-0.527,0-0.958,0.112-1.29,0.336s-0.498,0.517-0.498,0.876c0,0.176,0.034,0.34,0.104,0.492
			c0.066,0.15,0.163,0.283,0.288,0.396c0.123,0.111,0.27,0.199,0.438,0.264C322.008,30.864,322.188,30.897,322.38,30.897z"/>
		<path fill="#D2D6D7" d="M329.641,31.642c-0.425,0-0.813-0.089-1.17-0.265s-0.662-0.412-0.919-0.709
			c-0.256-0.295-0.454-0.635-0.594-1.02c-0.14-0.384-0.21-0.784-0.21-1.199c0-0.439,0.07-0.857,0.21-1.255
			c0.14-0.396,0.338-0.741,0.594-1.038c0.257-0.296,0.563-0.529,0.919-0.701c0.355-0.172,0.75-0.259,1.183-0.259
			c0.526,0,0.983,0.128,1.366,0.384c0.386,0.258,0.71,0.58,0.974,0.973v-1.247h0.936v6.19c0,0.448-0.084,0.842-0.252,1.184
			c-0.168,0.34-0.396,0.626-0.684,0.857s-0.627,0.407-1.015,0.527c-0.389,0.12-0.803,0.18-1.241,0.18
			c-0.713,0-1.291-0.121-1.734-0.365s-0.813-0.582-1.109-1.015l0.611-0.54c0.248,0.368,0.568,0.645,0.96,0.828
			c0.393,0.184,0.815,0.275,1.272,0.275c0.287,0,0.562-0.039,0.821-0.119c0.261-0.08,0.485-0.2,0.679-0.359
			c0.19-0.16,0.346-0.361,0.461-0.601c0.117-0.24,0.175-0.524,0.175-0.853v-1.104c-0.12,0.19-0.263,0.366-0.427,0.521
			c-0.164,0.156-0.343,0.289-0.533,0.396c-0.191,0.107-0.396,0.189-0.612,0.246C330.084,31.612,329.863,31.642,329.641,31.642z
			 M329.964,30.776c0.225,0,0.44-0.04,0.647-0.12c0.209-0.08,0.399-0.186,0.576-0.318c0.176-0.131,0.323-0.28,0.443-0.448
			c0.12-0.169,0.2-0.341,0.24-0.517v-1.801c-0.089-0.216-0.202-0.412-0.343-0.588c-0.14-0.176-0.297-0.33-0.474-0.462
			s-0.366-0.233-0.569-0.306c-0.204-0.072-0.41-0.108-0.618-0.108c-0.32,0-0.606,0.067-0.858,0.204s-0.466,0.316-0.642,0.54
			c-0.177,0.224-0.313,0.478-0.408,0.762s-0.144,0.57-0.144,0.858c0,0.313,0.056,0.607,0.168,0.888
			c0.11,0.28,0.264,0.524,0.454,0.731c0.192,0.209,0.419,0.375,0.68,0.498C329.378,30.715,329.66,30.776,329.964,30.776z"/>
		<path fill="#D2D6D7" d="M337.404,31.689c-0.474,0-0.904-0.086-1.297-0.258s-0.729-0.406-1.009-0.702
			c-0.278-0.296-0.498-0.644-0.653-1.038c-0.156-0.396-0.233-0.814-0.233-1.254s0.077-0.855,0.233-1.248
			c0.155-0.393,0.377-0.736,0.66-1.031c0.283-0.297,0.621-0.529,1.014-0.703c0.393-0.172,0.824-0.258,1.297-0.258
			c0.472,0,0.902,0.088,1.289,0.264c0.389,0.178,0.719,0.41,0.99,0.703c0.271,0.291,0.481,0.631,0.631,1.021
			c0.146,0.388,0.222,0.79,0.222,1.206c0,0.088-0.002,0.168-0.006,0.238c-0.005,0.072-0.011,0.129-0.019,0.168h-5.195
			c0.022,0.313,0.096,0.598,0.216,0.854s0.276,0.477,0.468,0.66s0.41,0.328,0.654,0.432s0.502,0.156,0.773,0.156
			c0.191,0,0.381-0.025,0.563-0.078c0.183-0.052,0.355-0.121,0.516-0.21c0.161-0.088,0.304-0.196,0.427-0.323
			c0.125-0.129,0.219-0.271,0.282-0.433l0.911,0.252c-0.104,0.231-0.246,0.444-0.426,0.636c-0.181,0.192-0.388,0.358-0.624,0.498
			c-0.236,0.141-0.498,0.25-0.786,0.33S337.716,31.689,337.404,31.689z M339.552,28.018c-0.023-0.297-0.099-0.57-0.222-0.822
			c-0.125-0.252-0.28-0.466-0.469-0.643c-0.188-0.176-0.406-0.313-0.653-0.413c-0.248-0.101-0.513-0.15-0.792-0.15
			c-0.28,0-0.545,0.05-0.792,0.15c-0.249,0.1-0.466,0.239-0.654,0.42c-0.188,0.18-0.34,0.394-0.456,0.642
			c-0.114,0.248-0.186,0.521-0.21,0.816H339.552z"/>
		<path fill="#D2D6D7" d="M346.955,31.689c-0.504,0-1-0.078-1.487-0.234c-0.487-0.154-0.908-0.381-1.261-0.678l0.457-0.708
			c0.367,0.28,0.735,0.49,1.104,0.63c0.368,0.141,0.757,0.211,1.164,0.211c0.456,0,0.818-0.091,1.086-0.271
			c0.269-0.181,0.402-0.435,0.402-0.763c0-0.151-0.036-0.281-0.107-0.391c-0.071-0.107-0.181-0.201-0.323-0.281
			c-0.146-0.08-0.328-0.152-0.554-0.217c-0.225-0.063-0.483-0.132-0.778-0.203c-0.377-0.097-0.701-0.189-0.974-0.275
			c-0.271-0.088-0.495-0.192-0.672-0.313c-0.176-0.12-0.305-0.264-0.384-0.432c-0.08-0.169-0.12-0.376-0.12-0.624
			c0-0.313,0.063-0.59,0.187-0.834c0.125-0.244,0.295-0.448,0.51-0.612c0.217-0.164,0.471-0.288,0.763-0.372
			s0.606-0.126,0.942-0.126c0.472,0,0.912,0.076,1.319,0.229c0.407,0.15,0.752,0.352,1.031,0.6l-0.479,0.637
			c-0.265-0.231-0.561-0.406-0.889-0.521c-0.327-0.116-0.663-0.174-1.008-0.174c-0.384,0-0.71,0.082-0.978,0.244
			c-0.27,0.164-0.402,0.428-0.402,0.787c0,0.145,0.025,0.264,0.078,0.359c0.052,0.096,0.138,0.18,0.258,0.252
			c0.119,0.072,0.273,0.137,0.462,0.191c0.188,0.057,0.414,0.115,0.679,0.181c0.416,0.097,0.777,0.194,1.087,0.294
			c0.307,0.1,0.563,0.219,0.768,0.354c0.203,0.138,0.355,0.297,0.455,0.48c0.101,0.186,0.15,0.408,0.15,0.672
			c0,0.584-0.225,1.049-0.673,1.393C348.32,31.518,347.716,31.689,346.955,31.689z"/>
		<path fill="#D2D6D7" d="M354.06,31.689c-0.521,0-0.978-0.128-1.374-0.384c-0.396-0.257-0.71-0.58-0.94-0.974v3.793h-1.057v-8.819
			h0.936v1.176c0.248-0.384,0.57-0.694,0.967-0.931c0.396-0.235,0.834-0.354,1.313-0.354c0.433,0,0.828,0.088,1.188,0.264
			c0.359,0.178,0.672,0.414,0.937,0.715c0.264,0.301,0.471,0.646,0.618,1.037c0.146,0.394,0.222,0.802,0.222,1.226
			c0,0.448-0.068,0.87-0.203,1.267c-0.137,0.396-0.328,0.739-0.576,1.031s-0.545,0.523-0.889,0.696
			C354.856,31.604,354.475,31.689,354.06,31.689z M353.735,30.776c0.312,0,0.595-0.065,0.847-0.198
			c0.252-0.132,0.467-0.308,0.646-0.527c0.182-0.221,0.317-0.471,0.414-0.75s0.145-0.567,0.145-0.863
			c0-0.313-0.056-0.609-0.168-0.895c-0.111-0.283-0.264-0.531-0.455-0.744c-0.192-0.211-0.419-0.379-0.679-0.504
			c-0.261-0.123-0.542-0.187-0.847-0.187c-0.191,0-0.39,0.038-0.595,0.114c-0.203,0.076-0.396,0.176-0.576,0.3
			c-0.18,0.124-0.336,0.271-0.467,0.444c-0.133,0.172-0.219,0.354-0.258,0.545v1.789c0.088,0.207,0.199,0.4,0.336,0.582
			c0.135,0.18,0.291,0.336,0.467,0.468s0.365,0.235,0.564,0.312C353.313,30.738,353.52,30.776,353.735,30.776z"/>
		<path fill="#D2D6D7" d="M360.936,31.689c-0.473,0-0.903-0.086-1.296-0.258c-0.392-0.172-0.728-0.406-1.009-0.702
			c-0.279-0.296-0.498-0.644-0.653-1.038c-0.155-0.396-0.232-0.814-0.232-1.254s0.077-0.855,0.232-1.248s0.376-0.736,0.66-1.031
			c0.284-0.297,0.622-0.529,1.015-0.703c0.392-0.172,0.823-0.258,1.296-0.258s0.901,0.088,1.29,0.264
			c0.388,0.178,0.718,0.41,0.989,0.703c0.272,0.291,0.481,0.631,0.631,1.021c0.147,0.388,0.223,0.79,0.223,1.206
			c0,0.088-0.002,0.168-0.006,0.238c-0.005,0.072-0.011,0.129-0.02,0.168h-5.195c0.022,0.313,0.096,0.598,0.217,0.854
			c0.119,0.256,0.274,0.477,0.467,0.66s0.41,0.328,0.654,0.432s0.502,0.156,0.773,0.156c0.192,0,0.38-0.025,0.563-0.078
			c0.183-0.052,0.355-0.121,0.517-0.21c0.159-0.088,0.302-0.196,0.426-0.323c0.124-0.129,0.219-0.271,0.282-0.433l0.912,0.252
			c-0.104,0.231-0.246,0.444-0.426,0.636c-0.182,0.192-0.389,0.358-0.625,0.498c-0.236,0.141-0.498,0.25-0.785,0.33
			C361.547,31.648,361.248,31.689,360.936,31.689z M363.084,28.018c-0.024-0.297-0.099-0.57-0.223-0.822s-0.279-0.466-0.469-0.643
			c-0.188-0.176-0.405-0.313-0.652-0.413c-0.248-0.101-0.514-0.15-0.793-0.15s-0.544,0.05-0.791,0.15
			c-0.249,0.1-0.467,0.239-0.654,0.42c-0.188,0.18-0.34,0.394-0.457,0.642c-0.115,0.248-0.186,0.521-0.209,0.816H363.084z"/>
		<path fill="#D2D6D7" d="M368.027,31.689c-0.474,0-0.904-0.086-1.296-0.258c-0.393-0.172-0.729-0.406-1.01-0.702
			c-0.278-0.296-0.498-0.644-0.652-1.038c-0.156-0.396-0.233-0.814-0.233-1.254s0.077-0.855,0.233-1.248
			c0.154-0.393,0.376-0.736,0.659-1.031c0.284-0.297,0.622-0.529,1.015-0.703c0.392-0.172,0.824-0.258,1.296-0.258
			c0.473,0,0.902,0.088,1.29,0.264c0.388,0.178,0.718,0.41,0.99,0.703c0.271,0.291,0.48,0.631,0.63,1.021
			c0.147,0.388,0.223,0.79,0.223,1.206c0,0.088-0.002,0.168-0.006,0.238c-0.005,0.072-0.011,0.129-0.02,0.168h-5.195
			c0.022,0.313,0.096,0.598,0.217,0.854c0.119,0.256,0.275,0.477,0.467,0.66c0.192,0.184,0.41,0.328,0.654,0.432
			s0.502,0.156,0.773,0.156c0.192,0,0.381-0.025,0.563-0.078c0.183-0.052,0.356-0.121,0.517-0.21
			c0.159-0.088,0.303-0.196,0.427-0.323c0.124-0.129,0.218-0.271,0.281-0.433l0.912,0.252c-0.104,0.231-0.246,0.444-0.426,0.636
			c-0.181,0.192-0.389,0.358-0.625,0.498c-0.236,0.141-0.498,0.25-0.785,0.33C368.639,31.648,368.34,31.689,368.027,31.689z
			 M370.176,28.018c-0.023-0.297-0.099-0.57-0.223-0.822s-0.279-0.466-0.468-0.643c-0.189-0.176-0.406-0.313-0.653-0.413
			c-0.248-0.101-0.513-0.15-0.793-0.15c-0.279,0-0.544,0.05-0.791,0.15c-0.249,0.1-0.467,0.239-0.654,0.42
			c-0.188,0.18-0.34,0.394-0.457,0.642c-0.114,0.248-0.186,0.521-0.209,0.816H370.176z"/>
		<path fill="#D2D6D7" d="M374.928,31.689c-0.433,0-0.832-0.088-1.201-0.264c-0.366-0.178-0.684-0.412-0.946-0.709
			c-0.264-0.295-0.472-0.641-0.618-1.031c-0.147-0.391-0.222-0.805-0.222-1.236c0-0.439,0.069-0.857,0.209-1.254
			c0.141-0.396,0.337-0.742,0.589-1.037c0.252-0.297,0.552-0.529,0.898-0.703c0.35-0.172,0.73-0.258,1.146-0.258
			c0.504,0,0.954,0.133,1.35,0.396c0.396,0.264,0.71,0.584,0.942,0.959V22.81h1.056v7.464c0,0.248,0.112,0.376,0.336,0.385v0.91
			c-0.11,0.016-0.201,0.027-0.27,0.036c-0.069,0.008-0.135,0.013-0.198,0.013c-0.208,0-0.39-0.07-0.546-0.211
			c-0.156-0.14-0.234-0.302-0.234-0.486v-0.526c-0.248,0.407-0.578,0.726-0.989,0.954C375.816,31.574,375.383,31.689,374.928,31.689
			z M375.18,30.776c0.191,0,0.391-0.036,0.595-0.108c0.202-0.07,0.396-0.172,0.575-0.299c0.181-0.129,0.336-0.277,0.468-0.451
			c0.133-0.172,0.219-0.354,0.259-0.545v-1.801c-0.072-0.199-0.182-0.39-0.324-0.57c-0.144-0.18-0.306-0.336-0.485-0.467
			c-0.181-0.133-0.372-0.236-0.575-0.313c-0.204-0.076-0.406-0.114-0.606-0.114c-0.312,0-0.594,0.065-0.846,0.198
			c-0.252,0.132-0.468,0.308-0.647,0.527c-0.181,0.221-0.317,0.473-0.414,0.756s-0.145,0.574-0.145,0.869
			c0,0.313,0.056,0.61,0.168,0.896c0.111,0.284,0.264,0.53,0.456,0.737c0.191,0.209,0.418,0.375,0.678,0.498
			C374.595,30.715,374.875,30.776,375.18,30.776z"/>
	</g>
	<g>
		<path fill="#D2D6D7" d="M248.137,52.418v-8.52h5.725v1.451h-4.068v2.195h3.384v1.345h-3.384v3.528H248.137L248.137,52.418z"/>
		<path fill="#D2D6D7" d="M255.564,52.539c-0.303,0-0.588-0.051-0.852-0.15s-0.492-0.239-0.684-0.42
			c-0.192-0.18-0.342-0.391-0.45-0.631c-0.108-0.239-0.162-0.504-0.162-0.791c0-0.297,0.065-0.57,0.198-0.822
			c0.132-0.252,0.316-0.467,0.552-0.643s0.519-0.313,0.847-0.414c0.327-0.1,0.688-0.149,1.079-0.149c0.28,0,0.554,0.024,0.822,0.071
			c0.269,0.049,0.506,0.117,0.714,0.205v-0.36c0-0.415-0.118-0.735-0.354-0.96c-0.236-0.225-0.586-0.336-1.051-0.336
			c-0.336,0-0.664,0.061-0.983,0.181c-0.32,0.119-0.648,0.296-0.984,0.526l-0.491-1.02c0.808-0.535,1.68-0.805,2.615-0.805
			c0.904,0,1.605,0.223,2.105,0.666s0.75,1.087,0.75,1.927v1.956c0,0.168,0.031,0.288,0.091,0.359
			c0.06,0.072,0.157,0.111,0.294,0.119v1.369c-0.271,0.056-0.508,0.084-0.708,0.084c-0.304,0-0.538-0.068-0.702-0.205
			c-0.164-0.135-0.266-0.314-0.307-0.539l-0.035-0.348c-0.28,0.367-0.62,0.646-1.02,0.84
			C256.449,52.442,256.021,52.539,255.564,52.539z M256.021,51.362c0.271,0,0.529-0.048,0.773-0.146
			c0.244-0.096,0.434-0.223,0.57-0.383c0.176-0.137,0.264-0.289,0.264-0.457v-0.719c-0.191-0.072-0.4-0.131-0.624-0.175
			s-0.44-0.065-0.647-0.065c-0.418,0-0.756,0.094-1.021,0.281c-0.264,0.188-0.396,0.426-0.396,0.715
			c0,0.271,0.104,0.498,0.312,0.678C255.461,51.272,255.717,51.362,256.021,51.362z"/>
		<path fill="#D2D6D7" d="M263.113,52.539c-0.528,0-1.045-0.084-1.549-0.252s-0.936-0.408-1.295-0.721l0.6-1.009
			c0.384,0.272,0.758,0.479,1.122,0.618c0.364,0.141,0.726,0.209,1.086,0.209c0.319,0,0.571-0.059,0.756-0.18
			c0.185-0.119,0.276-0.291,0.276-0.516s-0.108-0.389-0.324-0.492c-0.217-0.104-0.568-0.225-1.057-0.359
			c-0.407-0.112-0.756-0.221-1.043-0.324c-0.289-0.104-0.521-0.223-0.696-0.354c-0.175-0.133-0.304-0.285-0.384-0.457
			s-0.121-0.377-0.121-0.617c0-0.32,0.063-0.607,0.187-0.865c0.124-0.256,0.298-0.473,0.522-0.652
			c0.224-0.182,0.486-0.318,0.785-0.414c0.301-0.097,0.627-0.145,0.979-0.145c0.473,0,0.914,0.068,1.326,0.203
			c0.412,0.137,0.79,0.356,1.134,0.66l-0.647,0.973c-0.32-0.239-0.631-0.416-0.931-0.527s-0.598-0.168-0.894-0.168
			c-0.272,0-0.5,0.057-0.684,0.168c-0.185,0.111-0.277,0.292-0.277,0.54c0,0.11,0.022,0.203,0.066,0.274
			c0.045,0.072,0.114,0.138,0.211,0.193c0.096,0.055,0.221,0.108,0.377,0.161c0.156,0.052,0.351,0.104,0.582,0.162
			c0.432,0.11,0.803,0.224,1.11,0.336c0.308,0.11,0.56,0.239,0.756,0.384s0.34,0.311,0.433,0.498
			c0.092,0.188,0.138,0.414,0.138,0.678c0,0.617-0.228,1.104-0.685,1.459C264.518,52.36,263.896,52.539,263.113,52.539z"/>
		<path fill="#D2D6D7" d="M270.469,52.094c-0.216,0.098-0.479,0.193-0.791,0.289c-0.313,0.096-0.641,0.145-0.984,0.145
			c-0.225,0-0.435-0.027-0.631-0.084c-0.194-0.057-0.367-0.146-0.516-0.271s-0.266-0.283-0.354-0.479
			c-0.09-0.195-0.133-0.436-0.133-0.715v-3.611h-0.828v-1.236h0.828v-2.039h1.607v2.039h1.318v1.236h-1.318v3.071
			c0,0.226,0.059,0.383,0.174,0.476c0.116,0.092,0.258,0.137,0.426,0.137s0.332-0.026,0.492-0.084
			c0.16-0.055,0.288-0.104,0.385-0.144L270.469,52.094z"/>
		<path fill="#D2D6D7" d="M274.068,52.539c-0.504,0-0.959-0.086-1.367-0.259c-0.408-0.172-0.756-0.405-1.045-0.702
			c-0.287-0.295-0.51-0.64-0.666-1.031c-0.155-0.393-0.233-0.805-0.233-1.236c0-0.447,0.076-0.869,0.228-1.266
			c0.152-0.396,0.373-0.744,0.66-1.045c0.289-0.299,0.64-0.537,1.051-0.713c0.412-0.177,0.873-0.266,1.387-0.266
			c0.512,0,0.97,0.089,1.374,0.266c0.403,0.176,0.748,0.412,1.03,0.707c0.285,0.297,0.5,0.641,0.648,1.032s0.223,0.8,0.223,1.224
			c0,0.104-0.002,0.205-0.006,0.301s-0.015,0.176-0.031,0.24h-4.858c0.022,0.248,0.084,0.467,0.181,0.66
			c0.096,0.19,0.221,0.354,0.371,0.491c0.151,0.136,0.324,0.239,0.518,0.312c0.191,0.072,0.392,0.108,0.6,0.108
			c0.32,0,0.622-0.077,0.906-0.233c0.283-0.156,0.479-0.362,0.582-0.619l1.38,0.385c-0.231,0.48-0.603,0.875-1.11,1.184
			C275.382,52.385,274.773,52.539,274.068,52.539z M275.701,48.746c-0.041-0.472-0.215-0.85-0.521-1.134
			c-0.308-0.284-0.684-0.427-1.123-0.427c-0.216,0-0.418,0.038-0.604,0.113c-0.188,0.076-0.354,0.184-0.498,0.318
			c-0.146,0.137-0.263,0.301-0.354,0.492c-0.093,0.191-0.146,0.402-0.162,0.637H275.701L275.701,48.746z"/>
		<path fill="#D2D6D7" d="M282.085,47.522c-0.487,0.009-0.925,0.103-1.308,0.282c-0.385,0.181-0.66,0.449-0.828,0.811v3.805h-1.608
			v-6.289h1.476v1.345c0.113-0.216,0.244-0.409,0.396-0.582s0.316-0.321,0.492-0.449s0.354-0.228,0.533-0.294
			c0.181-0.068,0.354-0.104,0.521-0.104c0.088,0,0.154,0,0.198,0s0.086,0.004,0.126,0.013L282.085,47.522L282.085,47.522z"/>
		<path fill="#D2D6D7" d="M285.707,48.123h7.07c-0.273-0.25-0.496-0.582-0.668-0.994c-0.17-0.414-0.256-0.811-0.256-1.19
			c0.826,1.108,1.85,1.886,3.069,2.329c-0.602,0.215-1.168,0.525-1.7,0.932c-0.531,0.405-0.988,0.869-1.369,1.395
			c0-0.403,0.082-0.781,0.248-1.135c0.164-0.353,0.391-0.705,0.676-1.06h-7.07V48.123z"/>
		<path fill="#D2D6D7" d="M302.688,52.539c-0.48,0-0.908-0.108-1.285-0.324c-0.375-0.217-0.672-0.512-0.887-0.889v1.092h-1.404
			v-8.76h1.606v3.576c0.226-0.385,0.519-0.684,0.884-0.895c0.362-0.213,0.789-0.318,1.276-0.318c0.408,0,0.78,0.089,1.117,0.266
			c0.336,0.176,0.625,0.411,0.869,0.707c0.243,0.297,0.432,0.645,0.563,1.045c0.133,0.399,0.197,0.819,0.197,1.26
			c0,0.455-0.074,0.879-0.223,1.271c-0.146,0.393-0.354,0.732-0.617,1.025c-0.264,0.291-0.576,0.521-0.936,0.689
			C303.491,52.455,303.104,52.539,302.688,52.539z M302.243,51.17c0.257,0,0.491-0.049,0.708-0.149s0.4-0.233,0.553-0.401
			c0.151-0.168,0.27-0.363,0.354-0.588s0.127-0.464,0.127-0.721c0-0.256-0.041-0.499-0.12-0.73c-0.08-0.232-0.193-0.438-0.343-0.613
			c-0.148-0.174-0.321-0.314-0.521-0.42c-0.201-0.104-0.42-0.155-0.66-0.155c-0.36,0-0.683,0.118-0.967,0.354
			c-0.283,0.235-0.502,0.525-0.653,0.869v1.5c0.057,0.16,0.139,0.305,0.245,0.432c0.108,0.129,0.23,0.238,0.367,0.33
			c0.136,0.092,0.283,0.164,0.442,0.217C301.936,51.146,302.092,51.17,302.243,51.17z"/>
		<path fill="#D2D6D7" d="M306.719,45.254v-1.596h1.608v1.596H306.719z M306.719,52.418v-6.287h1.608v6.287H306.719z"/>
		<path fill="#D2D6D7" d="M312.238,52.455c-0.424,0-0.809-0.084-1.151-0.252c-0.345-0.168-0.642-0.398-0.894-0.691
			c-0.252-0.291-0.447-0.629-0.582-1.014c-0.138-0.384-0.205-0.791-0.205-1.224c0-0.456,0.071-0.881,0.217-1.272
			c0.145-0.391,0.344-0.735,0.6-1.031c0.257-0.297,0.564-0.527,0.925-0.695c0.359-0.168,0.756-0.253,1.188-0.253
			c0.487,0,0.916,0.11,1.284,0.33c0.367,0.222,0.672,0.515,0.912,0.883v-1.104h1.403v5.988c0,0.465-0.089,0.881-0.265,1.248
			c-0.177,0.367-0.418,0.68-0.726,0.936c-0.31,0.257-0.678,0.453-1.104,0.589c-0.429,0.137-0.894,0.204-1.396,0.204
			c-0.688,0-1.268-0.114-1.734-0.342c-0.469-0.229-0.87-0.551-1.206-0.967l0.876-0.853c0.24,0.296,0.542,0.528,0.906,0.696
			c0.363,0.168,0.75,0.252,1.158,0.252c0.248,0,0.484-0.034,0.713-0.103c0.229-0.067,0.431-0.174,0.605-0.317
			c0.178-0.145,0.313-0.328,0.414-0.553c0.102-0.225,0.149-0.488,0.149-0.791v-0.793c-0.207,0.359-0.5,0.639-0.875,0.834
			C313.074,52.356,312.671,52.455,312.238,52.455z M312.779,51.17c0.176,0,0.344-0.027,0.504-0.084
			c0.16-0.056,0.308-0.131,0.442-0.228c0.138-0.097,0.257-0.208,0.36-0.337c0.104-0.127,0.186-0.264,0.239-0.407v-1.5
			c-0.144-0.368-0.369-0.663-0.678-0.889c-0.309-0.224-0.63-0.336-0.966-0.336c-0.249,0-0.473,0.055-0.673,0.161
			c-0.2,0.109-0.372,0.252-0.516,0.434c-0.145,0.18-0.255,0.387-0.33,0.617c-0.076,0.232-0.114,0.473-0.114,0.721
			c0,0.256,0.044,0.496,0.133,0.721c0.088,0.224,0.209,0.42,0.365,0.588s0.338,0.3,0.546,0.396
			C312.303,51.123,312.531,51.17,312.779,51.17z"/>
		<path fill="#D2D6D7" d="M319.847,52.455c-0.424,0-0.808-0.084-1.15-0.252c-0.346-0.168-0.644-0.398-0.896-0.691
			c-0.252-0.291-0.445-0.629-0.582-1.014c-0.137-0.384-0.204-0.791-0.204-1.224c0-0.456,0.072-0.881,0.217-1.272
			s0.344-0.735,0.6-1.031c0.257-0.297,0.563-0.527,0.925-0.695s0.756-0.253,1.188-0.253c0.486,0,0.916,0.11,1.282,0.33
			c0.368,0.222,0.673,0.515,0.912,0.883v-1.104h1.404v5.988c0,0.465-0.088,0.881-0.264,1.248c-0.178,0.367-0.418,0.68-0.728,0.936
			c-0.309,0.257-0.676,0.453-1.104,0.589c-0.43,0.137-0.896,0.204-1.398,0.204c-0.688,0-1.266-0.114-1.733-0.342
			c-0.469-0.229-0.869-0.551-1.205-0.967l0.875-0.853c0.239,0.296,0.543,0.528,0.905,0.696c0.364,0.168,0.75,0.252,1.158,0.252
			c0.248,0,0.486-0.034,0.714-0.103c0.229-0.067,0.432-0.174,0.606-0.317c0.176-0.145,0.313-0.328,0.414-0.553
			c0.1-0.225,0.148-0.488,0.148-0.791v-0.793c-0.208,0.359-0.5,0.639-0.876,0.834C320.681,52.356,320.279,52.455,319.847,52.455z
			 M320.387,51.17c0.177,0,0.345-0.027,0.504-0.084c0.16-0.056,0.31-0.131,0.444-0.228c0.136-0.097,0.256-0.208,0.36-0.337
			c0.104-0.127,0.184-0.264,0.238-0.407v-1.5c-0.144-0.368-0.369-0.663-0.678-0.889c-0.308-0.224-0.63-0.336-0.966-0.336
			c-0.248,0-0.473,0.055-0.672,0.161c-0.2,0.109-0.373,0.252-0.517,0.434c-0.145,0.18-0.255,0.387-0.329,0.617
			c-0.076,0.232-0.115,0.473-0.115,0.721c0,0.256,0.045,0.496,0.133,0.721c0.088,0.224,0.21,0.42,0.365,0.588s0.338,0.3,0.547,0.396
			C319.91,51.123,320.139,51.17,320.387,51.17z"/>
		<path fill="#D2D6D7" d="M327.91,52.539c-0.504,0-0.959-0.086-1.367-0.259c-0.408-0.172-0.756-0.405-1.045-0.702
			c-0.287-0.295-0.51-0.64-0.666-1.031c-0.155-0.393-0.233-0.805-0.233-1.236c0-0.447,0.076-0.869,0.229-1.266
			c0.151-0.396,0.373-0.744,0.66-1.045c0.289-0.299,0.639-0.537,1.051-0.713c0.412-0.177,0.873-0.266,1.386-0.266
			c0.512,0,0.97,0.089,1.374,0.266c0.404,0.176,0.748,0.412,1.031,0.707c0.285,0.297,0.5,0.641,0.647,1.032
			c0.148,0.392,0.224,0.8,0.224,1.224c0,0.104-0.002,0.205-0.006,0.301c-0.005,0.096-0.016,0.176-0.031,0.24h-4.859
			c0.023,0.248,0.084,0.467,0.181,0.66c0.096,0.19,0.221,0.354,0.371,0.491c0.151,0.136,0.324,0.239,0.518,0.312
			c0.191,0.072,0.392,0.108,0.6,0.108c0.32,0,0.622-0.077,0.906-0.233c0.283-0.156,0.479-0.362,0.582-0.619l1.38,0.385
			c-0.231,0.48-0.603,0.875-1.109,1.184C329.224,52.385,328.615,52.539,327.91,52.539z M329.543,48.746
			c-0.041-0.472-0.215-0.85-0.521-1.134c-0.308-0.284-0.684-0.427-1.122-0.427c-0.217,0-0.418,0.038-0.605,0.113
			c-0.188,0.076-0.354,0.184-0.498,0.318c-0.145,0.137-0.262,0.301-0.354,0.492c-0.094,0.191-0.146,0.402-0.162,0.637H329.543
			L329.543,48.746z"/>
		<path fill="#D2D6D7" d="M335.927,47.522c-0.487,0.009-0.925,0.103-1.308,0.282c-0.385,0.181-0.66,0.449-0.828,0.811v3.805h-1.608
			v-6.289h1.477v1.345c0.112-0.216,0.244-0.409,0.396-0.582c0.152-0.173,0.316-0.321,0.492-0.449s0.354-0.228,0.533-0.294
			c0.181-0.068,0.354-0.104,0.521-0.104c0.089,0,0.154,0,0.198,0s0.086,0.004,0.126,0.013L335.927,47.522L335.927,47.522z"/>
	</g>
	<g>
		<path fill="#D2D6D7" d="M36.22,35.168V28.58l-2.832,5.053h-0.612l-2.844-5.053v6.588h-1.08v-8.52h1.14l3.084,5.531l3.096-5.531
			H37.3v8.52H36.22z"/>
		<path fill="#D2D6D7" d="M41.836,35.289c-0.472,0-0.904-0.086-1.296-0.259c-0.392-0.172-0.728-0.405-1.008-0.702
			c-0.28-0.295-0.498-0.643-0.654-1.037c-0.156-0.396-0.234-0.814-0.234-1.254c0-0.441,0.078-0.856,0.234-1.248
			c0.156-0.393,0.376-0.736,0.66-1.033c0.284-0.295,0.622-0.528,1.014-0.701c0.392-0.172,0.824-0.258,1.296-0.258
			c0.472,0,0.902,0.088,1.29,0.264c0.388,0.177,0.718,0.41,0.99,0.701c0.272,0.293,0.482,0.633,0.63,1.021
			c0.148,0.389,0.222,0.791,0.222,1.206c0,0.089-0.002,0.169-0.006,0.239c-0.004,0.072-0.01,0.129-0.018,0.168H39.76
			c0.024,0.313,0.096,0.598,0.216,0.854s0.276,0.476,0.468,0.66c0.192,0.184,0.41,0.327,0.654,0.432
			c0.244,0.104,0.501,0.156,0.774,0.156c0.192,0,0.38-0.027,0.564-0.078c0.184-0.053,0.356-0.123,0.516-0.211
			c0.16-0.088,0.302-0.195,0.426-0.324c0.124-0.127,0.218-0.271,0.282-0.432l0.912,0.252c-0.104,0.232-0.246,0.444-0.426,0.637
			c-0.18,0.191-0.388,0.357-0.624,0.498s-0.498,0.25-0.786,0.33C42.448,35.25,42.148,35.289,41.836,35.289z M43.984,31.617
			c-0.024-0.297-0.098-0.57-0.222-0.822s-0.28-0.467-0.468-0.643s-0.406-0.314-0.654-0.414c-0.248-0.102-0.512-0.15-0.792-0.15
			c-0.28,0-0.544,0.051-0.792,0.15c-0.249,0.1-0.466,0.239-0.654,0.42c-0.188,0.18-0.34,0.395-0.456,0.643
			c-0.116,0.248-0.186,0.521-0.21,0.816H43.984z"/>
		<path fill="#D2D6D7" d="M51.592,35.168h-1.056v-3.504c0-0.672-0.102-1.16-0.306-1.463c-0.204-0.305-0.514-0.457-0.93-0.457
			c-0.216,0-0.432,0.043-0.648,0.127c-0.216,0.084-0.42,0.197-0.612,0.342s-0.36,0.315-0.504,0.516
			c-0.144,0.199-0.252,0.421-0.324,0.66v3.779h-1.056v-6.264h0.96v1.344c0.248-0.439,0.606-0.791,1.074-1.056
			c0.468-0.265,0.978-0.396,1.53-0.396c0.36,0,0.66,0.065,0.9,0.197c0.24,0.133,0.432,0.316,0.576,0.553
			c0.144,0.236,0.246,0.515,0.306,0.834c0.06,0.32,0.09,0.668,0.09,1.043V35.168z"/>
	</g>
	<g>
		<path fill="#D2D6D7" d="M104.805,26.696h1.02l1.128,2.964l1.14-2.964h1.02l-1.476,3.708l1.464,3.516l2.88-7.271h1.176
			l-3.564,8.521h-0.936l-1.692-4.021l-1.704,4.021h-0.936l-3.552-8.521h1.164l2.892,7.271l1.452-3.516L104.805,26.696z"/>
		<path fill="#D2D6D7" d="M116.025,35.289c-0.472,0-0.902-0.088-1.29-0.265c-0.388-0.177-0.72-0.412-0.996-0.708
			c-0.276-0.296-0.49-0.641-0.642-1.031c-0.152-0.393-0.228-0.806-0.228-1.236c0-0.439,0.078-0.855,0.234-1.248
			s0.372-0.735,0.648-1.032c0.276-0.296,0.608-0.531,0.996-0.708c0.388-0.176,0.814-0.264,1.278-0.264
			c0.464,0,0.892,0.088,1.284,0.264c0.392,0.177,0.726,0.412,1.002,0.708c0.276,0.297,0.492,0.642,0.648,1.032
			c0.156,0.393,0.234,0.809,0.234,1.248c0,0.432-0.076,0.845-0.228,1.236c-0.152,0.391-0.368,0.735-0.648,1.031
			c-0.28,0.296-0.614,0.531-1.002,0.708C116.927,35.201,116.497,35.289,116.025,35.289z M113.949,32.061
			c0,0.328,0.054,0.633,0.162,0.912c0.108,0.279,0.256,0.523,0.444,0.732c0.188,0.207,0.408,0.371,0.66,0.491
			s0.522,0.181,0.81,0.181s0.558-0.061,0.81-0.181s0.474-0.286,0.666-0.498s0.342-0.46,0.45-0.743
			c0.108-0.285,0.162-0.591,0.162-0.918c0-0.32-0.054-0.623-0.162-0.906c-0.108-0.285-0.258-0.532-0.45-0.744
			c-0.192-0.213-0.414-0.379-0.666-0.498c-0.252-0.12-0.522-0.18-0.81-0.18s-0.558,0.063-0.81,0.186
			c-0.252,0.125-0.472,0.293-0.66,0.505s-0.336,0.46-0.444,0.743C114.003,31.426,113.949,31.732,113.949,32.061z"/>
		<path fill="#D2D6D7" d="M129.921,35.168h-1.056v-3.504c0-0.656-0.106-1.14-0.318-1.451c-0.212-0.313-0.526-0.469-0.942-0.469
			c-0.432,0-0.818,0.154-1.158,0.463c-0.34,0.308-0.582,0.705-0.726,1.193v3.768h-1.056v-3.504c0-0.672-0.104-1.16-0.312-1.463
			c-0.208-0.305-0.52-0.457-0.936-0.457c-0.424,0-0.808,0.149-1.152,0.45c-0.344,0.3-0.588,0.697-0.732,1.192v3.781h-1.056v-6.265
			h0.96v1.345c0.256-0.465,0.588-0.822,0.996-1.074c0.408-0.252,0.868-0.379,1.38-0.379c0.528,0,0.946,0.144,1.254,0.426
			c0.308,0.285,0.498,0.65,0.57,1.1c0.56-1.018,1.356-1.523,2.388-1.523c0.36,0,0.662,0.065,0.906,0.197
			c0.244,0.133,0.438,0.316,0.582,0.553s0.248,0.515,0.312,0.834c0.064,0.32,0.096,0.668,0.096,1.043V35.168z"/>
		<path fill="#D2D6D7" d="M134.337,35.289c-0.472,0-0.904-0.086-1.296-0.259c-0.392-0.172-0.728-0.405-1.008-0.702
			c-0.28-0.295-0.498-0.643-0.654-1.037c-0.156-0.396-0.234-0.814-0.234-1.254c0-0.441,0.078-0.856,0.234-1.248
			c0.156-0.393,0.376-0.736,0.66-1.033c0.284-0.295,0.622-0.528,1.014-0.701c0.392-0.172,0.824-0.258,1.296-0.258
			c0.472,0,0.902,0.088,1.29,0.264c0.388,0.177,0.718,0.41,0.99,0.701c0.272,0.293,0.482,0.633,0.63,1.021
			c0.148,0.389,0.222,0.791,0.222,1.206c0,0.089-0.002,0.169-0.006,0.239c-0.004,0.072-0.01,0.129-0.018,0.168h-5.196
			c0.024,0.313,0.096,0.598,0.216,0.854s0.276,0.476,0.468,0.66c0.192,0.184,0.41,0.327,0.654,0.432
			c0.244,0.104,0.501,0.156,0.774,0.156c0.192,0,0.38-0.027,0.564-0.078c0.184-0.053,0.356-0.123,0.516-0.211
			s0.302-0.195,0.426-0.324c0.124-0.127,0.218-0.271,0.282-0.432l0.912,0.252c-0.104,0.232-0.246,0.444-0.426,0.637
			c-0.18,0.191-0.388,0.357-0.624,0.498c-0.236,0.141-0.498,0.25-0.786,0.33C134.949,35.25,134.649,35.289,134.337,35.289z
			 M136.485,31.617c-0.024-0.297-0.098-0.57-0.222-0.822s-0.28-0.467-0.468-0.643s-0.406-0.314-0.654-0.414
			c-0.248-0.102-0.512-0.15-0.792-0.15c-0.28,0-0.544,0.051-0.792,0.15c-0.249,0.1-0.466,0.239-0.654,0.42
			c-0.188,0.18-0.34,0.395-0.456,0.643c-0.116,0.248-0.186,0.521-0.21,0.816H136.485z"/>
		<path fill="#D2D6D7" d="M144.093,35.168h-1.056v-3.504c0-0.672-0.102-1.16-0.306-1.463c-0.204-0.305-0.514-0.457-0.93-0.457
			c-0.216,0-0.432,0.043-0.648,0.127c-0.216,0.084-0.42,0.197-0.612,0.342s-0.36,0.315-0.504,0.516
			c-0.144,0.199-0.252,0.421-0.324,0.66v3.779h-1.056v-6.264h0.96v1.344c0.248-0.439,0.606-0.791,1.074-1.056
			c0.468-0.265,0.978-0.396,1.53-0.396c0.36,0,0.66,0.065,0.9,0.197c0.24,0.133,0.432,0.316,0.576,0.553
			c0.144,0.236,0.246,0.515,0.306,0.834c0.06,0.32,0.09,0.668,0.09,1.043L144.093,35.168L144.093,35.168z"/>
	</g>
</g>
<g>
	<g>
		<text transform="matrix(1 0 0 1 203.499 -70.332)" fill="#D2D6D7" font-family="'Raleway-Bold'" font-size="12">Area</text>
		
			<text transform="matrix(1 0 0 1 203.499 -70.332)" fill="none" stroke="#192F38" stroke-width="2" font-family="'Raleway-Bold'" font-size="12">Area</text>
	</g>
	<g>
		<text transform="matrix(1 0 0 1 203.499 -70.332)" fill="#D2D6D7" font-family="'Raleway-Bold'" font-size="12">Area</text>
	</g>
	<text transform="matrix(1 0 0 1 247.249 -88.332)" fill="#D2D6D7" font-family="'Raleway-Medium'" font-size="12">Proportional to </text>
	<text transform="matrix(1 0 0 1 247.249 -73.9316)" fill="#D2D6D7" font-family="'Raleway-Medium'" font-size="12">record&apos;s average speed</text>
	<text transform="matrix(1 0 0 1 247.249 -53.082)" fill="#D2D6D7" font-family="'Raleway-Bold'" font-size="12">Faster</text>
	<text transform="matrix(1 0 0 1 283.4297 -53.082)" fill="#D2D6D7" font-family="'Raleway-Medium'" font-size="12"> </text>
	<text transform="matrix(1 0 0 1 286.4648 -53.082)" fill="#D2D6D7" font-family="'ITCZapfDingbatsMedium'" font-size="12"></text>
	<text transform="matrix(1 0 0 1 296.5195 -53.082)" fill="#D2D6D7" font-family="'Raleway-Medium'" font-size="12"> </text>
	<text transform="matrix(1 0 0 1 299.5547 -53.082)" fill="#D2D6D7" font-family="'Raleway-Bold'" font-size="12">bigger</text>
	<text transform="matrix(1 0 0 1 27.832 -70.332)" fill="#D2D6D7" font-family="'Raleway-Medium'" font-size="12">Men</text>
	<text transform="matrix(1 0 0 1 100.665 -70.332)" fill="#D2D6D7" font-family="'Raleway-Medium'" font-size="12">Women</text>
</g>
<circle fill="none" stroke="#D2D6D7" cx="216.537" cy="49.39" r="7"/>
<line fill="none" stroke="#0EA3BA" stroke-width="2" x1="2.832" y1="30.168" x2="22.832" y2="30.168"/>
<line fill="none" stroke="#8B4F9F" stroke-width="2" x1="75.331" y1="30.168" x2="95.331" y2="30.168"/>
</svg>
