<?xml version="1.0" encoding="utf-8"?>
<!-- Generator: Adobe Illustrator 15.0.0, SVG Export Plug-In . SVG Version: 6.00 Build 0)  -->
<!DOCTYPE svg PUBLIC "-//W3C//DTD SVG 1.1//EN" "http://www.w3.org/Graphics/SVG/1.1/DTD/svg11.dtd">
<svg version="1.1" id="Capa_1" xmlns="http://www.w3.org/2000/svg" xmlns:xlink="http://www.w3.org/1999/xlink" x="0px" y="0px"
	 width="398px" height="104px" viewBox="0 9.668 398 104" enable-background="new 0 9.668 398 104" xml:space="preserve">
<g>
	<g enable-background="new    ">
		<path fill="#D2D6D7" d="M20.588,35.289v-6.588l-2.832,5.052h-0.612L14.3,28.701v6.588h-1.08v-8.52h1.14l3.084,5.531l3.096-5.531
			h1.128v8.52H20.588z"/>
		<path fill="#D2D6D7" d="M26.204,35.409c-0.472,0-0.904-0.086-1.296-0.258c-0.392-0.172-0.728-0.406-1.008-0.702
			c-0.28-0.296-0.498-0.643-0.654-1.038c-0.156-0.396-0.234-0.814-0.234-1.254c0-0.44,0.078-0.856,0.234-1.248
			c0.156-0.392,0.376-0.736,0.66-1.032c0.284-0.296,0.622-0.529,1.014-0.702c0.392-0.172,0.824-0.258,1.296-0.258
			c0.472,0,0.902,0.088,1.29,0.264c0.388,0.177,0.718,0.41,0.99,0.702s0.482,0.632,0.63,1.021c0.148,0.388,0.222,0.79,0.222,1.206
			c0,0.088-0.002,0.168-0.006,0.239c-0.004,0.072-0.01,0.129-0.018,0.168h-5.196c0.024,0.313,0.096,0.597,0.216,0.853
			c0.12,0.256,0.276,0.476,0.468,0.66c0.192,0.184,0.41,0.328,0.654,0.432c0.244,0.104,0.501,0.156,0.774,0.156
			c0.192,0,0.38-0.026,0.564-0.078c0.184-0.052,0.356-0.122,0.516-0.21c0.16-0.088,0.302-0.196,0.426-0.324s0.218-0.271,0.282-0.432
			l0.912,0.252c-0.104,0.232-0.246,0.444-0.426,0.636c-0.18,0.192-0.388,0.358-0.624,0.498c-0.236,0.141-0.498,0.25-0.786,0.33
			S26.516,35.409,26.204,35.409z M28.352,31.737c-0.024-0.296-0.098-0.57-0.222-0.822s-0.28-0.466-0.468-0.642
			s-0.406-0.314-0.654-0.414c-0.248-0.101-0.512-0.15-0.792-0.15c-0.28,0-0.544,0.05-0.792,0.15c-0.249,0.1-0.466,0.239-0.654,0.42
			c-0.188,0.18-0.34,0.394-0.456,0.642c-0.116,0.248-0.186,0.521-0.21,0.816H28.352z"/>
		<path fill="#D2D6D7" d="M35.96,35.289h-1.056v-3.504c0-0.672-0.102-1.16-0.306-1.464c-0.204-0.304-0.514-0.456-0.93-0.456
			c-0.216,0-0.432,0.042-0.648,0.126c-0.216,0.084-0.42,0.198-0.612,0.342c-0.192,0.145-0.36,0.316-0.504,0.516
			c-0.144,0.2-0.252,0.421-0.324,0.66v3.78h-1.056v-6.264h0.96v1.344c0.248-0.44,0.606-0.792,1.074-1.056
			c0.468-0.265,0.978-0.396,1.53-0.396c0.36,0,0.66,0.066,0.9,0.198c0.24,0.132,0.432,0.316,0.576,0.552
			c0.144,0.236,0.246,0.515,0.306,0.834c0.06,0.32,0.09,0.668,0.09,1.044V35.289z"/>
	</g>
</g>
<circle fill="#0EA3BA" cx="5.266" cy="31.51" r="2.434"/>
<g enable-background="new    ">
	<path fill="#D2D6D7" d="M64.246,26.817h1.02l1.128,2.964l1.14-2.964h1.02l-1.476,3.708l1.464,3.516l2.88-7.271h1.176l-3.564,8.52
		h-0.936l-1.692-4.02l-1.704,4.02h-0.936l-3.552-8.52h1.164l2.892,7.271l1.452-3.516L64.246,26.817z"/>
	<path fill="#D2D6D7" d="M75.466,35.409c-0.472,0-0.902-0.088-1.29-0.264c-0.388-0.177-0.72-0.412-0.996-0.708
		c-0.276-0.296-0.49-0.641-0.642-1.032c-0.152-0.392-0.228-0.805-0.228-1.236c0-0.439,0.078-0.855,0.234-1.248
		c0.156-0.392,0.372-0.735,0.648-1.032c0.276-0.296,0.608-0.531,0.996-0.708c0.388-0.176,0.814-0.264,1.278-0.264
		s0.892,0.088,1.284,0.264c0.392,0.177,0.726,0.412,1.002,0.708c0.276,0.297,0.492,0.641,0.648,1.032
		c0.156,0.393,0.234,0.809,0.234,1.248c0,0.432-0.076,0.845-0.228,1.236s-0.368,0.736-0.648,1.032
		c-0.28,0.296-0.614,0.531-1.002,0.708C76.368,35.321,75.938,35.409,75.466,35.409z M73.39,32.181c0,0.328,0.054,0.633,0.162,0.912
		c0.108,0.28,0.256,0.524,0.444,0.732c0.188,0.208,0.408,0.372,0.66,0.492s0.522,0.18,0.81,0.18s0.558-0.06,0.81-0.18
		s0.474-0.286,0.666-0.498s0.342-0.46,0.45-0.744c0.108-0.284,0.162-0.59,0.162-0.918c0-0.32-0.054-0.622-0.162-0.906
		c-0.108-0.284-0.258-0.532-0.45-0.744s-0.414-0.378-0.666-0.498s-0.522-0.18-0.81-0.18s-0.558,0.063-0.81,0.186
		c-0.252,0.125-0.472,0.293-0.66,0.505c-0.188,0.212-0.336,0.46-0.444,0.743C73.444,31.547,73.39,31.854,73.39,32.181z"/>
	<path fill="#D2D6D7" d="M89.362,35.289h-1.056v-3.504c0-0.656-0.106-1.14-0.318-1.452c-0.212-0.312-0.526-0.468-0.942-0.468
		c-0.432,0-0.818,0.154-1.158,0.462c-0.34,0.308-0.582,0.706-0.726,1.194v3.768h-1.056v-3.504c0-0.672-0.104-1.16-0.312-1.464
		s-0.52-0.456-0.936-0.456c-0.424,0-0.808,0.149-1.152,0.45c-0.344,0.3-0.588,0.697-0.732,1.193v3.78h-1.056v-6.264h0.96v1.344
		c0.256-0.464,0.588-0.822,0.996-1.074c0.408-0.252,0.868-0.378,1.38-0.378c0.528,0,0.946,0.143,1.254,0.426
		c0.308,0.284,0.498,0.65,0.57,1.099c0.56-1.017,1.356-1.524,2.388-1.524c0.36,0,0.662,0.066,0.906,0.198
		c0.244,0.132,0.438,0.316,0.582,0.552c0.144,0.236,0.248,0.515,0.312,0.834c0.064,0.32,0.096,0.668,0.096,1.044V35.289z"/>
	<path fill="#D2D6D7" d="M93.778,35.409c-0.472,0-0.904-0.086-1.296-0.258c-0.392-0.172-0.728-0.406-1.008-0.702
		c-0.28-0.296-0.498-0.643-0.654-1.038c-0.156-0.396-0.234-0.814-0.234-1.254c0-0.44,0.078-0.856,0.234-1.248
		c0.156-0.392,0.376-0.736,0.66-1.032c0.284-0.296,0.622-0.529,1.014-0.702c0.392-0.172,0.824-0.258,1.296-0.258
		c0.472,0,0.902,0.088,1.29,0.264c0.388,0.177,0.718,0.41,0.99,0.702s0.482,0.632,0.63,1.021c0.148,0.388,0.222,0.79,0.222,1.206
		c0,0.088-0.002,0.168-0.006,0.239c-0.004,0.072-0.01,0.129-0.018,0.168h-5.196c0.024,0.313,0.096,0.597,0.216,0.853
		c0.12,0.256,0.276,0.476,0.468,0.66c0.192,0.184,0.41,0.328,0.654,0.432c0.244,0.104,0.501,0.156,0.774,0.156
		c0.192,0,0.38-0.026,0.564-0.078c0.184-0.052,0.356-0.122,0.516-0.21c0.16-0.088,0.302-0.196,0.426-0.324s0.218-0.271,0.282-0.432
		l0.912,0.252c-0.104,0.232-0.246,0.444-0.426,0.636c-0.18,0.192-0.388,0.358-0.624,0.498c-0.236,0.141-0.498,0.25-0.786,0.33
		S94.09,35.409,93.778,35.409z M95.926,31.737c-0.024-0.296-0.098-0.57-0.222-0.822s-0.28-0.466-0.468-0.642
		s-0.406-0.314-0.654-0.414c-0.248-0.101-0.512-0.15-0.792-0.15c-0.28,0-0.544,0.05-0.792,0.15c-0.249,0.1-0.466,0.239-0.654,0.42
		c-0.188,0.18-0.34,0.394-0.456,0.642c-0.116,0.248-0.186,0.521-0.21,0.816H95.926z"/>
	<path fill="#D2D6D7" d="M103.534,35.289h-1.056v-3.504c0-0.672-0.102-1.16-0.306-1.464c-0.204-0.304-0.514-0.456-0.93-0.456
		c-0.216,0-0.432,0.042-0.648,0.126c-0.216,0.084-0.42,0.198-0.612,0.342c-0.192,0.145-0.36,0.316-0.504,0.516
		c-0.144,0.2-0.252,0.421-0.324,0.66v3.78h-1.056v-6.264h0.96v1.344c0.248-0.44,0.606-0.792,1.074-1.056
		c0.468-0.265,0.978-0.396,1.53-0.396c0.36,0,0.66,0.066,0.9,0.198c0.24,0.132,0.432,0.316,0.576,0.552
		c0.144,0.236,0.246,0.515,0.306,0.834c0.06,0.32,0.09,0.668,0.09,1.044V35.289z"/>
</g>
<circle fill="#8B4F9F" cx="53.172" cy="31.51" r="2.434"/>
<g>
	<path fill="#0EA3BA" d="M284.7,70.164v-5.641l-2.196,4.199h-0.899l-2.196-4.199v5.641h-1.656v-8.52h1.776l2.521,4.848l2.543-4.848
		h1.765v8.52H284.7z"/>
	<path fill="#0EA3BA" d="M290.809,70.283c-0.504,0-0.961-0.086-1.369-0.258c-0.407-0.172-0.756-0.406-1.043-0.701
		c-0.288-0.297-0.51-0.641-0.666-1.033c-0.156-0.391-0.234-0.803-0.234-1.236c0-0.447,0.076-0.869,0.229-1.266
		c0.151-0.395,0.371-0.744,0.66-1.043c0.287-0.301,0.637-0.539,1.049-0.715s0.875-0.264,1.387-0.264s0.97,0.088,1.374,0.264
		c0.403,0.176,0.747,0.412,1.032,0.709c0.283,0.295,0.5,0.639,0.647,1.031s0.222,0.801,0.222,1.225c0,0.104-0.002,0.203-0.006,0.299
		s-0.014,0.176-0.029,0.24h-4.86c0.024,0.248,0.084,0.469,0.181,0.66c0.096,0.191,0.219,0.355,0.371,0.492s0.324,0.24,0.516,0.313
		c0.192,0.072,0.393,0.107,0.601,0.107c0.319,0,0.622-0.078,0.905-0.234c0.285-0.156,0.479-0.361,0.582-0.617l1.381,0.383
		c-0.232,0.48-0.602,0.875-1.11,1.184C292.118,70.129,291.512,70.283,290.809,70.283z M292.439,66.492
		c-0.039-0.473-0.213-0.85-0.521-1.135c-0.309-0.283-0.682-0.426-1.121-0.426c-0.217,0-0.419,0.037-0.607,0.113
		c-0.188,0.076-0.354,0.184-0.497,0.318c-0.144,0.137-0.263,0.301-0.354,0.492s-0.146,0.404-0.162,0.637H292.439z"/>
	<path fill="#0EA3BA" d="M300.924,70.164h-1.607v-3.529c0-0.504-0.088-0.871-0.264-1.104c-0.177-0.232-0.42-0.348-0.732-0.348
		c-0.16,0-0.324,0.031-0.492,0.096s-0.326,0.154-0.475,0.27c-0.147,0.117-0.281,0.254-0.401,0.414s-0.208,0.336-0.265,0.529v3.672
		h-1.607v-6.289h1.452v1.164c0.231-0.4,0.567-0.711,1.008-0.936s0.937-0.336,1.488-0.336c0.392,0,0.712,0.072,0.96,0.217
		c0.248,0.143,0.439,0.332,0.576,0.563c0.136,0.232,0.229,0.496,0.281,0.793c0.053,0.295,0.078,0.596,0.078,0.9V70.164z"/>
	<path fill="#0EA3BA" d="M302.305,64.416l0.264-1.465h-0.48v-1.619h1.621v1.643l-0.433,1.441H302.305z"/>
	<path fill="#0EA3BA" d="M307.272,70.283c-0.528,0-1.044-0.084-1.548-0.252s-0.936-0.408-1.296-0.719l0.6-1.01
		c0.384,0.273,0.759,0.479,1.122,0.619c0.364,0.141,0.727,0.209,1.086,0.209c0.32,0,0.572-0.059,0.756-0.18
		c0.184-0.119,0.276-0.291,0.276-0.516s-0.108-0.389-0.324-0.492s-0.567-0.225-1.056-0.359c-0.408-0.113-0.756-0.221-1.044-0.324
		s-0.521-0.223-0.696-0.354c-0.176-0.133-0.305-0.285-0.384-0.457c-0.08-0.172-0.12-0.377-0.12-0.617
		c0-0.32,0.063-0.607,0.186-0.865c0.125-0.256,0.299-0.473,0.522-0.652c0.224-0.182,0.485-0.318,0.786-0.414
		c0.3-0.098,0.626-0.145,0.979-0.145c0.471,0,0.913,0.068,1.325,0.203c0.412,0.137,0.79,0.357,1.134,0.66l-0.647,0.973
		c-0.32-0.24-0.63-0.416-0.931-0.527c-0.299-0.113-0.598-0.168-0.894-0.168c-0.272,0-0.5,0.055-0.685,0.168
		c-0.184,0.111-0.275,0.291-0.275,0.539c0,0.111,0.021,0.203,0.066,0.275c0.043,0.072,0.113,0.137,0.209,0.193
		c0.097,0.055,0.223,0.109,0.379,0.162c0.156,0.051,0.35,0.105,0.582,0.162c0.432,0.111,0.802,0.223,1.109,0.336
		c0.309,0.111,0.561,0.238,0.756,0.383c0.196,0.145,0.34,0.311,0.433,0.498c0.092,0.188,0.138,0.414,0.138,0.678
		c0,0.617-0.229,1.104-0.684,1.459C308.677,70.105,308.057,70.283,307.272,70.283z"/>
	<path fill="#0EA3BA" d="M317.508,69.84c-0.215,0.096-0.479,0.191-0.791,0.287c-0.313,0.096-0.641,0.145-0.984,0.145
		c-0.225,0-0.434-0.027-0.63-0.084s-0.368-0.146-0.517-0.27c-0.148-0.125-0.266-0.285-0.354-0.48s-0.133-0.434-0.133-0.715v-3.611
		h-0.827v-1.236h0.827v-2.039h1.609v2.039h1.319v1.236h-1.319v3.072c0,0.225,0.057,0.383,0.174,0.475
		c0.115,0.092,0.258,0.137,0.426,0.137s0.332-0.027,0.492-0.084c0.16-0.055,0.287-0.104,0.383-0.143L317.508,69.84z"/>
	<path fill="#0EA3BA" d="M318.348,63v-1.596h1.608V63H318.348z M318.348,70.164v-6.289h1.608v6.289H318.348z"/>
	<path fill="#0EA3BA" d="M331.176,70.164h-1.607v-3.529c0-0.504-0.086-0.871-0.259-1.104c-0.172-0.232-0.409-0.348-0.714-0.348
		c-0.32,0-0.62,0.121-0.9,0.365c-0.279,0.244-0.479,0.563-0.6,0.955v3.66h-1.607v-3.529c0-0.504-0.086-0.871-0.258-1.104
		c-0.173-0.232-0.41-0.348-0.715-0.348c-0.313,0-0.609,0.119-0.895,0.359c-0.283,0.24-0.485,0.557-0.605,0.949v3.672h-1.607v-6.289
		h1.451v1.164c0.232-0.408,0.551-0.721,0.955-0.941c0.403-0.221,0.865-0.33,1.385-0.33c0.528,0,0.937,0.129,1.225,0.385
		s0.472,0.572,0.552,0.947c0.257-0.432,0.58-0.762,0.972-0.99c0.393-0.229,0.84-0.342,1.345-0.342c0.384,0,0.7,0.072,0.948,0.217
		c0.248,0.143,0.439,0.332,0.576,0.563c0.135,0.232,0.229,0.496,0.281,0.793c0.053,0.295,0.078,0.596,0.078,0.9V70.164z"/>
	<path fill="#0EA3BA" d="M335.496,70.283c-0.504,0-0.961-0.086-1.369-0.258c-0.407-0.172-0.756-0.406-1.043-0.701
		c-0.288-0.297-0.51-0.641-0.666-1.033c-0.156-0.391-0.234-0.803-0.234-1.236c0-0.447,0.076-0.869,0.229-1.266
		c0.151-0.395,0.371-0.744,0.66-1.043c0.287-0.301,0.637-0.539,1.049-0.715s0.875-0.264,1.387-0.264s0.97,0.088,1.374,0.264
		c0.403,0.176,0.747,0.412,1.032,0.709c0.283,0.295,0.5,0.639,0.647,1.031s0.222,0.801,0.222,1.225c0,0.104-0.002,0.203-0.006,0.299
		s-0.014,0.176-0.029,0.24h-4.86c0.024,0.248,0.084,0.469,0.181,0.66c0.096,0.191,0.219,0.355,0.371,0.492s0.324,0.24,0.516,0.313
		c0.192,0.072,0.393,0.107,0.601,0.107c0.319,0,0.622-0.078,0.905-0.234c0.285-0.156,0.479-0.361,0.582-0.617l1.381,0.383
		c-0.232,0.48-0.602,0.875-1.11,1.184C336.806,70.129,336.199,70.283,335.496,70.283z M337.127,66.492
		c-0.039-0.473-0.213-0.85-0.521-1.135c-0.309-0.283-0.682-0.426-1.121-0.426c-0.217,0-0.419,0.037-0.607,0.113
		c-0.188,0.076-0.354,0.184-0.497,0.318c-0.144,0.137-0.263,0.301-0.354,0.492s-0.146,0.404-0.162,0.637H337.127z"/>
	<path fill="#0EA3BA" d="M342.145,70.283c-0.528,0-1.045-0.084-1.549-0.252s-0.936-0.408-1.295-0.719l0.6-1.01
		c0.384,0.273,0.758,0.479,1.121,0.619c0.365,0.141,0.727,0.209,1.086,0.209c0.32,0,0.572-0.059,0.757-0.18
		c0.184-0.119,0.276-0.291,0.276-0.516s-0.108-0.389-0.324-0.492c-0.217-0.104-0.568-0.225-1.057-0.359
		c-0.408-0.113-0.756-0.221-1.043-0.324c-0.289-0.104-0.521-0.223-0.697-0.354c-0.176-0.133-0.304-0.285-0.383-0.457
		c-0.08-0.172-0.121-0.377-0.121-0.617c0-0.32,0.063-0.607,0.187-0.865c0.124-0.256,0.298-0.473,0.522-0.652
		c0.224-0.182,0.485-0.318,0.785-0.414c0.301-0.098,0.627-0.145,0.979-0.145c0.472,0,0.914,0.068,1.326,0.203
		c0.412,0.137,0.789,0.357,1.134,0.66l-0.647,0.973c-0.32-0.24-0.631-0.416-0.931-0.527c-0.3-0.113-0.599-0.168-0.894-0.168
		c-0.272,0-0.5,0.055-0.685,0.168c-0.185,0.111-0.276,0.291-0.276,0.539c0,0.111,0.022,0.203,0.066,0.275s0.114,0.137,0.21,0.193
		c0.097,0.055,0.222,0.109,0.378,0.162c0.156,0.051,0.35,0.105,0.582,0.162c0.432,0.111,0.803,0.223,1.11,0.336
		c0.308,0.111,0.56,0.238,0.756,0.383s0.34,0.311,0.433,0.498c0.092,0.188,0.137,0.414,0.137,0.678c0,0.617-0.228,1.104-0.684,1.459
		C343.549,70.105,342.928,70.283,342.145,70.283z"/>
</g>
<g>
	<path fill="#8B4F9F" d="M280.693,87.25h1.523l0.96,2.82l0.96-2.82h1.536l-1.452,3.877l1.08,2.723l2.412-6.623h1.8l-3.468,8.52
		h-1.393l-1.476-3.576l-1.476,3.576h-1.393l-3.443-8.52h1.775l2.424,6.623l1.057-2.723L280.693,87.25z"/>
	<path fill="#8B4F9F" d="M292.369,95.867c-0.512,0-0.973-0.088-1.381-0.264c-0.407-0.178-0.754-0.414-1.037-0.715
		c-0.284-0.301-0.502-0.646-0.654-1.039c-0.152-0.391-0.229-0.803-0.229-1.234c0-0.441,0.076-0.857,0.229-1.248
		c0.152-0.393,0.37-0.738,0.654-1.039c0.283-0.299,0.63-0.537,1.037-0.713c0.408-0.176,0.869-0.266,1.381-0.266
		s0.97,0.09,1.373,0.266c0.404,0.176,0.748,0.414,1.033,0.713c0.283,0.301,0.502,0.646,0.653,1.039
		c0.151,0.391,0.228,0.807,0.228,1.248c0,0.432-0.076,0.844-0.228,1.234c-0.151,0.393-0.368,0.738-0.647,1.039
		c-0.28,0.301-0.625,0.537-1.032,0.715C293.341,95.779,292.881,95.867,292.369,95.867z M290.725,92.615
		c0,0.279,0.043,0.533,0.127,0.762s0.199,0.426,0.348,0.594c0.147,0.168,0.322,0.299,0.521,0.391c0.2,0.092,0.416,0.137,0.648,0.137
		s0.447-0.045,0.648-0.137c0.199-0.092,0.373-0.223,0.521-0.391s0.264-0.367,0.348-0.6s0.126-0.488,0.126-0.768
		c0-0.273-0.042-0.525-0.126-0.758c-0.084-0.23-0.199-0.432-0.348-0.6s-0.322-0.297-0.521-0.389
		c-0.201-0.092-0.416-0.139-0.648-0.139s-0.448,0.047-0.648,0.145c-0.199,0.096-0.374,0.227-0.521,0.395
		c-0.148,0.168-0.264,0.369-0.348,0.602C290.768,92.09,290.725,92.342,290.725,92.615z"/>
	<path fill="#8B4F9F" d="M306.504,95.746h-1.607v-3.527c0-0.504-0.086-0.871-0.258-1.104s-0.41-0.35-0.715-0.35
		c-0.319,0-0.619,0.123-0.899,0.367s-0.479,0.563-0.601,0.953v3.66h-1.607v-3.527c0-0.504-0.086-0.871-0.258-1.104
		s-0.41-0.35-0.715-0.35c-0.312,0-0.609,0.121-0.894,0.361s-0.485,0.557-0.606,0.947v3.672h-1.607v-6.287h1.452v1.164
		c0.231-0.408,0.55-0.723,0.954-0.943c0.404-0.219,0.865-0.33,1.386-0.33c0.528,0,0.937,0.129,1.224,0.385
		c0.289,0.256,0.473,0.572,0.553,0.947c0.256-0.432,0.58-0.762,0.972-0.988c0.392-0.229,0.84-0.344,1.345-0.344
		c0.383,0,0.699,0.072,0.947,0.217s0.439,0.332,0.576,0.564c0.136,0.232,0.23,0.496,0.281,0.791c0.053,0.297,0.078,0.598,0.078,0.9
		V95.746z"/>
	<path fill="#8B4F9F" d="M310.824,95.867c-0.504,0-0.959-0.086-1.367-0.258s-0.756-0.406-1.045-0.703
		c-0.287-0.295-0.51-0.639-0.666-1.031c-0.155-0.393-0.233-0.805-0.233-1.236c0-0.447,0.076-0.869,0.228-1.266
		c0.152-0.396,0.373-0.744,0.66-1.045c0.289-0.299,0.639-0.537,1.051-0.713s0.873-0.266,1.386-0.266c0.512,0,0.97,0.09,1.374,0.266
		s0.748,0.412,1.031,0.707c0.285,0.297,0.5,0.641,0.648,1.033c0.148,0.391,0.223,0.799,0.223,1.223c0,0.105-0.002,0.205-0.006,0.301
		c-0.005,0.096-0.015,0.176-0.031,0.24h-4.859c0.023,0.248,0.084,0.467,0.18,0.66c0.096,0.191,0.221,0.355,0.372,0.492
		c0.151,0.135,0.324,0.238,0.517,0.311c0.191,0.072,0.392,0.109,0.6,0.109c0.32,0,0.622-0.078,0.906-0.234
		c0.283-0.156,0.478-0.363,0.582-0.619l1.38,0.385c-0.232,0.48-0.603,0.875-1.11,1.182
		C312.135,95.713,311.529,95.867,310.824,95.867z M312.457,92.074c-0.041-0.471-0.215-0.85-0.522-1.133
		c-0.308-0.285-0.683-0.428-1.122-0.428c-0.216,0-0.418,0.039-0.605,0.115c-0.188,0.076-0.354,0.182-0.498,0.318
		c-0.145,0.135-0.262,0.299-0.354,0.492c-0.093,0.191-0.146,0.402-0.162,0.635H312.457z"/>
	<path fill="#8B4F9F" d="M320.941,95.746h-1.609v-3.527c0-0.504-0.088-0.871-0.264-1.104s-0.42-0.35-0.731-0.35
		c-0.16,0-0.324,0.033-0.492,0.098c-0.168,0.063-0.326,0.154-0.474,0.27c-0.148,0.115-0.282,0.254-0.402,0.414
		s-0.208,0.336-0.264,0.527v3.672h-1.608v-6.287h1.452v1.164c0.232-0.4,0.568-0.713,1.008-0.936
		c0.439-0.225,0.936-0.338,1.488-0.338c0.392,0,0.712,0.072,0.96,0.217c0.247,0.145,0.44,0.332,0.575,0.564
		c0.137,0.232,0.23,0.496,0.283,0.791c0.051,0.297,0.078,0.598,0.078,0.9V95.746z"/>
	<path fill="#8B4F9F" d="M322.32,89.998l0.264-1.463h-0.479v-1.621h1.62v1.645l-0.432,1.439H322.32z"/>
	<path fill="#8B4F9F" d="M327.289,95.867c-0.528,0-1.045-0.084-1.549-0.252s-0.936-0.408-1.295-0.721l0.6-1.008
		c0.384,0.271,0.758,0.479,1.121,0.617c0.365,0.141,0.727,0.211,1.086,0.211c0.32,0,0.572-0.061,0.757-0.18
		c0.184-0.121,0.276-0.293,0.276-0.516c0-0.225-0.108-0.389-0.324-0.492c-0.217-0.105-0.568-0.225-1.057-0.361
		c-0.408-0.111-0.756-0.219-1.043-0.324c-0.289-0.104-0.521-0.221-0.697-0.354c-0.176-0.131-0.304-0.283-0.383-0.455
		c-0.08-0.172-0.121-0.379-0.121-0.619c0-0.32,0.063-0.607,0.187-0.863s0.298-0.475,0.522-0.654c0.224-0.18,0.485-0.318,0.785-0.414
		c0.301-0.096,0.627-0.145,0.979-0.145c0.472,0,0.914,0.068,1.326,0.205c0.412,0.135,0.789,0.355,1.134,0.66l-0.647,0.971
		c-0.32-0.238-0.631-0.416-0.931-0.527s-0.599-0.168-0.894-0.168c-0.272,0-0.5,0.057-0.685,0.168s-0.276,0.293-0.276,0.541
		c0,0.111,0.022,0.203,0.066,0.275s0.114,0.137,0.21,0.191c0.097,0.057,0.222,0.109,0.378,0.162s0.35,0.105,0.582,0.162
		c0.432,0.111,0.803,0.225,1.11,0.336s0.56,0.24,0.756,0.385c0.196,0.143,0.34,0.309,0.433,0.498
		c0.092,0.188,0.137,0.414,0.137,0.678c0,0.615-0.228,1.102-0.684,1.457C328.693,95.689,328.072,95.867,327.289,95.867z"/>
	<path fill="#8B4F9F" d="M337.524,95.422c-0.216,0.098-0.479,0.193-0.792,0.289s-0.641,0.145-0.984,0.145
		c-0.224,0-0.434-0.029-0.629-0.084c-0.197-0.057-0.369-0.146-0.517-0.271c-0.148-0.123-0.267-0.283-0.354-0.479
		c-0.088-0.197-0.132-0.436-0.132-0.715v-3.611h-0.827v-1.236h0.827v-2.041h1.608v2.041h1.32v1.236h-1.32v3.07
		c0,0.225,0.058,0.383,0.174,0.475c0.115,0.092,0.258,0.139,0.426,0.139s0.332-0.027,0.492-0.084s0.288-0.104,0.384-0.145
		L337.524,95.422z"/>
	<path fill="#8B4F9F" d="M338.364,88.582v-1.596h1.608v1.596H338.364z M338.364,95.746v-6.287h1.608v6.287H338.364z"/>
	<path fill="#8B4F9F" d="M351.192,95.746h-1.608v-3.527c0-0.504-0.086-0.871-0.258-1.104s-0.41-0.35-0.714-0.35
		c-0.319,0-0.62,0.123-0.899,0.367c-0.281,0.244-0.48,0.563-0.601,0.953v3.66h-1.608v-3.527c0-0.504-0.086-0.871-0.258-1.104
		s-0.41-0.35-0.714-0.35c-0.312,0-0.61,0.121-0.894,0.361c-0.284,0.24-0.486,0.557-0.606,0.947v3.672h-1.608v-6.287h1.453v1.164
		c0.231-0.408,0.549-0.723,0.953-0.943c0.404-0.219,0.866-0.33,1.387-0.33c0.527,0,0.936,0.129,1.224,0.385s0.472,0.572,0.552,0.947
		c0.256-0.432,0.58-0.762,0.973-0.988c0.392-0.229,0.84-0.344,1.344-0.344c0.384,0,0.699,0.072,0.947,0.217s0.44,0.332,0.576,0.564
		c0.137,0.232,0.23,0.496,0.282,0.791c0.052,0.297,0.078,0.598,0.078,0.9V95.746z"/>
	<path fill="#8B4F9F" d="M355.512,95.867c-0.504,0-0.959-0.086-1.367-0.258s-0.756-0.406-1.045-0.703
		c-0.287-0.295-0.51-0.639-0.666-1.031c-0.155-0.393-0.233-0.805-0.233-1.236c0-0.447,0.076-0.869,0.228-1.266
		c0.152-0.396,0.373-0.744,0.66-1.045c0.289-0.299,0.639-0.537,1.051-0.713s0.873-0.266,1.386-0.266c0.512,0,0.97,0.09,1.374,0.266
		s0.748,0.412,1.031,0.707c0.285,0.297,0.5,0.641,0.648,1.033c0.148,0.391,0.223,0.799,0.223,1.223c0,0.105-0.002,0.205-0.006,0.301
		c-0.005,0.096-0.015,0.176-0.031,0.24h-4.859c0.023,0.248,0.084,0.467,0.18,0.66c0.096,0.191,0.221,0.355,0.372,0.492
		c0.151,0.135,0.324,0.238,0.517,0.311c0.191,0.072,0.392,0.109,0.6,0.109c0.32,0,0.622-0.078,0.906-0.234
		c0.283-0.156,0.478-0.363,0.582-0.619l1.38,0.385c-0.232,0.48-0.603,0.875-1.11,1.182
		C356.822,95.713,356.217,95.867,355.512,95.867z M357.145,92.074c-0.041-0.471-0.215-0.85-0.522-1.133
		c-0.308-0.285-0.683-0.428-1.122-0.428c-0.216,0-0.418,0.039-0.605,0.115c-0.188,0.076-0.354,0.182-0.498,0.318
		c-0.145,0.135-0.262,0.299-0.354,0.492c-0.093,0.191-0.146,0.402-0.162,0.635H357.145z"/>
	<path fill="#8B4F9F" d="M362.16,95.867c-0.527,0-1.044-0.084-1.548-0.252s-0.937-0.408-1.296-0.721l0.6-1.008
		c0.385,0.271,0.758,0.479,1.122,0.617c0.364,0.141,0.726,0.211,1.086,0.211c0.32,0,0.572-0.061,0.757-0.18
		c0.184-0.121,0.275-0.293,0.275-0.516c0-0.225-0.107-0.389-0.324-0.492c-0.216-0.105-0.568-0.225-1.056-0.361
		c-0.408-0.111-0.757-0.219-1.044-0.324c-0.288-0.104-0.521-0.221-0.696-0.354c-0.176-0.131-0.304-0.283-0.384-0.455
		s-0.12-0.379-0.12-0.619c0-0.32,0.062-0.607,0.187-0.863c0.123-0.256,0.297-0.475,0.521-0.654s0.486-0.318,0.786-0.414
		s0.626-0.145,0.978-0.145c0.473,0,0.914,0.068,1.326,0.205c0.412,0.135,0.79,0.355,1.135,0.66l-0.648,0.971
		c-0.32-0.238-0.631-0.416-0.93-0.527c-0.301-0.111-0.599-0.168-0.895-0.168c-0.271,0-0.5,0.057-0.684,0.168
		c-0.185,0.111-0.276,0.293-0.276,0.541c0,0.111,0.022,0.203,0.065,0.275c0.045,0.072,0.115,0.137,0.211,0.191
		c0.096,0.057,0.222,0.109,0.377,0.162c0.156,0.053,0.351,0.105,0.582,0.162c0.433,0.111,0.803,0.225,1.111,0.336
		c0.307,0.111,0.559,0.24,0.756,0.385c0.195,0.143,0.34,0.309,0.432,0.498c0.092,0.188,0.138,0.414,0.138,0.678
		c0,0.615-0.228,1.102-0.685,1.457C363.564,95.689,362.944,95.867,362.16,95.867z"/>
</g>
<line fill="none" stroke="#758288" stroke-miterlimit="10" x1="198.039" y1="18.918" x2="198.039" y2="106.25"/>
<line fill="none" stroke="#758288" stroke-miterlimit="10" x1="263.513" y1="18.918" x2="263.513" y2="106.25"/>
<g>
	<g>
		<path fill="#D2D6D7" d="M161.443,26.77l2.58,4.439l2.604-4.439h1.176l-3.24,5.412v3.107h-1.08v-3.131l-3.228-5.388H161.443z"/>
		<path fill="#D2D6D7" d="M170.491,35.41c-0.472,0-0.904-0.086-1.296-0.258c-0.392-0.172-0.728-0.406-1.008-0.703
			c-0.28-0.295-0.498-0.643-0.654-1.037c-0.156-0.396-0.234-0.814-0.234-1.254c0-0.441,0.078-0.857,0.234-1.248
			c0.156-0.392,0.376-0.737,0.66-1.033c0.284-0.296,0.622-0.529,1.014-0.702c0.392-0.172,0.824-0.258,1.296-0.258
			c0.472,0,0.902,0.088,1.29,0.264c0.388,0.177,0.718,0.41,0.99,0.702s0.482,0.632,0.63,1.021c0.148,0.387,0.222,0.789,0.222,1.205
			c0,0.088-0.002,0.168-0.006,0.24c-0.004,0.072-0.01,0.129-0.018,0.168h-5.196c0.024,0.313,0.096,0.596,0.216,0.852
			c0.12,0.256,0.276,0.477,0.468,0.66s0.41,0.328,0.654,0.432c0.244,0.105,0.501,0.156,0.774,0.156c0.192,0,0.38-0.025,0.564-0.078
			c0.184-0.051,0.356-0.121,0.516-0.209c0.16-0.088,0.302-0.197,0.426-0.324c0.124-0.129,0.218-0.271,0.282-0.432l0.912,0.252
			c-0.104,0.232-0.246,0.443-0.426,0.635c-0.18,0.193-0.388,0.359-0.624,0.498c-0.236,0.141-0.498,0.25-0.786,0.33
			S170.803,35.41,170.491,35.41z M172.639,31.738c-0.024-0.297-0.098-0.57-0.222-0.822c-0.124-0.252-0.28-0.466-0.468-0.642
			s-0.406-0.314-0.654-0.414c-0.248-0.101-0.512-0.15-0.792-0.15c-0.28,0-0.544,0.05-0.792,0.15c-0.249,0.1-0.466,0.239-0.654,0.42
			c-0.188,0.18-0.34,0.394-0.456,0.642c-0.116,0.248-0.186,0.52-0.21,0.816H172.639z"/>
		<path fill="#D2D6D7" d="M176.418,35.41c-0.296,0-0.572-0.051-0.828-0.15s-0.478-0.238-0.666-0.414s-0.336-0.383-0.444-0.617
			c-0.108-0.236-0.162-0.494-0.162-0.775c0-0.287,0.064-0.549,0.192-0.785s0.31-0.438,0.546-0.605
			c0.236-0.17,0.516-0.301,0.84-0.396s0.678-0.145,1.062-0.145c0.304,0,0.612,0.027,0.924,0.084s0.588,0.133,0.828,0.229V31.33
			c0-0.512-0.144-0.915-0.432-1.207c-0.288-0.292-0.696-0.438-1.224-0.438c-0.632,0-1.296,0.243-1.992,0.731l-0.348-0.684
			c0.808-0.544,1.62-0.816,2.436-0.816c0.824,0,1.466,0.22,1.926,0.66c0.46,0.44,0.69,1.06,0.69,1.86v2.557
			c0,0.248,0.112,0.375,0.336,0.383v0.912c-0.112,0.016-0.204,0.029-0.276,0.037c-0.072,0.008-0.148,0.012-0.228,0.012
			c-0.208,0-0.374-0.063-0.498-0.186c-0.124-0.125-0.198-0.275-0.222-0.451l-0.024-0.443c-0.28,0.375-0.634,0.662-1.062,0.857
			C177.364,35.311,176.906,35.41,176.418,35.41z M176.694,34.617c0.376,0,0.726-0.07,1.05-0.209c0.324-0.141,0.57-0.326,0.738-0.559
			c0.152-0.152,0.228-0.309,0.228-0.469v-0.924c-0.512-0.199-1.044-0.299-1.596-0.299c-0.528,0-0.958,0.111-1.29,0.336
			c-0.332,0.223-0.498,0.516-0.498,0.875c0,0.176,0.034,0.34,0.102,0.492c0.068,0.152,0.164,0.285,0.288,0.396
			s0.27,0.199,0.438,0.264S176.502,34.617,176.694,34.617z"/>
		<path fill="#D2D6D7" d="M184.771,29.95c-0.528,0.016-0.994,0.152-1.398,0.408c-0.404,0.256-0.69,0.611-0.858,1.068v3.863h-1.056
			v-6.263h0.984v1.452c0.216-0.433,0.5-0.782,0.852-1.051c0.352-0.268,0.728-0.418,1.128-0.449c0.08,0,0.148,0,0.204,0
			c0.056,0,0.104,0.004,0.144,0.012V29.95z"/>
		<path fill="#D2D6D7" d="M188.01,35.41c-0.504,0-1-0.078-1.488-0.234c-0.488-0.156-0.908-0.383-1.26-0.678l0.456-0.709
			c0.368,0.281,0.736,0.49,1.104,0.631s0.756,0.209,1.164,0.209c0.456,0,0.818-0.09,1.086-0.27s0.402-0.434,0.402-0.762
			c0-0.152-0.036-0.281-0.108-0.391c-0.072-0.107-0.18-0.201-0.324-0.281s-0.328-0.152-0.552-0.217
			c-0.224-0.063-0.484-0.131-0.78-0.203c-0.376-0.096-0.7-0.188-0.972-0.275s-0.496-0.193-0.672-0.313
			c-0.176-0.121-0.304-0.264-0.384-0.432c-0.08-0.168-0.12-0.377-0.12-0.625c0-0.312,0.062-0.589,0.186-0.833
			s0.294-0.448,0.51-0.612c0.216-0.164,0.47-0.288,0.762-0.372s0.606-0.126,0.942-0.126c0.472,0,0.912,0.076,1.32,0.229
			c0.408,0.151,0.752,0.352,1.032,0.6l-0.48,0.636c-0.264-0.231-0.56-0.405-0.888-0.521s-0.664-0.174-1.008-0.174
			c-0.384,0-0.71,0.082-0.978,0.245c-0.268,0.164-0.402,0.427-0.402,0.786c0,0.145,0.026,0.266,0.078,0.361
			c0.052,0.096,0.138,0.18,0.258,0.252c0.12,0.072,0.274,0.135,0.462,0.191s0.414,0.115,0.678,0.18
			c0.416,0.096,0.778,0.195,1.086,0.295c0.308,0.1,0.564,0.217,0.768,0.354c0.204,0.137,0.356,0.297,0.456,0.48
			s0.15,0.408,0.15,0.672c0,0.584-0.224,1.047-0.672,1.391C189.375,35.238,188.771,35.41,188.01,35.41z"/>
	</g>
</g>
<g>
	<g>
		<path fill="#D2D6D7" d="M277.884,35.289V26.77h3.647c0.377,0,0.723,0.077,1.039,0.233c0.315,0.156,0.588,0.364,0.815,0.624
			s0.405,0.552,0.534,0.876c0.128,0.324,0.191,0.654,0.191,0.99c0,0.296-0.041,0.582-0.125,0.857
			c-0.084,0.276-0.205,0.526-0.36,0.75c-0.156,0.225-0.345,0.416-0.563,0.576c-0.221,0.16-0.467,0.275-0.738,0.348l2.063,3.264
			h-1.224l-1.944-3.059h-2.256v3.059H277.884z M278.964,31.27h2.58c0.224,0,0.426-0.049,0.606-0.145
			c0.18-0.096,0.334-0.225,0.461-0.389c0.129-0.165,0.229-0.355,0.301-0.571s0.107-0.439,0.107-0.672
			c0-0.24-0.042-0.466-0.126-0.678s-0.196-0.4-0.336-0.564s-0.304-0.292-0.491-0.384c-0.188-0.092-0.387-0.138-0.595-0.138h-2.508
			V31.27z"/>
		<path fill="#D2D6D7" d="M288.168,35.41c-0.473,0-0.904-0.086-1.296-0.258s-0.728-0.406-1.009-0.703
			c-0.279-0.295-0.498-0.643-0.653-1.037c-0.156-0.396-0.233-0.814-0.233-1.254c0-0.441,0.077-0.857,0.233-1.248
			c0.155-0.392,0.376-0.737,0.66-1.033s0.622-0.529,1.014-0.702c0.392-0.172,0.824-0.258,1.296-0.258
			c0.473,0,0.902,0.088,1.29,0.264c0.388,0.177,0.718,0.41,0.99,0.702s0.481,0.632,0.63,1.021c0.148,0.387,0.223,0.789,0.223,1.205
			c0,0.088-0.002,0.168-0.006,0.24c-0.005,0.072-0.011,0.129-0.019,0.168h-5.196c0.023,0.313,0.096,0.596,0.217,0.852
			c0.119,0.256,0.275,0.477,0.467,0.66c0.192,0.184,0.41,0.328,0.654,0.432c0.244,0.105,0.502,0.156,0.774,0.156
			c0.192,0,0.38-0.025,0.563-0.078c0.184-0.051,0.356-0.121,0.517-0.209c0.159-0.088,0.302-0.197,0.426-0.324
			c0.124-0.129,0.218-0.271,0.282-0.432l0.912,0.252c-0.104,0.232-0.246,0.443-0.426,0.635c-0.181,0.193-0.389,0.359-0.625,0.498
			c-0.236,0.141-0.498,0.25-0.785,0.33C288.779,35.369,288.48,35.41,288.168,35.41z M290.316,31.738
			c-0.024-0.297-0.099-0.57-0.223-0.822c-0.124-0.252-0.279-0.466-0.468-0.642s-0.406-0.314-0.653-0.414
			c-0.248-0.101-0.513-0.15-0.793-0.15c-0.279,0-0.544,0.05-0.791,0.15c-0.249,0.1-0.467,0.239-0.654,0.42
			c-0.188,0.18-0.34,0.394-0.457,0.642c-0.115,0.248-0.186,0.52-0.209,0.816H290.316z"/>
		<path fill="#D2D6D7" d="M292.068,32.146c0-0.441,0.075-0.857,0.228-1.248c0.151-0.393,0.368-0.735,0.647-1.027
			c0.28-0.292,0.614-0.523,1.002-0.696c0.389-0.172,0.822-0.258,1.303-0.258c0.623,0,1.162,0.138,1.613,0.414
			c0.452,0.276,0.795,0.646,1.026,1.11l-1.032,0.324c-0.16-0.296-0.384-0.526-0.672-0.69s-0.607-0.246-0.96-0.246
			c-0.288,0-0.56,0.058-0.815,0.174s-0.477,0.278-0.66,0.486c-0.185,0.208-0.33,0.452-0.438,0.731
			c-0.108,0.281-0.161,0.588-0.161,0.926c0,0.328,0.055,0.635,0.168,0.924c0.111,0.287,0.262,0.537,0.449,0.75
			c0.188,0.211,0.408,0.377,0.66,0.498c0.252,0.119,0.521,0.18,0.811,0.18c0.184,0,0.365-0.027,0.545-0.078
			c0.181-0.053,0.344-0.123,0.492-0.211s0.278-0.189,0.391-0.305c0.111-0.117,0.191-0.242,0.24-0.379l1.031,0.313
			c-0.096,0.232-0.23,0.443-0.402,0.635c-0.172,0.193-0.373,0.357-0.605,0.492c-0.232,0.137-0.49,0.244-0.773,0.324
			c-0.285,0.08-0.582,0.121-0.895,0.121c-0.473,0-0.904-0.088-1.296-0.264c-0.392-0.178-0.728-0.412-1.009-0.709
			c-0.279-0.295-0.498-0.643-0.653-1.037C292.146,33.004,292.068,32.586,292.068,32.146z"/>
		<path fill="#D2D6D7" d="M301.812,35.41c-0.472,0-0.901-0.088-1.29-0.264c-0.389-0.178-0.72-0.412-0.996-0.709
			c-0.275-0.295-0.49-0.641-0.642-1.031c-0.152-0.393-0.228-0.805-0.228-1.236c0-0.439,0.077-0.855,0.233-1.248
			c0.155-0.392,0.372-0.736,0.647-1.033c0.276-0.296,0.608-0.531,0.996-0.708c0.389-0.176,0.814-0.264,1.278-0.264
			s0.892,0.088,1.284,0.264c0.392,0.177,0.727,0.412,1.002,0.708c0.275,0.297,0.492,0.641,0.648,1.033
			c0.156,0.393,0.233,0.809,0.233,1.248c0,0.432-0.076,0.844-0.228,1.236c-0.152,0.391-0.368,0.736-0.648,1.031
			c-0.279,0.297-0.613,0.531-1.002,0.709C302.713,35.322,302.283,35.41,301.812,35.41z M299.736,32.182
			c0,0.328,0.053,0.633,0.161,0.912s0.257,0.523,0.444,0.732c0.188,0.207,0.408,0.371,0.66,0.492c0.252,0.119,0.521,0.18,0.81,0.18
			s0.558-0.061,0.81-0.18c0.252-0.121,0.475-0.287,0.666-0.498c0.192-0.213,0.342-0.461,0.451-0.744
			c0.107-0.285,0.161-0.59,0.161-0.918c0-0.32-0.054-0.623-0.161-0.906c-0.109-0.285-0.259-0.533-0.451-0.745
			c-0.191-0.212-0.414-0.378-0.666-0.498s-0.521-0.18-0.81-0.18s-0.558,0.063-0.81,0.186c-0.252,0.125-0.473,0.293-0.66,0.505
			c-0.188,0.212-0.336,0.46-0.444,0.744S299.736,31.854,299.736,32.182z"/>
		<path fill="#D2D6D7" d="M309.576,29.95c-0.528,0.016-0.994,0.152-1.398,0.408s-0.689,0.611-0.857,1.068v3.863h-1.057v-6.263h0.984
			v1.452c0.215-0.433,0.5-0.782,0.852-1.051c0.352-0.268,0.729-0.418,1.128-0.449c0.08,0,0.147,0,0.204,0
			c0.056,0,0.104,0.004,0.145,0.012V29.95z"/>
		<path fill="#D2D6D7" d="M313.092,35.41c-0.432,0-0.832-0.088-1.2-0.264c-0.368-0.178-0.685-0.412-0.948-0.709
			c-0.264-0.295-0.47-0.641-0.617-1.031c-0.148-0.393-0.223-0.805-0.223-1.236c0-0.439,0.07-0.857,0.21-1.254
			c0.14-0.396,0.337-0.743,0.589-1.039s0.551-0.529,0.899-0.702c0.349-0.172,0.729-0.258,1.146-0.258
			c0.504,0,0.955,0.132,1.351,0.396c0.396,0.264,0.71,0.584,0.942,0.96V26.53h1.056v7.464c0,0.248,0.112,0.375,0.336,0.383v0.912
			c-0.112,0.016-0.202,0.029-0.271,0.037s-0.134,0.012-0.197,0.012c-0.209,0-0.391-0.07-0.547-0.211
			c-0.156-0.139-0.233-0.301-0.233-0.486v-0.527c-0.248,0.408-0.578,0.727-0.99,0.955C313.981,35.295,313.548,35.41,313.092,35.41z
			 M313.344,34.498c0.191,0,0.391-0.037,0.594-0.109c0.204-0.07,0.396-0.172,0.576-0.299c0.18-0.129,0.336-0.277,0.468-0.451
			c0.132-0.172,0.218-0.354,0.259-0.545v-1.801c-0.072-0.199-0.181-0.389-0.324-0.57c-0.145-0.179-0.307-0.335-0.486-0.467
			s-0.372-0.235-0.576-0.312c-0.203-0.076-0.406-0.114-0.605-0.114c-0.313,0-0.594,0.066-0.846,0.198s-0.469,0.308-0.648,0.527
			c-0.18,0.22-0.318,0.472-0.414,0.757c-0.096,0.283-0.145,0.572-0.145,0.869c0,0.313,0.057,0.609,0.168,0.895
			c0.112,0.283,0.264,0.529,0.457,0.738c0.191,0.207,0.418,0.373,0.678,0.498C312.758,34.436,313.039,34.498,313.344,34.498z"/>
		<path fill="#D2D6D7" d="M324.336,34.979c-0.064,0.031-0.148,0.068-0.252,0.113c-0.104,0.043-0.223,0.088-0.354,0.131
			c-0.132,0.045-0.276,0.08-0.432,0.109c-0.156,0.027-0.318,0.041-0.486,0.041c-0.384,0-0.716-0.105-0.996-0.318
			c-0.28-0.211-0.42-0.541-0.42-0.988v-4.212h-0.853v-0.828h0.853v-2.088h1.056v2.088h1.404v0.828h-1.404v3.888
			c0.017,0.232,0.092,0.4,0.229,0.504c0.136,0.104,0.296,0.156,0.48,0.156c0.207,0,0.397-0.035,0.569-0.104
			c0.172-0.066,0.29-0.121,0.354-0.162L324.336,34.979z"/>
		<path fill="#D2D6D7" d="M325.319,27.849V26.53h1.056v1.319H325.319z M325.319,35.289v-6.263h1.056v6.263H325.319z"/>
		<path fill="#D2D6D7" d="M337.523,35.289h-1.056v-3.504c0-0.656-0.106-1.139-0.318-1.452c-0.212-0.312-0.526-0.468-0.942-0.468
			c-0.432,0-0.817,0.154-1.158,0.462c-0.34,0.308-0.581,0.706-0.725,1.194v3.768h-1.057v-3.504c0-0.672-0.104-1.16-0.313-1.463
			c-0.207-0.304-0.52-0.456-0.936-0.456c-0.424,0-0.809,0.149-1.152,0.45c-0.344,0.3-0.588,0.698-0.731,1.194v3.779h-1.056v-6.263
			h0.959v1.344c0.256-0.464,0.588-0.822,0.996-1.074s0.868-0.378,1.381-0.378c0.527,0,0.945,0.143,1.254,0.426
			c0.308,0.284,0.498,0.65,0.57,1.099c0.559-1.017,1.355-1.524,2.387-1.524c0.36,0,0.662,0.066,0.906,0.198s0.438,0.316,0.582,0.552
			c0.145,0.236,0.248,0.515,0.313,0.834c0.064,0.321,0.096,0.668,0.096,1.043V35.289z"/>
		<path fill="#D2D6D7" d="M341.939,35.41c-0.473,0-0.904-0.086-1.296-0.258s-0.728-0.406-1.009-0.703
			c-0.279-0.295-0.498-0.643-0.653-1.037c-0.156-0.396-0.233-0.814-0.233-1.254c0-0.441,0.077-0.857,0.233-1.248
			c0.155-0.392,0.376-0.737,0.66-1.033s0.622-0.529,1.014-0.702c0.392-0.172,0.824-0.258,1.296-0.258
			c0.473,0,0.902,0.088,1.29,0.264c0.388,0.177,0.718,0.41,0.99,0.702s0.481,0.632,0.63,1.021c0.148,0.387,0.223,0.789,0.223,1.205
			c0,0.088-0.002,0.168-0.006,0.24c-0.005,0.072-0.011,0.129-0.019,0.168h-5.196c0.023,0.313,0.096,0.596,0.217,0.852
			c0.119,0.256,0.275,0.477,0.467,0.66c0.192,0.184,0.41,0.328,0.654,0.432c0.244,0.105,0.502,0.156,0.774,0.156
			c0.192,0,0.38-0.025,0.563-0.078c0.184-0.051,0.356-0.121,0.517-0.209c0.159-0.088,0.302-0.197,0.426-0.324
			c0.124-0.129,0.218-0.271,0.282-0.432l0.912,0.252c-0.104,0.232-0.246,0.443-0.426,0.635c-0.181,0.193-0.389,0.359-0.625,0.498
			c-0.236,0.141-0.498,0.25-0.785,0.33C342.551,35.369,342.252,35.41,341.939,35.41z M344.088,31.738
			c-0.024-0.297-0.099-0.57-0.223-0.822c-0.124-0.252-0.279-0.466-0.468-0.642s-0.406-0.314-0.653-0.414
			c-0.248-0.101-0.513-0.15-0.793-0.15c-0.279,0-0.544,0.05-0.791,0.15c-0.249,0.1-0.467,0.239-0.654,0.42
			c-0.188,0.18-0.34,0.394-0.457,0.642c-0.115,0.248-0.186,0.52-0.209,0.816H344.088z"/>
		<path fill="#D2D6D7" d="M348.455,35.41c-0.504,0-1-0.078-1.488-0.234s-0.908-0.383-1.26-0.678l0.456-0.709
			c0.368,0.281,0.735,0.49,1.104,0.631c0.367,0.141,0.756,0.209,1.164,0.209c0.455,0,0.817-0.09,1.086-0.27
			c0.268-0.18,0.402-0.434,0.402-0.762c0-0.152-0.037-0.281-0.109-0.391c-0.071-0.107-0.18-0.201-0.323-0.281
			s-0.328-0.152-0.552-0.217c-0.225-0.063-0.484-0.131-0.78-0.203c-0.376-0.096-0.7-0.188-0.972-0.275
			c-0.272-0.088-0.496-0.193-0.672-0.313c-0.177-0.121-0.305-0.264-0.385-0.432s-0.119-0.377-0.119-0.625
			c0-0.312,0.062-0.589,0.186-0.833s0.294-0.448,0.51-0.612c0.217-0.164,0.471-0.288,0.762-0.372
			c0.293-0.084,0.606-0.126,0.942-0.126c0.472,0,0.912,0.076,1.319,0.229c0.408,0.151,0.752,0.352,1.033,0.6l-0.48,0.636
			c-0.264-0.231-0.561-0.405-0.889-0.521s-0.664-0.174-1.008-0.174c-0.384,0-0.709,0.082-0.978,0.245
			c-0.269,0.164-0.401,0.427-0.401,0.786c0,0.145,0.025,0.266,0.077,0.361s0.138,0.18,0.259,0.252
			c0.119,0.072,0.273,0.135,0.461,0.191c0.188,0.057,0.414,0.115,0.678,0.18c0.416,0.096,0.779,0.195,1.087,0.295
			s0.563,0.217,0.768,0.354s0.356,0.297,0.456,0.48s0.15,0.408,0.15,0.672c0,0.584-0.225,1.047-0.672,1.391
			C349.819,35.238,349.215,35.41,348.455,35.41z"/>
	</g>
</g>
<line fill="none" stroke="#0EA3BA" stroke-miterlimit="10" stroke-dasharray="4,4" x1="270.197" y1="67.252" x2="193.89" y2="67.252"/>
<line fill="none" stroke="#8B4F9F" stroke-miterlimit="10" stroke-dasharray="4,4" x1="270.197" y1="92.584" x2="193.89" y2="92.584"/>
<g>
	<text transform="matrix(1 0 0 1 12.2002 -94.7109)" fill="#D2D6D7" font-family="'Raleway-Medium'" font-size="12">Men</text>
</g>
<circle fill="#0EA3BA" cx="5.266" cy="-98.49" r="2.434"/>
<text transform="matrix(1 0 0 1 60.106 -94.7109)" fill="#D2D6D7" font-family="'Raleway-Medium'" font-size="12">Women</text>
<circle fill="#8B4F9F" cx="53.172" cy="-98.49" r="2.434"/>
<text transform="matrix(1 0 0 1 256.0791 -59.8364)" fill="#0EA3BA" font-family="'Raleway-Bold'" font-size="12">Men’s times</text>
<text transform="matrix(1 0 0 1 256.0801 -34.2534)" fill="#8B4F9F" font-family="'Raleway-Bold'" font-size="12">Women’s times</text>
<line fill="none" stroke="#758288" stroke-miterlimit="10" x1="177.254" y1="-111.082" x2="177.254" y2="-23.75"/>
<line fill="none" stroke="#758288" stroke-miterlimit="10" x1="242.728" y1="-111.082" x2="242.728" y2="-23.75"/>
<g>
	<text transform="matrix(1 0 0 1 138.2217 -94.7104)" fill="#D2D6D7" font-family="'Raleway-Medium'" font-size="12">Years</text>
</g>
<g>
	<text transform="matrix(1 0 0 1 256.0781 -94.7104)" fill="#D2D6D7" font-family="'Raleway-Medium'" font-size="12">Record times</text>
</g>
<line fill="none" stroke="#0EA3BA" stroke-miterlimit="10" stroke-dasharray="4,4" x1="249.412" y1="-62.748" x2="173.104" y2="-62.748"/>
<line fill="none" stroke="#8B4F9F" stroke-miterlimit="10" stroke-dasharray="4,4" x1="249.412" y1="-37.416" x2="173.104" y2="-37.416"/>
</svg>
