<?xml version="1.0" encoding="utf-8"?>
<!-- Generator: Adobe Illustrator 15.0.0, SVG Export Plug-In . SVG Version: 6.00 Build 0)  -->
<!DOCTYPE svg PUBLIC "-//W3C//DTD SVG 1.1//EN" "http://www.w3.org/Graphics/SVG/1.1/DTD/svg11.dtd">
<svg version="1.1" id="Capa_1" xmlns="http://www.w3.org/2000/svg" xmlns:xlink="http://www.w3.org/1999/xlink" x="0px" y="0px"
	 width="380.334px" height="53.615px" viewBox="0 0 380.334 53.615" enable-background="new 0 0 380.334 53.615"
	 xml:space="preserve">
<g transform="translate(0,5)">
	<g>
		<g>
			<defs>
				<circle id="SVGID_1_" cx="216.871" cy="20" r="25"/>
			</defs>
			<clipPath id="SVGID_2_">
				<use xlink:href="#SVGID_1_"  overflow="visible"/>
			</clipPath>
			<g clip-path="url(#SVGID_2_)">
				<line fill="none" stroke="#799EAD" stroke-width="0.5" x1="221.762" y1="54.856" x2="182.018" y2="24.891"/>
				<line fill="none" stroke="#799EAD" stroke-width="0.5" x1="224.259" y1="51.543" x2="184.515" y2="21.579"/>
				<line fill="none" stroke="#799EAD" stroke-width="0.5" x1="226.755" y1="48.232" x2="187.011" y2="18.267"/>
				<line fill="none" stroke="#799EAD" stroke-width="0.5" x1="229.252" y1="44.919" x2="189.508" y2="14.954"/>
				<line fill="none" stroke="#799EAD" stroke-width="0.5" x1="231.75" y1="41.607" x2="192.005" y2="11.642"/>
				<line fill="none" stroke="#799EAD" stroke-width="0.5" x1="234.246" y1="38.294" x2="194.502" y2="8.33"/>
				<line fill="none" stroke="#799EAD" stroke-width="0.5" x1="236.743" y1="34.983" x2="196.999" y2="5.018"/>
				<line fill="none" stroke="#799EAD" stroke-width="0.5" x1="239.24" y1="31.67" x2="199.496" y2="1.705"/>
				<line fill="none" stroke="#799EAD" stroke-width="0.5" x1="241.737" y1="28.358" x2="201.993" y2="-1.607"/>
				<line fill="none" stroke="#799EAD" stroke-width="0.5" x1="244.234" y1="25.046" x2="204.49" y2="-4.919"/>
				<line fill="none" stroke="#799EAD" stroke-width="0.5" x1="246.731" y1="21.734" x2="206.987" y2="-8.231"/>
				<line fill="none" stroke="#799EAD" stroke-width="0.5" x1="249.228" y1="18.421" x2="209.483" y2="-11.544"/>
				<line fill="none" stroke="#799EAD" stroke-width="0.5" x1="251.725" y1="15.109" x2="211.98" y2="-14.856"/>
			</g>
		</g>
		<circle fill="none" stroke="#D1D5D7" cx="216.871" cy="20" r="25"/>
		<g>
			<defs>
				<circle id="SVGID_3_" cx="175.166" cy="20" r="7"/>
			</defs>
			<clipPath id="SVGID_4_">
				<use xlink:href="#SVGID_3_"  overflow="visible"/>
			</clipPath>
			<g clip-path="url(#SVGID_4_)">
				<line fill="none" stroke="#799EAD" stroke-width="0.5" x1="175.166" y1="55.198" x2="139.971" y2="20"/>
				<line fill="none" stroke="#799EAD" stroke-width="0.5" x1="178.099" y1="52.264" x2="142.904" y2="17.067"/>
				<line fill="none" stroke="#799EAD" stroke-width="0.5" x1="181.032" y1="49.332" x2="145.837" y2="14.134"/>
				<line fill="none" stroke="#799EAD" stroke-width="0.5" x1="183.965" y1="46.398" x2="148.77" y2="11.201"/>
				<line fill="none" stroke="#799EAD" stroke-width="0.5" x1="186.898" y1="43.465" x2="151.703" y2="8.268"/>
				<line fill="none" stroke="#799EAD" stroke-width="0.5" x1="189.831" y1="40.532" x2="154.636" y2="5.335"/>
				<line fill="none" stroke="#799EAD" stroke-width="0.5" x1="192.764" y1="37.599" x2="157.569" y2="2.401"/>
				<line fill="none" stroke="#799EAD" stroke-width="0.5" x1="195.697" y1="34.666" x2="160.502" y2="-0.532"/>
				<line fill="none" stroke="#799EAD" stroke-width="0.5" x1="198.63" y1="31.733" x2="163.435" y2="-3.465"/>
				<line fill="none" stroke="#799EAD" stroke-width="0.5" x1="201.563" y1="28.799" x2="166.368" y2="-6.398"/>
				<line fill="none" stroke="#799EAD" stroke-width="0.5" x1="204.496" y1="25.867" x2="169.301" y2="-9.331"/>
				<line fill="none" stroke="#799EAD" stroke-width="0.5" x1="207.429" y1="22.933" x2="172.234" y2="-12.264"/>
				<line fill="none" stroke="#799EAD" stroke-width="0.5" x1="210.362" y1="20" x2="175.167" y2="-15.197"/>
			</g>
		</g>
		<g>
			
				<text transform="matrix(1 0 0 1 203.833 23.7798)" fill="#D1D5D7" stroke="#192F38" stroke-width="2" font-family="'Raleway-Medium'" font-size="12">Area</text>
		</g>
		<g>
			<text transform="matrix(1 0 0 1 203.833 23.7798)" fill="#D1D5D7" font-family="'Raleway-Medium'" font-size="12">Area</text>
		</g>
		<g>
			<text transform="matrix(1 0 0 1 247.583 9.7798)"><tspan x="0" y="0" fill="#D1D5D7" font-family="'Raleway-Medium'" font-size="12">Proportional to </tspan><tspan x="0" y="14.4" fill="#D1D5D7" font-family="'Raleway-Medium'" font-size="12">record&apos;s average speed</tspan></text>
		</g>
		<g>
			<text transform="matrix(1 0 0 1 247.583 40.0298)"><tspan x="0" y="0" fill="#D1D5D7" font-family="'Raleway-Bold'" font-size="10">Faster</tspan><tspan x="30.149" y="0" fill="#D1D5D7" font-family="'Raleway-Medium'" font-size="10"> </tspan><tspan x="32.68" y="0" fill="#D1D5D7" font-family="'ITCZapfDingbatsMedium'" font-size="10">Õ</tspan><tspan x="41.059" y="0" fill="#D1D5D7" font-family="'Raleway-Medium'" font-size="10"> </tspan><tspan x="43.589" y="0" fill="#D1D5D7" font-family="'Raleway-Bold'" font-size="10">bigger</tspan></text>
		</g>
		<circle fill="none" stroke="#D1D5D7" cx="175.166" cy="20" r="7"/>
	</g>
	<g>
		<text transform="matrix(1 0 0 1 28.166 23.7798)" fill="#D1D5D7" font-family="'Raleway-Medium'" font-size="12">Men</text>
		<line fill="none" stroke="#0CA3B9" stroke-width="2" x1="3.166" y1="18.78" x2="23.166" y2="18.78"/>
	</g>
	<g>
		<text transform="matrix(1 0 0 1 100.999 23.7798)" fill="#D1D5D7" font-family="'Raleway-Medium'" font-size="12">Women</text>
		<line fill="none" stroke="#AD1BEA" stroke-width="2" x1="75.665" y1="18.78" x2="95.665" y2="18.78"/>
	</g>
</g>
</svg>
