<?xml version="1.0" encoding="utf-8"?>
<!-- Generator: Adobe Illustrator 15.0.0, SVG Export Plug-In . SVG Version: 6.00 Build 0)  -->
<!DOCTYPE svg PUBLIC "-//W3C//DTD SVG 1.1//EN" "http://www.w3.org/Graphics/SVG/1.1/DTD/svg11.dtd">
<svg version="1.1" id="Capa_1" xmlns="http://www.w3.org/2000/svg" xmlns:xlink="http://www.w3.org/1999/xlink" x="0px" y="0px"
	 width="176px" height="108.892px" viewBox="0 0 176 108.892" enable-background="new 0 0 176 108.892" xml:space="preserve">
<g>
	
		<ellipse fill="none" stroke="#799EAD" stroke-width="0.5" stroke-miterlimit="10" enable-background="new    " cx="80.767" cy="34.841" rx="2.109" ry="2.237"/>
	<path fill="none" stroke="#799EAD" stroke-width="0.5" stroke-miterlimit="10" enable-background="new    " d="M80.771,32.84
		c1.159,0,2.103,1.001,2.103,2.236s-0.944,2.237-2.103,2.237c-1.166,0-2.108-1.002-2.108-2.237S79.606,32.84,80.771,32.84z"/>
	
		<ellipse fill="none" stroke="#799EAD" stroke-width="0.5" stroke-miterlimit="10" enable-background="new    " cx="80.769" cy="36.478" rx="2.106" ry="2.237"/>
	<path fill="none" stroke="#799EAD" stroke-width="0.5" stroke-miterlimit="10" enable-background="new    " d="M80.768,34.472
		c1.163,0,2.107,1.003,2.107,2.239c0,1.23-0.944,2.236-2.107,2.236s-2.106-1.006-2.106-2.236
		C78.662,35.475,79.605,34.472,80.768,34.472z"/>
	
		<ellipse fill="none" stroke="#799EAD" stroke-width="0.5" stroke-miterlimit="10" enable-background="new    " cx="80.769" cy="37.644" rx="2.106" ry="2.237"/>
	<path fill="none" stroke="#799EAD" stroke-width="0.5" stroke-miterlimit="10" enable-background="new    " d="M80.767,36.103
		c1.163,0,2.108,1.003,2.108,2.24c0,1.234-0.945,2.236-2.108,2.236c-1.161,0-2.104-1.002-2.104-2.236
		C78.662,37.105,79.605,36.103,80.767,36.103z"/>
	<path fill="none" stroke="#799EAD" stroke-width="0.5" stroke-miterlimit="10" enable-background="new    " d="M94.96,20.005
		c1.164,0,2.106,1.004,2.106,2.237c0,1.236-0.942,2.235-2.106,2.235c-1.16,0-2.103-0.999-2.103-2.235
		C92.857,21.009,93.8,20.005,94.96,20.005z"/>
	<path fill="none" stroke="#799EAD" stroke-width="0.5" stroke-miterlimit="10" enable-background="new    " d="M80.769,37.741
		c1.163,0,2.106,0.997,2.106,2.237c0,1.233-0.944,2.236-2.106,2.236c-1.163,0-2.106-1.003-2.106-2.236
		C78.662,38.738,79.605,37.741,80.769,37.741z"/>
	<path fill="none" stroke="#799EAD" stroke-width="0.5" stroke-miterlimit="10" enable-background="new    " d="M94.965,23.272
		c1.158,0,2.104,1.003,2.104,2.236c0,1.234-0.945,2.236-2.104,2.236c-1.167,0-2.109-1.002-2.109-2.236
		C92.855,24.275,93.798,23.272,94.965,23.272z"/>
	<path fill="none" stroke="#799EAD" stroke-width="0.5" stroke-miterlimit="10" enable-background="new    " d="M80.771,37.741
		c1.165,0,2.104,1.001,2.104,2.237c0,1.233-0.939,2.236-2.104,2.236c-1.166,0-2.109-1.003-2.109-2.236
		C78.662,38.742,79.605,37.741,80.771,37.741z"/>
	
		<ellipse fill="none" stroke="#799EAD" stroke-width="0.5" stroke-miterlimit="10" enable-background="new    " cx="80.769" cy="40.676" rx="2.106" ry="2.237"/>
	
		<ellipse fill="none" stroke="#799EAD" stroke-width="0.5" stroke-miterlimit="10" enable-background="new    " cx="80.768" cy="41.842" rx="2.107" ry="2.237"/>
	<path fill="none" stroke="#799EAD" stroke-width="0.5" stroke-miterlimit="10" enable-background="new    " d="M94.964,28.637
		c1.162,0,2.105,1.009,2.105,2.241c0,1.234-0.943,2.235-2.105,2.235c-1.168,0-2.109-1.001-2.109-2.235
		C92.854,29.646,93.796,28.637,94.964,28.637z"/>
	<path fill="none" stroke="#799EAD" stroke-width="0.5" stroke-miterlimit="10" enable-background="new    " d="M80.766,41.706
		c1.166,0,2.109,1.003,2.109,2.241c0,1.234-0.943,2.238-2.109,2.238c-1.161,0-2.104-1.004-2.104-2.238
		C78.662,42.709,79.605,41.706,80.766,41.706z"/>
	
		<ellipse fill="none" stroke="#799EAD" stroke-width="0.5" stroke-miterlimit="10" enable-background="new    " cx="80.769" cy="44.645" rx="2.106" ry="2.236"/>
	<path fill="none" stroke="#799EAD" stroke-width="0.5" stroke-miterlimit="10" enable-background="new    " d="M80.77,43.342
		c1.162,0,2.104,1,2.104,2.235c0,1.234-0.942,2.237-2.104,2.237c-1.166,0-2.106-1.003-2.106-2.237
		C78.663,44.342,79.604,43.342,80.77,43.342z"/>
	<path fill="none" stroke="#799EAD" stroke-width="0.5" stroke-miterlimit="10" enable-background="new    " d="M94.961,29.106
		c1.164,0,2.108,1.001,2.108,2.239c0,1.234-0.944,2.235-2.108,2.235c-1.161,0-2.106-1.001-2.106-2.235
		C92.854,30.107,93.8,29.106,94.961,29.106z"/>
	<path fill="none" stroke="#799EAD" stroke-width="0.5" stroke-miterlimit="10" enable-background="new    " d="M94.964,29.573
		c1.165,0,2.104,0.998,2.104,2.235c0,1.238-0.939,2.237-2.104,2.237c-1.164,0-2.108-0.999-2.108-2.237
		C92.855,30.571,93.8,29.573,94.964,29.573z"/>
	
		<ellipse fill="none" stroke="#799EAD" stroke-width="0.5" stroke-miterlimit="10" enable-background="new    " cx="94.961" cy="33.442" rx="2.106" ry="2.239"/>
	
		<ellipse fill="none" stroke="#799EAD" stroke-width="0.5" stroke-miterlimit="10" enable-background="new    " cx="94.962" cy="34.142" rx="2.106" ry="2.236"/>
	<path fill="none" stroke="#799EAD" stroke-width="0.5" stroke-miterlimit="10" enable-background="new    " d="M94.96,33.773
		c1.165,0,2.11,1.003,2.11,2.236c0,1.24-0.945,2.238-2.11,2.238c-1.164,0-2.106-0.998-2.106-2.238
		C92.854,34.776,93.796,33.773,94.96,33.773z"/>
	
		<ellipse fill="none" stroke="#799EAD" stroke-width="0.5" stroke-miterlimit="10" enable-background="new    " cx="80.769" cy="46.279" rx="2.107" ry="2.237"/>
	<path fill="none" stroke="#799EAD" stroke-width="0.5" stroke-miterlimit="10" enable-background="new    " d="M94.961,34.472
		c1.166,0,2.108,1.003,2.108,2.236s-0.942,2.239-2.108,2.239c-1.161,0-2.106-1.006-2.106-2.239S93.8,34.472,94.961,34.472z"/>
	
		<ellipse fill="none" stroke="#799EAD" stroke-width="0.5" stroke-miterlimit="10" enable-background="new    " cx="80.768" cy="46.511" rx="2.107" ry="2.238"/>
	
		<ellipse fill="none" stroke="#799EAD" stroke-width="0.5" stroke-miterlimit="10" enable-background="new    " cx="94.962" cy="39.511" rx="2.106" ry="2.237"/>
	<path fill="none" stroke="#799EAD" stroke-width="0.5" stroke-miterlimit="10" enable-background="new    " d="M80.771,46.144
		c1.16,0,2.103,0.997,2.103,2.231c0,1.241-0.943,2.241-2.103,2.241c-1.166,0-2.108-1-2.108-2.241
		C78.663,47.141,79.606,46.144,80.771,46.144z"/>
	
		<ellipse fill="none" stroke="#799EAD" stroke-width="0.5" stroke-miterlimit="10" enable-background="new    " cx="94.961" cy="39.978" rx="2.106" ry="2.237"/>
	
		<ellipse fill="none" stroke="#799EAD" stroke-width="0.5" stroke-miterlimit="10" enable-background="new    " cx="94.962" cy="39.978" rx="2.106" ry="2.237"/>
	<path fill="none" stroke="#799EAD" stroke-width="0.5" stroke-miterlimit="10" enable-background="new    " d="M94.96,38.206
		c1.166,0,2.109,1.003,2.109,2.234c0,1.239-0.943,2.238-2.109,2.238c-1.16,0-2.105-0.999-2.105-2.238
		C92.854,39.209,93.8,38.206,94.96,38.206z"/>
	<path fill="none" stroke="#799EAD" stroke-width="0.5" stroke-miterlimit="10" enable-background="new    " d="M94.964,38.439
		c1.162,0,2.104,1.004,2.104,2.237s-0.942,2.24-2.104,2.24c-1.166,0-2.108-1.007-2.108-2.24S93.798,38.439,94.964,38.439z"/>
	
		<ellipse fill="none" stroke="#799EAD" stroke-width="0.5" stroke-miterlimit="10" enable-background="new    " cx="94.962" cy="41.377" rx="2.106" ry="2.236"/>
	
		<ellipse fill="none" stroke="#799EAD" stroke-width="0.5" stroke-miterlimit="10" enable-background="new    " cx="94.963" cy="41.842" rx="2.106" ry="2.237"/>
	
		<ellipse fill="none" stroke="#799EAD" stroke-width="0.5" stroke-miterlimit="10" enable-background="new    " cx="94.961" cy="42.078" rx="2.106" ry="2.236"/>
	<path fill="none" stroke="#799EAD" stroke-width="0.5" stroke-miterlimit="10" enable-background="new    " d="M94.961,41.006
		c1.166,0,2.106,1.004,2.106,2.237c0,1.237-0.94,2.243-2.106,2.243c-1.161,0-2.104-1.006-2.104-2.243
		C92.856,42.01,93.8,41.006,94.961,41.006z"/>
	<path fill="none" stroke="#799EAD" stroke-width="0.5" stroke-miterlimit="10" enable-background="new    " d="M80.769,46.144
		c1.166,0,2.106,0.997,2.106,2.234c0,1.238-0.94,2.238-2.106,2.238c-1.163,0-2.107-1-2.107-2.238
		C78.662,47.141,79.606,46.144,80.769,46.144z"/>
	<path fill="none" stroke="#799EAD" stroke-width="0.5" stroke-miterlimit="10" enable-background="new    " d="M80.766,46.843
		c1.168,0,2.11,1.003,2.11,2.237c0,1.232-0.942,2.235-2.11,2.235c-1.162,0-2.104-1.003-2.104-2.235
		C78.661,47.846,79.604,46.843,80.766,46.843z"/>
	
		<ellipse fill="none" stroke="#799EAD" stroke-width="0.5" stroke-miterlimit="10" enable-background="new    " cx="80.77" cy="49.308" rx="2.105" ry="2.237"/>
	<path fill="none" stroke="#799EAD" stroke-width="0.5" stroke-miterlimit="10" enable-background="new    " d="M80.771,47.31
		c1.164,0,2.104,1,2.104,2.238c0,1.231-0.94,2.236-2.104,2.236c-1.167,0-2.108-1.005-2.108-2.236
		C78.662,48.31,79.604,47.31,80.771,47.31z"/>
	<path fill="none" stroke="#799EAD" stroke-width="0.5" stroke-miterlimit="10" enable-background="new    " d="M80.769,47.31
		c1.163,0,2.106,1,2.106,2.238c0,1.231-0.943,2.236-2.106,2.236s-2.106-1.005-2.106-2.236C78.662,48.31,79.605,47.31,80.769,47.31z"
		/>
	
		<ellipse fill="none" stroke="#799EAD" stroke-width="0.5" stroke-miterlimit="10" enable-background="new    " cx="80.77" cy="50.477" rx="2.105" ry="2.237"/>
	
		<ellipse fill="none" stroke="#799EAD" stroke-width="0.5" stroke-miterlimit="10" enable-background="new    " cx="80.768" cy="51.178" rx="2.107" ry="2.236"/>
	
		<ellipse fill="none" stroke="#799EAD" stroke-width="0.5" stroke-miterlimit="10" enable-background="new    " cx="80.768" cy="51.178" rx="2.106" ry="2.236"/>
	<path fill="none" stroke="#799EAD" stroke-width="0.5" stroke-miterlimit="10" enable-background="new    " d="M13.151,76.008
		c1.164,0,2.107,1,2.107,2.234c0,1.24-0.943,2.239-2.107,2.239c-1.163,0-2.106-0.999-2.106-2.239
		C11.045,77.008,11.989,76.008,13.151,76.008z"/>
	<path fill="none" stroke="#799EAD" stroke-width="0.5" stroke-miterlimit="10" enable-background="new    " d="M94.957,43.342
		c1.166,0,2.111,1,2.111,2.235c0,1.234-0.945,2.237-2.111,2.237c-1.164,0-2.102-1.003-2.102-2.237
		C92.855,44.342,93.793,43.342,94.957,43.342z"/>
	
		<ellipse fill="none" stroke="#799EAD" stroke-width="0.5" stroke-miterlimit="10" enable-background="new    " cx="94.962" cy="46.279" rx="2.106" ry="2.237"/>
	
		<ellipse fill="none" stroke="#799EAD" stroke-width="0.5" stroke-miterlimit="10" enable-background="new    " cx="80.769" cy="50.944" rx="2.105" ry="2.237"/>
	<path fill="none" stroke="#799EAD" stroke-width="0.5" stroke-miterlimit="10" enable-background="new    " d="M80.769,49.17
		c1.163,0,2.106,1.002,2.106,2.238c0,1.237-0.943,2.24-2.106,2.24c-1.167,0-2.106-1.003-2.106-2.24
		C78.662,50.172,79.602,49.17,80.769,49.17z"/>
	<path fill="none" stroke="#799EAD" stroke-width="0.5" stroke-miterlimit="10" enable-background="new    " d="M27.156,71.808
		c1.16,0,2.103,1.003,2.103,2.236c0,1.236-0.943,2.24-2.103,2.24c-1.166,0-2.109-1.004-2.109-2.24
		C25.046,72.811,25.99,71.808,27.156,71.808z"/>
	
		<ellipse fill="none" stroke="#799EAD" stroke-width="0.5" stroke-miterlimit="10" enable-background="new    " cx="148.508" cy="39.744" rx="2.106" ry="2.239"/>
	<path fill="none" stroke="#799EAD" stroke-width="0.5" stroke-miterlimit="10" enable-background="new    " d="M148.507,38.203
		c1.161,0,2.106,1.006,2.106,2.237c0,1.239-0.945,2.238-2.106,2.238c-1.164,0-2.106-0.999-2.106-2.238
		C146.4,39.209,147.343,38.203,148.507,38.203z"/>
	
		<ellipse fill="none" stroke="#799EAD" stroke-width="0.5" stroke-miterlimit="10" enable-background="new    " cx="80.768" cy="51.409" rx="2.106" ry="2.239"/>
	<path fill="none" stroke="#799EAD" stroke-width="0.5" stroke-miterlimit="10" enable-background="new    " d="M162.534,30.273
		c1.164,0,2.104,1,2.104,2.235c0,1.236-0.939,2.239-2.104,2.239s-2.107-1.003-2.107-2.239
		C160.427,31.273,161.37,30.273,162.534,30.273z"/>
	<path fill="none" stroke="#799EAD" stroke-width="0.5" stroke-miterlimit="10" enable-background="new    " d="M13.149,76.242
		c1.167,0,2.109,1.002,2.109,2.236c0,1.236-0.943,2.237-2.109,2.237c-1.16,0-2.104-1.001-2.104-2.237
		C11.045,77.244,11.989,76.242,13.149,76.242z"/>
	
		<ellipse fill="none" stroke="#799EAD" stroke-width="0.5" stroke-miterlimit="10" enable-background="new    " cx="27.153" cy="74.277" rx="2.105" ry="2.237"/>
	<path fill="none" stroke="#799EAD" stroke-width="0.5" stroke-miterlimit="10" enable-background="new    " d="M162.531,30.971
		c1.166,0,2.108,1.004,2.108,2.235c0,1.237-0.942,2.237-2.108,2.237c-1.161,0-2.106-1-2.106-2.237
		C160.425,31.975,161.37,30.971,162.531,30.971z"/>
	<path fill="none" stroke="#799EAD" stroke-width="0.5" stroke-miterlimit="10" enable-background="new    " d="M27.153,72.977
		c1.167,0,2.106,0.999,2.106,2.238c0,1.231-0.939,2.234-2.106,2.234c-1.159,0-2.106-1.003-2.106-2.234
		C25.046,73.976,25.994,72.977,27.153,72.977z"/>
	<path fill="none" stroke="#799EAD" stroke-width="0.5" stroke-miterlimit="10" enable-background="new    " d="M80.771,50.107
		c1.159,0,2.103,1.001,2.103,2.236c0,1.236-0.944,2.237-2.103,2.237c-1.167,0-2.106-1.001-2.106-2.237
		C78.664,51.108,79.604,50.107,80.771,50.107z"/>
	
		<ellipse fill="none" stroke="#799EAD" stroke-width="0.5" stroke-miterlimit="10" enable-background="new    " cx="27.152" cy="75.914" rx="2.108" ry="2.238"/>
	
		<ellipse fill="none" stroke="#799EAD" stroke-width="0.5" stroke-miterlimit="10" enable-background="new    " cx="80.768" cy="52.811" rx="2.107" ry="2.237"/>
	<path fill="none" stroke="#799EAD" stroke-width="0.5" stroke-miterlimit="10" enable-background="new    " d="M162.529,31.438
		c1.165,0,2.107,1.003,2.107,2.234c0,1.242-0.942,2.238-2.107,2.238c-1.163,0-2.102-0.996-2.102-2.238
		C160.428,32.441,161.366,31.438,162.529,31.438z"/>
	
		<ellipse fill="none" stroke="#799EAD" stroke-width="0.5" stroke-miterlimit="10" enable-background="new    " cx="148.507" cy="41.375" rx="2.106" ry="2.238"/>
	
		<ellipse fill="none" stroke="#799EAD" stroke-width="0.5" stroke-miterlimit="10" enable-background="new    " cx="13.153" cy="79.178" rx="2.105" ry="2.238"/>
	<path fill="none" stroke="#799EAD" stroke-width="0.5" stroke-miterlimit="10" enable-background="new    " d="M13.156,77.406
		c1.162,0,2.103,1.003,2.103,2.237c0,1.236-0.94,2.235-2.103,2.235c-1.164,0-2.11-0.999-2.11-2.235
		C11.045,78.409,11.992,77.406,13.156,77.406z"/>
	
		<ellipse fill="none" stroke="#799EAD" stroke-width="0.5" stroke-miterlimit="10" enable-background="new    " cx="162.532" cy="33.912" rx="2.106" ry="2.236"/>
	
		<ellipse fill="none" stroke="#799EAD" stroke-width="0.5" stroke-miterlimit="10" enable-background="new    " cx="80.769" cy="53.509" rx="2.106" ry="2.238"/>
	<path fill="none" stroke="#799EAD" stroke-width="0.5" stroke-miterlimit="10" enable-background="new    " d="M94.96,44.507
		c1.165,0,2.109,1.001,2.109,2.238c0,1.234-0.944,2.234-2.109,2.234c-1.163,0-2.105-1-2.105-2.234
		C92.854,45.508,93.797,44.507,94.96,44.507z"/>
	<path fill="none" stroke="#799EAD" stroke-width="0.5" stroke-miterlimit="10" enable-background="new    " d="M80.77,51.508
		c1.166,0,2.104,1.002,2.104,2.236c0,1.235-0.938,2.238-2.104,2.238c-1.166,0-2.106-1.003-2.106-2.238
		C78.664,52.51,79.604,51.508,80.77,51.508z"/>
	
		<ellipse fill="none" stroke="#799EAD" stroke-width="0.5" stroke-miterlimit="10" enable-background="new    " cx="148.507" cy="42.078" rx="2.106" ry="2.236"/>
	<path fill="none" stroke="#799EAD" stroke-width="0.5" stroke-miterlimit="10" enable-background="new    " d="M148.507,39.373
		c1.161,0,2.106,1.005,2.106,2.236c0,1.235-0.945,2.238-2.106,2.238c-1.164,0-2.106-1.003-2.106-2.238
		C146.4,40.378,147.343,39.373,148.507,39.373z"/>
	
		<ellipse fill="none" stroke="#799EAD" stroke-width="0.5" stroke-miterlimit="10" enable-background="new    " cx="162.531" cy="34.846" rx="2.106" ry="2.238"/>
	
		<ellipse fill="none" stroke="#799EAD" stroke-width="0.5" stroke-miterlimit="10" enable-background="new    " cx="148.507" cy="42.308" rx="2.106" ry="2.237"/>
	<path fill="none" stroke="#799EAD" stroke-width="0.5" stroke-miterlimit="10" enable-background="new    " d="M13.155,77.873
		c1.16,0,2.103,1.004,2.103,2.237c0,1.24-0.943,2.235-2.103,2.235c-1.166,0-2.109-0.995-2.109-2.235
		C11.045,78.877,11.989,77.873,13.155,77.873z"/>
	<path fill="none" stroke="#799EAD" stroke-width="0.5" stroke-miterlimit="10" enable-background="new    " d="M13.152,77.874
		c1.163,0,2.106,1.004,2.106,2.236c0,1.241-0.944,2.239-2.106,2.239s-2.106-0.998-2.106-2.239
		C11.045,78.878,11.989,77.874,13.152,77.874z"/>
	<path fill="none" stroke="#799EAD" stroke-width="0.5" stroke-miterlimit="10" enable-background="new    " d="M94.96,44.739
		c1.168,0,2.109,1,2.109,2.234c0,1.241-0.941,2.238-2.109,2.238c-1.16,0-2.105-0.997-2.105-2.238
		C92.854,45.739,93.8,44.739,94.96,44.739z"/>
	
		<ellipse fill="none" stroke="#799EAD" stroke-width="0.5" stroke-miterlimit="10" enable-background="new    " cx="27.154" cy="75.914" rx="2.106" ry="2.238"/>
	
		<ellipse fill="none" stroke="#799EAD" stroke-width="0.5" stroke-miterlimit="10" enable-background="new    " cx="148.507" cy="42.308" rx="2.106" ry="2.237"/>
	<path fill="none" stroke="#799EAD" stroke-width="0.5" stroke-miterlimit="10" enable-background="new    " d="M13.151,78.11
		c1.164,0,2.107,0.998,2.107,2.238c0,1.233-0.944,2.236-2.107,2.236c-1.163,0-2.105-1.003-2.105-2.236
		C11.045,79.108,11.988,78.11,13.151,78.11z"/>
	
		<ellipse fill="none" stroke="#799EAD" stroke-width="0.5" stroke-miterlimit="10" enable-background="new    " cx="27.153" cy="76.612" rx="2.106" ry="2.238"/>
	
		<ellipse fill="none" stroke="#799EAD" stroke-width="0.5" stroke-miterlimit="10" enable-background="new    " cx="13.151" cy="80.579" rx="2.107" ry="2.237"/>
	<path fill="none" stroke="#799EAD" stroke-width="0.5" stroke-miterlimit="10" enable-background="new    " d="M162.527,33.068
		c1.166,0,2.111,1.004,2.111,2.241s-0.945,2.24-2.111,2.24c-1.161,0-2.102-1.003-2.102-2.24S161.366,33.068,162.527,33.068z"/>
	
		<ellipse fill="none" stroke="#799EAD" stroke-width="0.5" stroke-miterlimit="10" enable-background="new    " cx="27.152" cy="77.081" rx="2.106" ry="2.236"/>
	<path fill="none" stroke="#799EAD" stroke-width="0.5" stroke-miterlimit="10" enable-background="new    " d="M148.507,42.173
		c1.164,0,2.106,1.003,2.106,2.238c0,1.232-0.942,2.241-2.106,2.241c-1.162,0-2.106-1.009-2.106-2.241
		C146.4,43.176,147.345,42.173,148.507,42.173z"/>
	<path fill="none" stroke="#799EAD" stroke-width="0.5" stroke-miterlimit="10" enable-background="new    " d="M13.152,78.571
		c1.163,0,2.106,1.007,2.106,2.242c0,1.232-0.944,2.238-2.106,2.238s-2.106-1.006-2.106-2.238
		C11.045,79.578,11.989,78.571,13.152,78.571z"/>
	<path fill="none" stroke="#799EAD" stroke-width="0.5" stroke-miterlimit="10" enable-background="new    " d="M13.153,79.505
		c1.163,0,2.105,1.003,2.105,2.241c0,1.231-0.942,2.231-2.105,2.231c-1.163,0-2.107-1-2.107-2.231
		C11.045,80.508,11.99,79.505,13.153,79.505z"/>
	<path fill="none" stroke="#799EAD" stroke-width="0.5" stroke-miterlimit="10" enable-background="new    " d="M148.508,42.637
		c1.165,0,2.106,1.003,2.106,2.236c0,1.242-0.941,2.24-2.106,2.24c-1.164,0-2.108-0.998-2.108-2.24
		C146.399,43.64,147.344,42.637,148.508,42.637z"/>
	
		<ellipse fill="none" stroke="#799EAD" stroke-width="0.5" stroke-miterlimit="10" enable-background="new    " cx="162.532" cy="36.477" rx="2.106" ry="2.238"/>
	<path fill="none" stroke="#799EAD" stroke-width="0.5" stroke-miterlimit="10" enable-background="new    " d="M148.508,43.107
		c1.161,0,2.104,1,2.104,2.237c0,1.235-0.943,2.235-2.104,2.235c-1.167,0-2.106-1-2.106-2.235
		C146.401,44.107,147.341,43.107,148.508,43.107z"/>
	
		<ellipse fill="none" stroke="#799EAD" stroke-width="0.5" stroke-miterlimit="10" enable-background="new    " cx="148.505" cy="45.346" rx="2.107" ry="2.238"/>
	
		<ellipse fill="none" stroke="#799EAD" stroke-width="0.5" stroke-miterlimit="10" enable-background="new    " cx="162.53" cy="37.644" rx="2.109" ry="2.237"/>
	<path fill="none" stroke="#799EAD" stroke-width="0.5" stroke-miterlimit="10" enable-background="new    " d="M162.534,34.708
		c1.162,0,2.103,1.001,2.103,2.237c0,1.234-0.94,2.236-2.103,2.236c-1.164,0-2.106-1.002-2.106-2.236
		C160.428,35.709,161.37,34.708,162.534,34.708z"/>
	<path fill="none" stroke="#799EAD" stroke-width="0.5" stroke-miterlimit="10" enable-background="new    " d="M162.532,36.103
		c1.166,0,2.106,1.003,2.106,2.24c0,1.233-0.94,2.232-2.106,2.232c-1.164,0-2.106-0.999-2.106-2.232
		C160.426,37.105,161.368,36.103,162.532,36.103z"/>
	
		<ellipse fill="none" stroke="#799EAD" stroke-width="0.5" stroke-miterlimit="10" enable-background="new    " cx="80.768" cy="54.212" rx="2.107" ry="2.237"/>
	<path fill="none" stroke="#799EAD" stroke-width="0.5" stroke-miterlimit="10" enable-background="new    " d="M27.153,75.309
		c1.163,0,2.104,1.003,2.104,2.236c0,1.232-0.941,2.237-2.104,2.237c-1.162,0-2.105-1.005-2.105-2.237
		C25.048,76.312,25.991,75.309,27.153,75.309z"/>
	<path fill="none" stroke="#799EAD" stroke-width="0.5" stroke-miterlimit="10" enable-background="new    " d="M27.15,75.775
		c1.167,0,2.111,1.003,2.111,2.236s-0.944,2.237-2.111,2.237c-1.162,0-2.106-1.004-2.106-2.237S25.988,75.775,27.15,75.775z"/>
	<path fill="none" stroke="#799EAD" stroke-width="0.5" stroke-miterlimit="10" enable-background="new    " d="M148.502,43.342
		c1.169,0,2.111,1,2.111,2.235c0,1.234-0.942,2.237-2.111,2.237c-1.161,0-2.102-1.003-2.102-2.237
		C146.4,44.342,147.341,43.342,148.502,43.342z"/>
	<path fill="none" stroke="#799EAD" stroke-width="0.5" stroke-miterlimit="10" enable-background="new    " d="M162.528,37.274
		c1.164,0,2.111,1.004,2.111,2.233c0,1.237-0.947,2.24-2.111,2.24c-1.162,0-2.104-1.003-2.104-2.24
		C160.425,38.278,161.366,37.274,162.528,37.274z"/>
	
		<ellipse fill="none" stroke="#799EAD" stroke-width="0.5" stroke-miterlimit="10" enable-background="new    " cx="27.152" cy="78.247" rx="2.107" ry="2.236"/>
	<path fill="none" stroke="#799EAD" stroke-width="0.5" stroke-miterlimit="10" enable-background="new    " d="M94.964,45.211
		c1.159,0,2.104,1,2.104,2.234c0,1.237-0.945,2.238-2.104,2.238c-1.166,0-2.108-1.001-2.108-2.238
		C92.855,46.211,93.798,45.211,94.964,45.211z"/>
	<path fill="none" stroke="#799EAD" stroke-width="0.5" stroke-miterlimit="10" enable-background="new    " d="M148.507,43.806
		c1.164,0,2.106,1.006,2.106,2.24c0,1.233-0.942,2.236-2.106,2.236s-2.106-1.003-2.106-2.236
		C146.4,44.812,147.343,43.806,148.507,43.806z"/>
	<path fill="none" stroke="#799EAD" stroke-width="0.5" stroke-miterlimit="10" enable-background="new    " d="M80.769,52.205
		c1.163,0,2.106,1.003,2.106,2.235c0,1.238-0.943,2.239-2.106,2.239c-1.164,0-2.107-1.001-2.107-2.239
		C78.662,53.208,79.605,52.205,80.769,52.205z"/>
	
		<ellipse fill="none" stroke="#799EAD" stroke-width="0.5" stroke-miterlimit="10" enable-background="new    " cx="94.963" cy="47.678" rx="2.104" ry="2.236"/>
	<path fill="none" stroke="#799EAD" stroke-width="0.5" stroke-miterlimit="10" enable-background="new    " d="M27.15,76.242
		c1.167,0,2.111,1,2.111,2.236s-0.944,2.237-2.111,2.237c-1.163,0-2.106-1.001-2.106-2.237S25.987,76.242,27.15,76.242z"/>
	<path fill="none" stroke="#799EAD" stroke-width="0.5" stroke-miterlimit="10" enable-background="new    " d="M13.151,79.505
		c1.164,0,2.107,1.003,2.107,2.241c0,1.233-0.943,2.235-2.107,2.235c-1.163,0-2.106-1.002-2.106-2.235
		C11.045,80.508,11.989,79.505,13.151,79.505z"/>
	<path fill="none" stroke="#799EAD" stroke-width="0.5" stroke-miterlimit="10" enable-background="new    " d="M13.154,79.74
		c1.165,0,2.104,1.003,2.104,2.24c0,1.233-0.939,2.236-2.104,2.236s-2.108-1.003-2.108-2.236
		C11.045,80.743,11.989,79.74,13.154,79.74z"/>
	<path fill="none" stroke="#799EAD" stroke-width="0.5" stroke-miterlimit="10" enable-background="new    " d="M162.531,37.738
		c1.167,0,2.108,1,2.108,2.239c0,1.233-0.941,2.233-2.108,2.233c-1.161,0-2.106-1-2.106-2.233
		C160.425,38.738,161.37,37.738,162.531,37.738z"/>
	<path fill="none" stroke="#799EAD" stroke-width="0.5" stroke-miterlimit="10" enable-background="new    " d="M94.963,45.904
		c1.157,0,2.104,1.006,2.104,2.239c0,1.234-0.947,2.237-2.104,2.237c-1.169,0-2.106-1.003-2.106-2.237
		C92.856,46.91,93.794,45.904,94.963,45.904z"/>
	
		<ellipse fill="none" stroke="#799EAD" stroke-width="0.5" stroke-miterlimit="10" enable-background="new    " cx="148.507" cy="46.743" rx="2.106" ry="2.236"/>
	
		<ellipse fill="none" stroke="#799EAD" stroke-width="0.5" stroke-miterlimit="10" enable-background="new    " cx="80.769" cy="54.443" rx="2.106" ry="2.238"/>
	<path fill="none" stroke="#799EAD" stroke-width="0.5" stroke-miterlimit="10" enable-background="new    " d="M94.964,45.904
		c1.16,0,2.103,1.006,2.103,2.239c0,1.234-0.942,2.237-2.103,2.237c-1.168,0-2.106-1.003-2.106-2.237
		C92.857,46.91,93.796,45.904,94.964,45.904z"/>
	
		<ellipse fill="none" stroke="#799EAD" stroke-width="0.5" stroke-miterlimit="10" enable-background="new    " cx="94.962" cy="48.381" rx="2.106" ry="2.237"/>
	
		<ellipse fill="none" stroke="#799EAD" stroke-width="0.5" stroke-miterlimit="10" enable-background="new    " cx="27.152" cy="78.479" rx="2.106" ry="2.237"/>
	<path fill="none" stroke="#799EAD" stroke-width="0.5" stroke-miterlimit="10" enable-background="new    " d="M13.151,79.978
		c1.164,0,2.107,0.999,2.107,2.233c0,1.24-0.943,2.24-2.107,2.24c-1.163,0-2.105-1-2.105-2.24
		C11.045,80.977,11.988,79.978,13.151,79.978z"/>
	<path fill="none" stroke="#799EAD" stroke-width="0.5" stroke-miterlimit="10" enable-background="new    " d="M80.77,52.438
		c1.162,0,2.105,1.007,2.105,2.238c0,1.237-0.943,2.24-2.105,2.24c-1.164,0-2.107-1.003-2.107-2.24
		C78.662,53.444,79.606,52.438,80.77,52.438z"/>
	
		<ellipse fill="none" stroke="#799EAD" stroke-width="0.5" stroke-miterlimit="10" enable-background="new    " cx="80.768" cy="54.677" rx="2.106" ry="2.239"/>
	
		<ellipse fill="none" stroke="#799EAD" stroke-width="0.5" stroke-miterlimit="10" enable-background="new    " cx="13.153" cy="82.447" rx="2.106" ry="2.236"/>
	<path fill="none" stroke="#799EAD" stroke-width="0.5" stroke-miterlimit="10" enable-background="new    " d="M27.152,76.709
		c1.163,0,2.106,1.004,2.106,2.236c0,1.236-0.943,2.238-2.106,2.238c-1.164,0-2.106-1.002-2.106-2.238
		C25.046,77.713,25.989,76.709,27.152,76.709z"/>
	
		<ellipse fill="none" stroke="#799EAD" stroke-width="0.5" stroke-miterlimit="10" enable-background="new    " cx="80.768" cy="54.679" rx="2.107" ry="2.237"/>
	<path fill="none" stroke="#799EAD" stroke-width="0.5" stroke-miterlimit="10" enable-background="new    " d="M80.768,52.672
		c1.164,0,2.106,1.003,2.106,2.237c0,1.233-0.942,2.239-2.106,2.239c-1.162,0-2.105-1.006-2.105-2.239
		C78.663,53.675,79.606,52.672,80.768,52.672z"/>
	
		<ellipse fill="none" stroke="#799EAD" stroke-width="0.5" stroke-miterlimit="10" enable-background="new    " cx="94.964" cy="48.842" rx="2.105" ry="2.236"/>
	<path fill="none" stroke="#799EAD" stroke-width="0.5" stroke-miterlimit="10" enable-background="new    " d="M80.769,52.909
		c1.164,0,2.106,1.005,2.106,2.236c0,1.235-0.942,2.238-2.106,2.238c-1.163,0-2.106-1.003-2.106-2.238
		C78.662,53.914,79.605,52.909,80.769,52.909z"/>
	
		<ellipse fill="none" stroke="#799EAD" stroke-width="0.5" stroke-miterlimit="10" enable-background="new    " cx="94.962" cy="48.842" rx="2.106" ry="2.236"/>
	
		<ellipse fill="none" stroke="#799EAD" stroke-width="0.5" stroke-miterlimit="10" enable-background="new    " cx="80.768" cy="55.376" rx="2.107" ry="2.236"/>
	<path fill="none" stroke="#799EAD" stroke-width="0.5" stroke-miterlimit="10" enable-background="new    " d="M27.153,76.709
		c1.162,0,2.105,1.004,2.105,2.236c0,1.236-0.943,2.238-2.105,2.238c-1.164,0-2.107-1.002-2.107-2.238
		C25.046,77.713,25.989,76.709,27.153,76.709z"/>
	
		<ellipse fill="none" stroke="#799EAD" stroke-width="0.5" stroke-miterlimit="10" enable-background="new    " cx="162.533" cy="40.676" rx="2.106" ry="2.237"/>
	<path fill="none" stroke="#799EAD" stroke-width="0.5" stroke-miterlimit="10" enable-background="new    " d="M94.962,47.538
		c1.167,0,2.107,1.004,2.107,2.237c0,1.235-0.94,2.238-2.107,2.238c-1.164,0-2.107-1.003-2.107-2.238
		C92.854,48.542,93.798,47.538,94.962,47.538z"/>
	
		<ellipse fill="none" stroke="#799EAD" stroke-width="0.5" stroke-miterlimit="10" enable-background="new    " cx="27.153" cy="79.178" rx="2.105" ry="2.238"/>
	<path fill="none" stroke="#799EAD" stroke-width="0.5" stroke-miterlimit="10" enable-background="new    " d="M162.536,38.906
		c1.166,0,2.102,1.004,2.102,2.236c0,1.234-0.936,2.237-2.102,2.237c-1.164,0-2.109-1.003-2.109-2.237
		C160.427,39.91,161.372,38.906,162.536,38.906z"/>
	
		<ellipse fill="none" stroke="#799EAD" stroke-width="0.5" stroke-miterlimit="10" enable-background="new    " cx="27.153" cy="79.414" rx="2.106" ry="2.237"/>
	
		<ellipse fill="none" stroke="#799EAD" stroke-width="0.5" stroke-miterlimit="10" enable-background="new    " cx="94.963" cy="50.479" rx="2.106" ry="2.239"/>
	
		<ellipse fill="none" stroke="#799EAD" stroke-width="0.5" stroke-miterlimit="10" enable-background="new    " cx="162.53" cy="41.377" rx="2.108" ry="2.236"/>
	<path fill="none" stroke="#799EAD" stroke-width="0.5" stroke-miterlimit="10" enable-background="new    " d="M13.155,80.44
		c1.16,0,2.104,1.003,2.104,2.24c0,1.235-0.943,2.238-2.104,2.238c-1.166,0-2.109-1.003-2.109-2.238
		C11.045,81.443,11.989,80.44,13.155,80.44z"/>
	
		<ellipse fill="none" stroke="#799EAD" stroke-width="0.5" stroke-miterlimit="10" enable-background="new    " cx="27.152" cy="79.88" rx="2.107" ry="2.237"/>
	<path fill="none" stroke="#799EAD" stroke-width="0.5" stroke-miterlimit="10" enable-background="new    " d="M80.766,53.141
		c1.166,0,2.108,1.001,2.108,2.236c0,1.237-0.943,2.238-2.108,2.238c-1.16,0-2.103-1.001-2.103-2.238
		C78.663,54.142,79.605,53.141,80.766,53.141z"/>
	<path fill="none" stroke="#799EAD" stroke-width="0.5" stroke-miterlimit="10" enable-background="new    " d="M148.505,44.507
		c1.161,0,2.106,1.001,2.106,2.238c0,1.234-0.945,2.234-2.106,2.234c-1.165,0-2.103-1-2.103-2.234
		C146.402,45.508,147.34,44.507,148.505,44.507z"/>
	<path fill="none" stroke="#799EAD" stroke-width="0.5" stroke-miterlimit="10" enable-background="new    " d="M80.768,53.373
		c1.164,0,2.107,1.007,2.107,2.236c0,1.238-0.944,2.241-2.107,2.241c-1.166,0-2.105-1.003-2.105-2.241
		C78.662,54.38,79.602,53.373,80.768,53.373z"/>
	
		<ellipse fill="none" stroke="#799EAD" stroke-width="0.5" stroke-miterlimit="10" enable-background="new    " cx="148.508" cy="46.743" rx="2.104" ry="2.236"/>
	
		<ellipse fill="none" stroke="#799EAD" stroke-width="0.5" stroke-miterlimit="10" enable-background="new    " cx="148.507" cy="47.211" rx="2.106" ry="2.236"/>
	<path fill="none" stroke="#799EAD" stroke-width="0.5" stroke-miterlimit="10" enable-background="new    " d="M94.964,48.941
		c1.16,0,2.103,1.002,2.103,2.236c0,1.233-0.942,2.236-2.103,2.236c-1.164,0-2.106-1.003-2.106-2.236
		C92.857,49.943,93.8,48.941,94.964,48.941z"/>
	
		<ellipse fill="none" stroke="#799EAD" stroke-width="0.5" stroke-miterlimit="10" enable-background="new    " cx="80.768" cy="55.844" rx="2.106" ry="2.236"/>
	
		<ellipse fill="none" stroke="#799EAD" stroke-width="0.5" stroke-miterlimit="10" enable-background="new    " cx="162.532" cy="42.308" rx="2.106" ry="2.237"/>
	<path fill="none" stroke="#799EAD" stroke-width="0.5" stroke-miterlimit="10" enable-background="new    " d="M94.963,49.408
		c1.162,0,2.104,0.999,2.104,2.237c0,1.233-0.942,2.235-2.104,2.235c-1.164,0-2.106-1.002-2.106-2.235
		C92.856,50.407,93.799,49.408,94.963,49.408z"/>
	
		<ellipse fill="none" stroke="#799EAD" stroke-width="0.5" stroke-miterlimit="10" enable-background="new    " cx="148.507" cy="47.211" rx="2.106" ry="2.236"/>
	
		<ellipse fill="none" stroke="#799EAD" stroke-width="0.5" stroke-miterlimit="10" enable-background="new    " cx="148.507" cy="48.145" rx="2.106" ry="2.236"/>
	<path fill="none" stroke="#799EAD" stroke-width="0.5" stroke-miterlimit="10" enable-background="new    " d="M13.149,80.679
		c1.166,0,2.109,1,2.109,2.237c0,1.231-0.943,2.235-2.109,2.235s-2.104-1.004-2.104-2.235
		C11.045,81.679,11.983,80.679,13.149,80.679z"/>
	<path fill="none" stroke="#799EAD" stroke-width="0.5" stroke-miterlimit="10" enable-background="new    " d="M148.509,46.144
		c1.159,0,2.103,0.997,2.103,2.231c0,1.241-0.943,2.241-2.103,2.241c-1.166,0-2.106-1-2.106-2.241
		C146.402,47.141,147.343,46.144,148.509,46.144z"/>
	<path fill="none" stroke="#799EAD" stroke-width="0.5" stroke-miterlimit="10" enable-background="new    " d="M80.765,54.073
		c1.167,0,2.109,1.003,2.109,2.237c0,1.236-0.942,2.238-2.109,2.238c-1.16,0-2.103-1.002-2.103-2.238
		C78.663,55.076,79.605,54.073,80.765,54.073z"/>
	<path fill="none" stroke="#799EAD" stroke-width="0.5" stroke-miterlimit="10" enable-background="new    " d="M148.503,47.306
		c1.166,0,2.111,1.003,2.111,2.237c0,1.236-0.945,2.241-2.111,2.241c-1.158,0-2.104-1.005-2.104-2.241
		C146.399,48.309,147.345,47.306,148.503,47.306z"/>
	<path fill="none" stroke="#799EAD" stroke-width="0.5" stroke-miterlimit="10" enable-background="new    " d="M13.155,80.907
		c1.16,0,2.104,1.004,2.104,2.237c0,1.234-0.943,2.235-2.104,2.235c-1.166,0-2.109-1.001-2.109-2.235
		C11.045,81.911,11.989,80.907,13.155,80.907z"/>
	<path fill="none" stroke="#799EAD" stroke-width="0.5" stroke-miterlimit="10" enable-background="new    " d="M94.964,49.408
		c1.164,0,2.105,0.999,2.105,2.237c0,1.233-0.941,2.235-2.105,2.235c-1.162,0-2.109-1.002-2.109-2.235
		C92.854,50.407,93.802,49.408,94.964,49.408z"/>
	
		<ellipse fill="none" stroke="#799EAD" stroke-width="0.5" stroke-miterlimit="10" enable-background="new    " cx="80.768" cy="56.778" rx="2.107" ry="2.238"/>
	<path fill="none" stroke="#799EAD" stroke-width="0.5" stroke-miterlimit="10" enable-background="new    " d="M148.509,47.772
		c1.16,0,2.105,1.006,2.105,2.241c0,1.234-0.945,2.237-2.105,2.237c-1.166,0-2.109-1.003-2.109-2.237
		C146.399,48.778,147.343,47.772,148.509,47.772z"/>
	
		<ellipse fill="none" stroke="#799EAD" stroke-width="0.5" stroke-miterlimit="10" enable-background="new    " cx="13.151" cy="83.144" rx="2.107" ry="2.236"/>
	
		<ellipse fill="none" stroke="#799EAD" stroke-width="0.5" stroke-miterlimit="10" enable-background="new    " cx="80.768" cy="56.778" rx="2.107" ry="2.238"/>
	
		<ellipse fill="none" stroke="#799EAD" stroke-width="0.5" stroke-miterlimit="10" enable-background="new    " cx="13.153" cy="83.144" rx="2.105" ry="2.236"/>
	
		<ellipse fill="none" stroke="#799EAD" stroke-width="0.5" stroke-miterlimit="10" enable-background="new    " cx="94.963" cy="52.113" rx="2.104" ry="2.237"/>
	<path fill="none" stroke="#799EAD" stroke-width="0.5" stroke-miterlimit="10" enable-background="new    " d="M94.962,50.107
		c1.166,0,2.107,1.002,2.107,2.236c0,1.24-0.941,2.24-2.107,2.24c-1.164,0-2.107-1-2.107-2.24
		C92.854,51.109,93.798,50.107,94.962,50.107z"/>
	
		<ellipse fill="none" stroke="#799EAD" stroke-width="0.5" stroke-miterlimit="10" enable-background="new    " cx="80.767" cy="56.778" rx="2.108" ry="2.238"/>
	<path fill="none" stroke="#799EAD" stroke-width="0.5" stroke-miterlimit="10" enable-background="new    " d="M80.768,54.771
		c1.164,0,2.107,1.001,2.107,2.24c0,1.233-0.943,2.236-2.107,2.236c-1.163,0-2.106-1.003-2.106-2.236
		C78.662,55.772,79.605,54.771,80.768,54.771z"/>
	
		<ellipse fill="none" stroke="#799EAD" stroke-width="0.5" stroke-miterlimit="10" enable-background="new    " cx="162.534" cy="42.752" rx="2.105" ry="2.236"/>
	
		<ellipse fill="none" stroke="#799EAD" stroke-width="0.5" stroke-miterlimit="10" enable-background="new    " cx="13.152" cy="83.144" rx="2.106" ry="2.236"/>
	<path fill="none" stroke="#799EAD" stroke-width="0.5" stroke-miterlimit="10" enable-background="new    " d="M148.506,47.988
		c1.164,0,2.108,1.001,2.108,2.24c0,1.234-0.944,2.237-2.108,2.237s-2.106-1.003-2.106-2.237
		C146.399,48.989,147.342,47.988,148.506,47.988z"/>
	
		<ellipse fill="none" stroke="#799EAD" stroke-width="0.5" stroke-miterlimit="10" enable-background="new    " cx="80.768" cy="57.246" rx="2.109" ry="2.237"/>
	
		<ellipse fill="none" stroke="#799EAD" stroke-width="0.5" stroke-miterlimit="10" enable-background="new    " cx="27.152" cy="79.88" rx="2.106" ry="2.237"/>
	
		<ellipse fill="none" stroke="#799EAD" stroke-width="0.5" stroke-miterlimit="10" enable-background="new    " cx="94.963" cy="52.811" rx="2.104" ry="2.237"/>
	
		<ellipse fill="none" stroke="#799EAD" stroke-width="0.5" stroke-miterlimit="10" enable-background="new    " cx="13.153" cy="83.61" rx="2.105" ry="2.238"/>
	
		<ellipse fill="none" stroke="#799EAD" stroke-width="0.5" stroke-miterlimit="10" enable-background="new    " cx="27.153" cy="79.88" rx="2.105" ry="2.237"/>
	<path fill="none" stroke="#799EAD" stroke-width="0.5" stroke-miterlimit="10" enable-background="new    " d="M162.535,40.776
		c1.161,0,2.104,1.003,2.104,2.237c0,1.231-0.942,2.235-2.104,2.235c-1.164,0-2.109-1.004-2.109-2.235
		C160.426,41.779,161.371,40.776,162.535,40.776z"/>
	<path fill="none" stroke="#799EAD" stroke-width="0.5" stroke-miterlimit="10" enable-background="new    " d="M94.964,50.803
		c1.162,0,2.105,1.004,2.105,2.241c0,1.236-0.943,2.239-2.105,2.239c-1.166,0-2.109-1.003-2.109-2.239
		C92.854,51.807,93.798,50.803,94.964,50.803z"/>
	<path fill="none" stroke="#799EAD" stroke-width="0.5" stroke-miterlimit="10" enable-background="new    " d="M27.152,78.331
		c1.165,0,2.107,1,2.107,2.238c0,1.234-0.942,2.234-2.107,2.234c-1.161,0-2.106-1-2.106-2.234
		C25.046,79.331,25.991,78.331,27.152,78.331z"/>
	<path fill="none" stroke="#799EAD" stroke-width="0.5" stroke-miterlimit="10" enable-background="new    " d="M162.533,41.694
		c1.162,0,2.104,1.003,2.104,2.237c0,1.238-0.942,2.236-2.104,2.236c-1.164,0-2.106-0.998-2.106-2.236
		C160.427,42.697,161.369,41.694,162.533,41.694z"/>
	
		<ellipse fill="none" stroke="#799EAD" stroke-width="0.5" stroke-miterlimit="10" enable-background="new    " cx="80.771" cy="57.705" rx="2.103" ry="2.236"/>
	
		<ellipse fill="none" stroke="#799EAD" stroke-width="0.5" stroke-miterlimit="10" enable-background="new    " cx="94.962" cy="53.271" rx="2.106" ry="2.238"/>
	
		<ellipse fill="none" stroke="#799EAD" stroke-width="0.5" stroke-miterlimit="10" enable-background="new    " cx="27.151" cy="81.022" rx="2.107" ry="2.236"/>
	
		<ellipse fill="none" stroke="#799EAD" stroke-width="0.5" stroke-miterlimit="10" enable-background="new    " cx="148.507" cy="50.692" rx="2.106" ry="2.237"/>
	<path fill="none" stroke="#799EAD" stroke-width="0.5" stroke-miterlimit="10" enable-background="new    " d="M162.53,42.863
		c1.166,0,2.108,1.003,2.108,2.24c0,1.235-0.942,2.236-2.108,2.236c-1.159,0-2.104-1.001-2.104-2.236
		C160.426,43.866,161.371,42.863,162.53,42.863z"/>
	<path fill="none" stroke="#799EAD" stroke-width="0.5" stroke-miterlimit="10" enable-background="new    " d="M94.963,51.493
		c1.161,0,2.106,0.998,2.106,2.236c0,1.233-0.945,2.236-2.106,2.236c-1.164,0-2.108-1.003-2.108-2.236
		C92.854,52.491,93.799,51.493,94.963,51.493z"/>
	<path fill="none" stroke="#799EAD" stroke-width="0.5" stroke-miterlimit="10" enable-background="new    " d="M80.77,55.92
		c1.164,0,2.104,1.003,2.104,2.238c0,1.234-0.94,2.234-2.104,2.234c-1.166,0-2.106-1-2.106-2.234
		C78.664,56.923,79.604,55.92,80.77,55.92z"/>
	
		<ellipse fill="none" stroke="#799EAD" stroke-width="0.5" stroke-miterlimit="10" enable-background="new    " cx="80.769" cy="58.63" rx="2.106" ry="2.238"/>
	
		<ellipse fill="none" stroke="#799EAD" stroke-width="0.5" stroke-miterlimit="10" enable-background="new    " cx="13.15" cy="83.842" rx="2.109" ry="2.236"/>
	<path fill="none" stroke="#799EAD" stroke-width="0.5" stroke-miterlimit="10" enable-background="new    " d="M13.155,81.605
		c1.16,0,2.104,1.002,2.104,2.236c0,1.235-0.943,2.236-2.104,2.236c-1.167,0-2.109-1.001-2.109-2.236
		C11.045,82.607,11.988,81.605,13.155,81.605z"/>
	
		<ellipse fill="none" stroke="#799EAD" stroke-width="0.5" stroke-miterlimit="10" enable-background="new    " cx="162.532" cy="45.111" rx="2.106" ry="2.236"/>
	
		<ellipse fill="none" stroke="#799EAD" stroke-width="0.5" stroke-miterlimit="10" enable-background="new    " cx="27.153" cy="81.027" rx="2.106" ry="2.236"/>
	
		<ellipse fill="none" stroke="#799EAD" stroke-width="0.5" stroke-miterlimit="10" enable-background="new    " cx="80.769" cy="58.856" rx="2.106" ry="2.238"/>
	
		<ellipse fill="none" stroke="#799EAD" stroke-width="0.5" stroke-miterlimit="10" enable-background="new    " cx="94.962" cy="53.959" rx="2.106" ry="2.236"/>
	<path fill="none" stroke="#799EAD" stroke-width="0.5" stroke-miterlimit="10" enable-background="new    " d="M80.771,56.634
		c1.163,0,2.104,1.002,2.104,2.236c0,1.237-0.94,2.24-2.104,2.24c-1.167,0-2.109-1.003-2.109-2.24
		C78.662,57.636,79.605,56.634,80.771,56.634z"/>
	<path fill="none" stroke="#799EAD" stroke-width="0.5" stroke-miterlimit="10" enable-background="new    " d="M13.152,81.608
		c1.163,0,2.106,1.003,2.106,2.236c0,1.236-0.943,2.24-2.106,2.24c-1.164,0-2.107-1.004-2.107-2.24
		C11.045,82.611,11.989,81.608,13.152,81.608z"/>
	<path fill="none" stroke="#799EAD" stroke-width="0.5" stroke-miterlimit="10" enable-background="new    " d="M27.149,78.809
		c1.166,0,2.11,1.002,2.11,2.237c0,1.236-0.944,2.236-2.11,2.236c-1.163,0-2.103-1-2.103-2.236
		C25.046,79.811,25.986,78.809,27.149,78.809z"/>
	
		<ellipse fill="none" stroke="#799EAD" stroke-width="0.5" stroke-miterlimit="10" enable-background="new    " cx="148.507" cy="51.178" rx="2.106" ry="2.236"/>
	
		<ellipse fill="none" stroke="#799EAD" stroke-width="0.5" stroke-miterlimit="10" enable-background="new    " cx="162.533" cy="46.026" rx="2.106" ry="2.238"/>
	<path fill="none" stroke="#799EAD" stroke-width="0.5" stroke-miterlimit="10" enable-background="new    " d="M94.957,52.428
		c1.167,0,2.111,1,2.111,2.237c0,1.232-0.944,2.235-2.111,2.235c-1.164,0-2.102-1.003-2.102-2.235
		C92.855,53.428,93.793,52.428,94.957,52.428z"/>
	
		<ellipse fill="none" stroke="#799EAD" stroke-width="0.5" stroke-miterlimit="10" enable-background="new    " cx="27.15" cy="81.278" rx="2.107" ry="2.24"/>
	
		<ellipse fill="none" stroke="#799EAD" stroke-width="0.5" stroke-miterlimit="10" enable-background="new    " cx="80.771" cy="58.876" rx="2.105" ry="2.236"/>
	
		<ellipse fill="none" stroke="#799EAD" stroke-width="0.5" stroke-miterlimit="10" enable-background="new    " cx="94.962" cy="55.123" rx="2.106" ry="2.236"/>
	
		<ellipse fill="none" stroke="#799EAD" stroke-width="0.5" stroke-miterlimit="10" enable-background="new    " cx="80.767" cy="59.323" rx="2.109" ry="2.238"/>
	<path fill="none" stroke="#799EAD" stroke-width="0.5" stroke-miterlimit="10" enable-background="new    " d="M162.531,45.189
		c1.166,0,2.109,1.003,2.109,2.234c0,1.238-0.943,2.238-2.109,2.238c-1.162,0-2.107-1-2.107-2.238
		C160.424,46.192,161.369,45.189,162.531,45.189z"/>
	
		<ellipse fill="none" stroke="#799EAD" stroke-width="0.5" stroke-miterlimit="10" enable-background="new    " cx="148.508" cy="51.862" rx="2.104" ry="2.239"/>
	
		<ellipse fill="none" stroke="#799EAD" stroke-width="0.5" stroke-miterlimit="10" enable-background="new    " cx="27.151" cy="81.489" rx="2.107" ry="2.236"/>
	<path fill="none" stroke="#799EAD" stroke-width="0.5" stroke-miterlimit="10" enable-background="new    " d="M13.152,81.835
		c1.163,0,2.107,1.004,2.107,2.235c0,1.237-0.944,2.237-2.107,2.237c-1.164,0-2.107-1-2.107-2.237
		C11.045,82.839,11.988,81.835,13.152,81.835z"/>
	
		<ellipse fill="none" stroke="#799EAD" stroke-width="0.5" stroke-miterlimit="10" enable-background="new    " cx="94.962" cy="55.356" rx="2.106" ry="2.238"/>
	
		<ellipse fill="none" stroke="#799EAD" stroke-width="0.5" stroke-miterlimit="10" enable-background="new    " cx="27.153" cy="81.727" rx="2.104" ry="2.238"/>
	<path fill="none" stroke="#799EAD" stroke-width="0.5" stroke-miterlimit="10" enable-background="new    " d="M27.152,79.492
		c1.164,0,2.106,0.996,2.106,2.234c0,1.235-0.943,2.238-2.106,2.238c-1.163,0-2.106-1.003-2.106-2.238
		C25.046,80.488,25.99,79.492,27.152,79.492z"/>
	<path fill="none" stroke="#799EAD" stroke-width="0.5" stroke-miterlimit="10" enable-background="new    " d="M13.151,81.84
		c1.163,0,2.106,1,2.106,2.238c0,1.234-0.944,2.234-2.106,2.234c-1.163,0-2.106-1-2.106-2.234
		C11.045,82.84,11.988,81.84,13.151,81.84z"/>
	<path fill="none" stroke="#799EAD" stroke-width="0.5" stroke-miterlimit="10" enable-background="new    " d="M13.152,82.067
		c1.163,0,2.106,1,2.106,2.238c0,1.237-0.943,2.234-2.106,2.234c-1.163,0-2.106-0.997-2.106-2.234
		C11.045,83.067,11.989,82.067,13.152,82.067z"/>
	
		<ellipse fill="none" stroke="#799EAD" stroke-width="0.5" stroke-miterlimit="10" enable-background="new    " cx="94.965" cy="55.599" rx="2.104" ry="2.236"/>
	<path fill="none" stroke="#799EAD" stroke-width="0.5" stroke-miterlimit="10" enable-background="new    " d="M27.153,79.505
		c1.166,0,2.105,1.003,2.105,2.241c0,1.231-0.939,2.231-2.105,2.231c-1.16,0-2.106-1-2.106-2.231
		C25.047,80.508,25.993,79.505,27.153,79.505z"/>
	<path fill="none" stroke="#799EAD" stroke-width="0.5" stroke-miterlimit="10" enable-background="new    " d="M148.503,49.631
		c1.167,0,2.109,1.003,2.109,2.237c0,1.236-0.942,2.237-2.109,2.237c-1.161,0-2.102-1.001-2.102-2.237
		C146.401,50.634,147.342,49.631,148.503,49.631z"/>
	
		<ellipse fill="none" stroke="#799EAD" stroke-width="0.5" stroke-miterlimit="10" enable-background="new    " cx="27.153" cy="81.98" rx="2.106" ry="2.237"/>
	
		<ellipse fill="none" stroke="#799EAD" stroke-width="0.5" stroke-miterlimit="10" enable-background="new    " cx="162.532" cy="47.893" rx="2.106" ry="2.236"/>
	
		<ellipse fill="none" stroke="#799EAD" stroke-width="0.5" stroke-miterlimit="10" enable-background="new    " cx="13.15" cy="84.531" rx="2.109" ry="2.236"/>
	<path fill="none" stroke="#799EAD" stroke-width="0.5" stroke-miterlimit="10" enable-background="new    " d="M94.962,53.6
		c1.164,0,2.107,1.006,2.107,2.236c0,1.241-0.943,2.239-2.107,2.239c-1.161,0-2.107-0.998-2.107-2.239
		C92.854,54.605,93.801,53.6,94.962,53.6z"/>
	
		<ellipse fill="none" stroke="#799EAD" stroke-width="0.5" stroke-miterlimit="10" enable-background="new    " cx="80.769" cy="59.333" rx="2.106" ry="2.238"/>
	
		<ellipse fill="none" stroke="#799EAD" stroke-width="0.5" stroke-miterlimit="10" enable-background="new    " cx="148.506" cy="52.578" rx="2.108" ry="2.239"/>
	<path fill="none" stroke="#799EAD" stroke-width="0.5" stroke-miterlimit="10" enable-background="new    " d="M80.766,57.101
		c1.166,0,2.109,1.004,2.109,2.235c0,1.235-0.943,2.237-2.109,2.237c-1.16,0-2.103-1.002-2.103-2.237
		C78.663,58.104,79.605,57.101,80.766,57.101z"/>
	<path fill="none" stroke="#799EAD" stroke-width="0.5" stroke-miterlimit="10" enable-background="new    " d="M13.151,82.303
		c1.164,0,2.107,1.003,2.107,2.234c0,1.238-0.943,2.238-2.107,2.238c-1.163,0-2.106-1-2.106-2.238
		C11.045,83.306,11.989,82.303,13.151,82.303z"/>
	
		<ellipse fill="none" stroke="#799EAD" stroke-width="0.5" stroke-miterlimit="10" enable-background="new    " cx="80.768" cy="59.343" rx="2.108" ry="2.236"/>
	<path fill="none" stroke="#799EAD" stroke-width="0.5" stroke-miterlimit="10" enable-background="new    " d="M27.151,79.963
		c1.166,0,2.109,0.997,2.109,2.235c0,1.234-0.944,2.237-2.109,2.237c-1.164,0-2.107-1.003-2.107-2.237
		C25.044,80.96,25.988,79.963,27.151,79.963z"/>
	<path fill="none" stroke="#799EAD" stroke-width="0.5" stroke-miterlimit="10" enable-background="new    " d="M80.769,57.106
		c1.167,0,2.106,1.003,2.106,2.237c0,1.235-0.94,2.235-2.106,2.235c-1.163,0-2.106-1-2.106-2.235
		C78.662,58.109,79.606,57.106,80.769,57.106z"/>
	
		<ellipse fill="none" stroke="#799EAD" stroke-width="0.5" stroke-miterlimit="10" enable-background="new    " cx="162.534" cy="48.122" rx="2.105" ry="2.237"/>
	<path fill="none" stroke="#799EAD" stroke-width="0.5" stroke-miterlimit="10" enable-background="new    " d="M27.153,79.978
		c1.162,0,2.104,0.999,2.104,2.233c0,1.24-0.942,2.24-2.104,2.24c-1.163,0-2.106-1-2.106-2.24
		C25.047,80.977,25.991,79.978,27.153,79.978z"/>
	
		<ellipse fill="none" stroke="#799EAD" stroke-width="0.5" stroke-miterlimit="10" enable-background="new    " cx="162.532" cy="48.368" rx="2.106" ry="2.236"/>
	
		<ellipse fill="none" stroke="#799EAD" stroke-width="0.5" stroke-miterlimit="10" enable-background="new    " cx="80.766" cy="59.567" rx="2.11" ry="2.236"/>
	<path fill="none" stroke="#799EAD" stroke-width="0.5" stroke-miterlimit="10" enable-background="new    " d="M162.531,46.603
		c1.164,0,2.108,0.999,2.108,2.235c0,1.237-0.944,2.237-2.108,2.237c-1.161,0-2.106-1-2.106-2.237
		C160.425,47.602,161.37,46.603,162.531,46.603z"/>
	<path fill="none" stroke="#799EAD" stroke-width="0.5" stroke-miterlimit="10" enable-background="new    " d="M13.152,82.303
		c1.163,0,2.106,1.003,2.106,2.235c0,1.238-0.943,2.241-2.106,2.241c-1.164,0-2.107-1.003-2.107-2.241
		C11.045,83.306,11.989,82.303,13.152,82.303z"/>
	<path fill="none" stroke="#799EAD" stroke-width="0.5" stroke-miterlimit="10" enable-background="new    " d="M13.149,82.308
		c1.165,0,2.108,1.005,2.108,2.238c0,1.234-0.943,2.237-2.108,2.237c-1.161,0-2.104-1.003-2.104-2.237
		C11.045,83.313,11.988,82.308,13.149,82.308z"/>
	<path fill="none" stroke="#799EAD" stroke-width="0.5" stroke-miterlimit="10" enable-background="new    " d="M27.155,80.426
		c1.161,0,2.104,1.001,2.104,2.238c0,1.231-0.943,2.234-2.104,2.234c-1.166,0-2.109-1.003-2.109-2.234
		C25.046,81.427,25.99,80.426,27.155,80.426z"/>
	
		<ellipse fill="none" stroke="#799EAD" stroke-width="0.5" stroke-miterlimit="10" enable-background="new    " cx="13.153" cy="84.762" rx="2.105" ry="2.236"/>
	<path fill="none" stroke="#799EAD" stroke-width="0.5" stroke-miterlimit="10" enable-background="new    " d="M80.768,57.561
		c1.164,0,2.107,1.003,2.107,2.235c0,1.238-0.943,2.241-2.107,2.241c-1.163,0-2.106-1.003-2.106-2.241
		C78.662,58.563,79.605,57.561,80.768,57.561z"/>
	<path fill="none" stroke="#799EAD" stroke-width="0.5" stroke-miterlimit="10" enable-background="new    " d="M80.772,57.561
		c1.16,0,2.103,1.003,2.103,2.235c0,1.238-0.943,2.241-2.103,2.241c-1.167,0-2.109-1.003-2.109-2.241
		C78.663,58.563,79.605,57.561,80.772,57.561z"/>
	<path fill="none" stroke="#799EAD" stroke-width="0.5" stroke-miterlimit="10" enable-background="new    " d="M162.531,46.605
		c1.164,0,2.106,1.001,2.106,2.236c0,1.24-0.942,2.236-2.106,2.236c-1.161,0-2.104-0.996-2.104-2.236
		C160.427,47.606,161.37,46.605,162.531,46.605z"/>
	
		<ellipse fill="none" stroke="#799EAD" stroke-width="0.5" stroke-miterlimit="10" enable-background="new    " cx="13.153" cy="84.777" rx="2.105" ry="2.237"/>
	
		<ellipse fill="none" stroke="#799EAD" stroke-width="0.5" stroke-miterlimit="10" enable-background="new    " cx="148.505" cy="52.795" rx="2.109" ry="2.237"/>
	<path fill="none" stroke="#799EAD" stroke-width="0.5" stroke-miterlimit="10" enable-background="new    " d="M80.769,57.801
		c1.163,0,2.106,1.003,2.106,2.237c0,1.233-0.943,2.239-2.106,2.239c-1.166,0-2.106-1.006-2.106-2.239
		C78.662,58.804,79.603,57.801,80.769,57.801z"/>
	
		<ellipse fill="none" stroke="#799EAD" stroke-width="0.5" stroke-miterlimit="10" enable-background="new    " cx="148.507" cy="52.797" rx="2.106" ry="2.239"/>
	
		<ellipse fill="none" stroke="#799EAD" stroke-width="0.5" stroke-miterlimit="10" enable-background="new    " cx="148.507" cy="53.268" rx="2.106" ry="2.239"/>
	<path fill="none" stroke="#799EAD" stroke-width="0.5" stroke-miterlimit="10" enable-background="new    " d="M148.504,51.029
		c1.165,0,2.11,1.006,2.11,2.24c0,1.237-0.945,2.237-2.11,2.237c-1.164,0-2.104-1-2.104-2.237
		C146.399,52.035,147.34,51.029,148.504,51.029z"/>
	
		<ellipse fill="none" stroke="#799EAD" stroke-width="0.5" stroke-miterlimit="10" enable-background="new    " cx="13.152" cy="85.006" rx="2.106" ry="2.236"/>
	
		<ellipse fill="none" stroke="#799EAD" stroke-width="0.5" stroke-miterlimit="10" enable-background="new    " cx="80.769" cy="60.278" rx="2.106" ry="2.237"/>
	<path fill="none" stroke="#799EAD" stroke-width="0.5" stroke-miterlimit="10" enable-background="new    " d="M148.505,51.271
		c1.165,0,2.107,1.003,2.107,2.239c0,1.233-0.942,2.233-2.107,2.233c-1.161,0-2.104-1-2.104-2.233
		C146.401,52.273,147.344,51.271,148.505,51.271z"/>
	<path fill="none" stroke="#799EAD" stroke-width="0.5" stroke-miterlimit="10" enable-background="new    " d="M148.505,51.5
		c1.165,0,2.107,1.002,2.107,2.236s-0.942,2.238-2.107,2.238c-1.161,0-2.104-1.004-2.104-2.238S147.344,51.5,148.505,51.5z"/>
	
		<ellipse fill="none" stroke="#799EAD" stroke-width="0.5" stroke-miterlimit="10" enable-background="new    " cx="13.152" cy="85.235" rx="2.106" ry="2.237"/>
	
		<ellipse fill="none" stroke="#799EAD" stroke-width="0.5" stroke-miterlimit="10" enable-background="new    " cx="94.962" cy="56.067" rx="2.106" ry="2.238"/>
	
		<ellipse fill="none" stroke="#799EAD" stroke-width="0.5" stroke-miterlimit="10" enable-background="new    " cx="80.766" cy="60.271" rx="2.111" ry="2.236"/>
	
		<ellipse fill="none" stroke="#799EAD" stroke-width="0.5" stroke-miterlimit="10" enable-background="new    " cx="148.509" cy="53.959" rx="2.104" ry="2.236"/>
	
		<ellipse fill="none" stroke="#799EAD" stroke-width="0.5" stroke-miterlimit="10" enable-background="new    " cx="94.962" cy="56.526" rx="2.106" ry="2.237"/>
	<path fill="none" stroke="#799EAD" stroke-width="0.5" stroke-miterlimit="10" enable-background="new    " d="M80.766,58.252
		c1.166,0,2.109,1.004,2.109,2.237c0,1.234-0.943,2.24-2.109,2.24c-1.163,0-2.104-1.006-2.104-2.24
		C78.662,59.256,79.603,58.252,80.766,58.252z"/>
	
		<ellipse fill="none" stroke="#799EAD" stroke-width="0.5" stroke-miterlimit="10" enable-background="new    " cx="13.152" cy="85.244" rx="2.106" ry="2.238"/>
	
		<ellipse fill="none" stroke="#799EAD" stroke-width="0.5" stroke-miterlimit="10" enable-background="new    " cx="13.152" cy="85.244" rx="2.106" ry="2.238"/>
	<path fill="none" stroke="#799EAD" stroke-width="0.5" stroke-miterlimit="10" enable-background="new    " d="M148.502,52.197
		c1.169,0,2.111,1.003,2.111,2.24s-0.942,2.236-2.111,2.236c-1.159,0-2.102-0.999-2.102-2.236S147.343,52.197,148.502,52.197z"/>
	<path fill="none" stroke="#799EAD" stroke-width="0.5" stroke-miterlimit="10" enable-background="new    " d="M13.154,83.236
		c1.163,0,2.106,1,2.106,2.235c0,1.237-0.944,2.237-2.106,2.237c-1.167,0-2.11-1-2.11-2.237
		C11.043,84.236,11.987,83.236,13.154,83.236z"/>
	
		<ellipse fill="none" stroke="#799EAD" stroke-width="0.5" stroke-miterlimit="10" enable-background="new    " cx="80.77" cy="60.746" rx="2.105" ry="2.236"/>
	
		<ellipse fill="none" stroke="#799EAD" stroke-width="0.5" stroke-miterlimit="10" enable-background="new    " cx="80.768" cy="60.501" rx="2.107" ry="2.238"/>
	
		<ellipse fill="none" stroke="#799EAD" stroke-width="0.5" stroke-miterlimit="10" enable-background="new    " cx="27.153" cy="82.665" rx="2.106" ry="2.235"/>
	
		<ellipse fill="none" stroke="#799EAD" stroke-width="0.5" stroke-miterlimit="10" enable-background="new    " cx="80.768" cy="61.213" rx="2.106" ry="2.236"/>
	
		<ellipse fill="none" stroke="#799EAD" stroke-width="0.5" stroke-miterlimit="10" enable-background="new    " cx="148.508" cy="54.442" rx="2.106" ry="2.237"/>
	
		<ellipse fill="none" stroke="#799EAD" stroke-width="0.5" stroke-miterlimit="10" enable-background="new    " cx="13.15" cy="85.712" rx="2.108" ry="2.236"/>
	<path fill="none" stroke="#799EAD" stroke-width="0.5" stroke-miterlimit="10" enable-background="new    " d="M162.531,47.058
		c1.164,0,2.108,1,2.108,2.237c0,1.232-0.944,2.236-2.108,2.236c-1.161,0-2.106-1.004-2.106-2.236
		C160.425,48.058,161.37,47.058,162.531,47.058z"/>
	
		<ellipse fill="none" stroke="#799EAD" stroke-width="0.5" stroke-miterlimit="10" enable-background="new    " cx="27.152" cy="83.13" rx="2.107" ry="2.236"/>
	<path fill="none" stroke="#799EAD" stroke-width="0.5" stroke-miterlimit="10" enable-background="new    " d="M80.765,59.421
		c1.167,0,2.11,1.002,2.11,2.237c0,1.238-0.943,2.236-2.11,2.236c-1.16,0-2.103-0.998-2.103-2.236
		C78.662,60.423,79.605,59.421,80.765,59.421z"/>
	
		<ellipse fill="none" stroke="#799EAD" stroke-width="0.5" stroke-miterlimit="10" enable-background="new    " cx="80.77" cy="61.673" rx="2.105" ry="2.236"/>
	
		<ellipse fill="none" stroke="#799EAD" stroke-width="0.5" stroke-miterlimit="10" enable-background="new    " cx="162.532" cy="49.531" rx="2.106" ry="2.237"/>
	<path fill="none" stroke="#799EAD" stroke-width="0.5" stroke-miterlimit="10" enable-background="new    " d="M80.764,59.659
		c1.167,0,2.11,1.007,2.11,2.239c0,1.234-0.944,2.24-2.11,2.24c-1.159,0-2.102-1.006-2.102-2.24
		C78.663,60.666,79.605,59.659,80.764,59.659z"/>
	<path fill="none" stroke="#799EAD" stroke-width="0.5" stroke-miterlimit="10" enable-background="new    " d="M148.505,52.428
		c1.164,0,2.106,1,2.106,2.234c0,1.235-0.942,2.238-2.106,2.238c-1.16,0-2.103-1.003-2.103-2.238
		C146.402,53.428,147.345,52.428,148.505,52.428z"/>
	
		<ellipse fill="none" stroke="#799EAD" stroke-width="0.5" stroke-miterlimit="10" enable-background="new    " cx="80.77" cy="61.908" rx="2.104" ry="2.239"/>
	
		<ellipse fill="none" stroke="#799EAD" stroke-width="0.5" stroke-miterlimit="10" enable-background="new    " cx="80.77" cy="61.911" rx="2.105" ry="2.236"/>
	<path fill="none" stroke="#799EAD" stroke-width="0.5" stroke-miterlimit="10" enable-background="new    " d="M148.508,52.438
		c1.162,0,2.104,1.007,2.104,2.238c0,1.237-0.942,2.24-2.104,2.24c-1.166,0-2.106-1.003-2.106-2.24
		C146.401,53.444,147.342,52.438,148.508,52.438z"/>
	
		<ellipse fill="none" stroke="#799EAD" stroke-width="0.5" stroke-miterlimit="10" enable-background="new    " cx="148.509" cy="54.893" rx="2.104" ry="2.236"/>
	<path fill="none" stroke="#799EAD" stroke-width="0.5" stroke-miterlimit="10" enable-background="new    " d="M13.152,83.689
		c1.163,0,2.106,0.998,2.106,2.236c0,1.234-0.943,2.236-2.106,2.236c-1.164,0-2.106-1.002-2.106-2.236
		C11.045,84.688,11.988,83.689,13.152,83.689z"/>
	<path fill="none" stroke="#799EAD" stroke-width="0.5" stroke-miterlimit="10" enable-background="new    " d="M13.152,83.695
		c1.163,0,2.106,1.004,2.106,2.241c0,1.232-0.943,2.235-2.106,2.235c-1.163,0-2.106-1.003-2.106-2.235
		C11.045,84.699,11.989,83.695,13.152,83.695z"/>
	<path fill="none" stroke="#799EAD" stroke-width="0.5" stroke-miterlimit="10" enable-background="new    " d="M13.154,83.942
		c1.163,0,2.106,1.001,2.106,2.235s-0.944,2.237-2.106,2.237c-1.167,0-2.11-1.003-2.11-2.237S11.987,83.942,13.154,83.942z"/>
	<path fill="none" stroke="#799EAD" stroke-width="0.5" stroke-miterlimit="10" enable-background="new    " d="M148.512,52.909
		c1.159,0,2.102,0.999,2.102,2.236c0,1.235-0.942,2.238-2.102,2.238c-1.166,0-2.111-1.003-2.111-2.238
		C146.4,53.908,147.346,52.909,148.512,52.909z"/>
	
		<ellipse fill="none" stroke="#799EAD" stroke-width="0.5" stroke-miterlimit="10" enable-background="new    " cx="13.153" cy="86.394" rx="2.105" ry="2.236"/>
	
		<ellipse fill="none" stroke="#799EAD" stroke-width="0.5" stroke-miterlimit="10" enable-background="new    " cx="148.506" cy="55.368" rx="2.108" ry="2.236"/>
	<path fill="none" stroke="#799EAD" stroke-width="0.5" stroke-miterlimit="10" enable-background="new    " d="M148.509,53.137
		c1.16,0,2.105,0.998,2.105,2.236c0,1.237-0.945,2.237-2.105,2.237c-1.165,0-2.109-1-2.109-2.237
		C146.399,54.135,147.344,53.137,148.509,53.137z"/>
	<path fill="none" stroke="#799EAD" stroke-width="0.5" stroke-miterlimit="10" enable-background="new    " d="M94.964,54.308
		c1.16,0,2.105,1,2.105,2.236c0,1.238-0.945,2.24-2.105,2.24c-1.167,0-2.109-1.002-2.109-2.24
		C92.854,55.308,93.797,54.308,94.964,54.308z"/>
	
		<ellipse fill="none" stroke="#799EAD" stroke-width="0.5" stroke-miterlimit="10" enable-background="new    " cx="94.962" cy="56.777" rx="2.106" ry="2.239"/>
	<path fill="none" stroke="#799EAD" stroke-width="0.5" stroke-miterlimit="10" enable-background="new    " d="M13.153,84.157
		c1.162,0,2.105,1.001,2.105,2.235c0,1.241-0.943,2.237-2.105,2.237c-1.164,0-2.107-0.996-2.107-2.237
		C11.045,85.158,11.989,84.157,13.153,84.157z"/>
	
		<ellipse fill="none" stroke="#799EAD" stroke-width="0.5" stroke-miterlimit="10" enable-background="new    " cx="13.153" cy="86.623" rx="2.106" ry="2.237"/>
	<path fill="none" stroke="#799EAD" stroke-width="0.5" stroke-miterlimit="10" enable-background="new    " d="M148.507,53.604
		c1.162,0,2.106,1.006,2.106,2.236c0,1.238-0.944,2.239-2.106,2.239s-2.106-1.001-2.106-2.239
		C146.4,54.609,147.345,53.604,148.507,53.604z"/>
	
		<ellipse fill="none" stroke="#799EAD" stroke-width="0.5" stroke-miterlimit="10" enable-background="new    " cx="162.531" cy="49.76" rx="2.108" ry="2.239"/>
	<path fill="none" stroke="#799EAD" stroke-width="0.5" stroke-miterlimit="10" enable-background="new    " d="M162.53,47.763
		c1.164,0,2.109,1.003,2.109,2.236c0,1.24-0.945,2.236-2.109,2.236c-1.16,0-2.105-0.996-2.105-2.236
		C160.425,48.766,161.37,47.763,162.53,47.763z"/>
	
		<ellipse fill="none" stroke="#799EAD" stroke-width="0.5" stroke-miterlimit="10" enable-background="new    " cx="94.962" cy="57" rx="2.106" ry="2.236"/>
	
		<ellipse fill="none" stroke="#799EAD" stroke-width="0.5" stroke-miterlimit="10" enable-background="new    " cx="27.152" cy="83.358" rx="2.106" ry="2.238"/>
	
		<ellipse fill="none" stroke="#799EAD" stroke-width="0.5" stroke-miterlimit="10" enable-background="new    " cx="148.507" cy="56.073" rx="2.106" ry="2.236"/>
	<path fill="none" stroke="#799EAD" stroke-width="0.5" stroke-miterlimit="10" enable-background="new    " d="M162.529,47.771
		c1.165,0,2.109,1,2.109,2.235c0,1.237-0.944,2.237-2.109,2.237c-1.159,0-2.104-1-2.104-2.237
		C160.426,48.771,161.37,47.771,162.529,47.771z"/>
	<path fill="none" stroke="#799EAD" stroke-width="0.5" stroke-miterlimit="10" enable-background="new    " d="M13.153,84.409
		c1.162,0,2.105,1.004,2.105,2.235c0,1.234-0.943,2.237-2.105,2.237c-1.165,0-2.107-1.003-2.107-2.237
		C11.045,85.413,11.988,84.409,13.153,84.409z"/>
	
		<ellipse fill="none" stroke="#799EAD" stroke-width="0.5" stroke-miterlimit="10" enable-background="new    " cx="162.531" cy="50.468" rx="2.106" ry="2.238"/>
	<path fill="none" stroke="#799EAD" stroke-width="0.5" stroke-miterlimit="10" enable-background="new    " d="M148.508,54.289
		c1.169,0,2.106,1.002,2.106,2.236c0,1.235-0.938,2.238-2.106,2.238c-1.163,0-2.108-1.003-2.108-2.238
		C146.399,55.291,147.345,54.289,148.508,54.289z"/>
	<path fill="none" stroke="#799EAD" stroke-width="0.5" stroke-miterlimit="10" enable-background="new    " d="M27.152,81.134
		c1.162,0,2.107,1,2.107,2.234c0,1.238-0.945,2.238-2.107,2.238c-1.164,0-2.106-1-2.106-2.238
		C25.046,82.134,25.988,81.134,27.152,81.134z"/>
	<path fill="none" stroke="#799EAD" stroke-width="0.5" stroke-miterlimit="10" enable-background="new    " d="M13.151,84.401
		c1.164,0,2.107,1.005,2.107,2.242c0,1.231-0.943,2.238-2.107,2.238c-1.163,0-2.106-1.007-2.106-2.238
		C11.045,85.406,11.989,84.401,13.151,84.401z"/>
	<path fill="none" stroke="#799EAD" stroke-width="0.5" stroke-miterlimit="10" enable-background="new    " d="M94.964,54.994
		c1.16,0,2.103,1.003,2.103,2.237c0,1.232-0.942,2.235-2.103,2.235c-1.164,0-2.106-1.003-2.106-2.235
		C92.857,55.997,93.8,54.994,94.964,54.994z"/>
	
		<ellipse fill="none" stroke="#799EAD" stroke-width="0.5" stroke-miterlimit="10" enable-background="new    " cx="94.962" cy="57.237" rx="2.106" ry="2.238"/>
	
		<ellipse fill="none" stroke="#799EAD" stroke-width="0.5" stroke-miterlimit="10" enable-background="new    " cx="80.768" cy="61.911" rx="2.107" ry="2.236"/>
	<path fill="none" stroke="#799EAD" stroke-width="0.5" stroke-miterlimit="10" enable-background="new    " d="M27.152,81.374
		c1.167,0,2.106,1.003,2.106,2.237s-0.939,2.241-2.106,2.241c-1.162,0-2.106-1.007-2.106-2.241S25.99,81.374,27.152,81.374z"/>
	
		<ellipse fill="none" stroke="#799EAD" stroke-width="0.5" stroke-miterlimit="10" enable-background="new    " cx="94.963" cy="57.475" rx="2.107" ry="2.236"/>
	
		<ellipse fill="none" stroke="#799EAD" stroke-width="0.5" stroke-miterlimit="10" enable-background="new    " cx="27.153" cy="83.845" rx="2.106" ry="2.236"/>
	<path fill="none" stroke="#799EAD" stroke-width="0.5" stroke-miterlimit="10" enable-background="new    " d="M13.152,84.409
		c1.163,0,2.106,1.004,2.106,2.236c0,1.237-0.943,2.24-2.106,2.24c-1.164,0-2.107-1.003-2.107-2.24
		C11.045,85.413,11.989,84.409,13.152,84.409z"/>
	<path fill="none" stroke="#799EAD" stroke-width="0.5" stroke-miterlimit="10" enable-background="new    " d="M13.154,84.409
		c1.16,0,2.103,1.004,2.103,2.236c0,1.237-0.942,2.24-2.103,2.24c-1.166,0-2.107-1.003-2.107-2.24
		C11.047,85.413,11.989,84.409,13.154,84.409z"/>
	<path fill="none" stroke="#799EAD" stroke-width="0.5" stroke-miterlimit="10" enable-background="new    " d="M162.529,48.467
		c1.165,0,2.109,0.999,2.109,2.236c0,1.233-0.944,2.237-2.109,2.237c-1.159,0-2.104-1.004-2.104-2.237
		C160.426,49.466,161.37,48.467,162.529,48.467z"/>
	<path fill="none" stroke="#799EAD" stroke-width="0.5" stroke-miterlimit="10" enable-background="new    " d="M94.964,55.453
		c1.166,0,2.106,1.003,2.106,2.236c0,1.242-0.94,2.24-2.106,2.24c-1.165,0-2.11-0.998-2.11-2.24
		C92.854,56.456,93.799,55.453,94.964,55.453z"/>
	<path fill="none" stroke="#799EAD" stroke-width="0.5" stroke-miterlimit="10" enable-background="new    " d="M94.964,55.469
		c1.163,0,2.104,1,2.104,2.235c0,1.234-0.94,2.237-2.104,2.237c-1.165,0-2.107-1.003-2.107-2.237
		C92.856,56.469,93.799,55.469,94.964,55.469z"/>
	
		<ellipse fill="none" stroke="#799EAD" stroke-width="0.5" stroke-miterlimit="10" enable-background="new    " cx="27.154" cy="83.845" rx="2.105" ry="2.236"/>
	<path fill="none" stroke="#799EAD" stroke-width="0.5" stroke-miterlimit="10" enable-background="new    " d="M162.531,48.934
		c1.167,0,2.106,1.003,2.106,2.236c0,1.236-0.939,2.238-2.106,2.238c-1.164,0-2.104-1.002-2.104-2.238
		C160.427,49.937,161.367,48.934,162.531,48.934z"/>
	<path fill="none" stroke="#799EAD" stroke-width="0.5" stroke-miterlimit="10" enable-background="new    " d="M94.962,55.933
		c1.164,0,2.106,1,2.106,2.238c0,1.231-0.942,2.238-2.106,2.238c-1.161,0-2.106-1.007-2.106-2.238
		C92.855,56.933,93.801,55.933,94.962,55.933z"/>
</g>
</svg>
