<?xml version="1.0" encoding="utf-8"?>
<!-- Generator: Adobe Illustrator 15.0.0, SVG Export Plug-In . SVG Version: 6.00 Build 0)  -->
<!DOCTYPE svg PUBLIC "-//W3C//DTD SVG 1.1//EN" "http://www.w3.org/Graphics/SVG/1.1/DTD/svg11.dtd">
<svg version="1.1" id="Capa_1" xmlns="http://www.w3.org/2000/svg" xmlns:xlink="http://www.w3.org/1999/xlink" x="0px" y="0px"
	 width="176px" height="108.892px" viewBox="0 0 176 108.892" enable-background="new 0 0 176 108.892" xml:space="preserve">
<g>
	<path opacity="0.9181" fill="none" stroke="#799EAD" enable-background="new    " d="M69.993,21.544
		c0-1.158,0.938-2.099,2.095-2.099c1.162,0,2.1,0.94,2.1,2.099s-0.938,2.097-2.1,2.097C70.931,23.641,69.993,22.702,69.993,21.544z"
		/>
	<path opacity="0.9181" fill="none" stroke="#799EAD" enable-background="new    " d="M69.993,26.836
		c0-1.158,0.938-2.097,2.095-2.097c1.162,0,2.1,0.938,2.1,2.097c0,1.16-0.938,2.099-2.1,2.099
		C70.931,28.935,69.993,27.996,69.993,26.836z"/>
	<circle opacity="0.9181" fill="none" stroke="#799EAD" enable-background="new    " cx="85.631" cy="24.739" r="2.098"/>
	<circle opacity="0.9181" fill="none" stroke="#799EAD" enable-background="new    " cx="85.631" cy="30.434" r="2.098"/>
	<path opacity="0.9181" fill="none" stroke="#799EAD" enable-background="new    " d="M89.117,32.722c0-1.157,0.939-2.097,2.1-2.097
		c1.157,0,2.097,0.939,2.097,2.097c0,1.161-0.939,2.101-2.097,2.101C90.057,34.822,89.117,33.883,89.117,32.722z"/>
	<circle opacity="0.9181" fill="none" stroke="#799EAD" enable-background="new    " cx="91.215" cy="40.856" r="2.098"/>
	<circle opacity="0.9181" fill="none" stroke="#799EAD" enable-background="new    " cx="91.215" cy="44.767" r="2.098"/>
	<circle opacity="0.9181" fill="none" stroke="#799EAD" enable-background="new    " cx="91.215" cy="48.963" r="2.098"/>
	<path opacity="0.9181" fill="none" stroke="#799EAD" enable-background="new    " d="M94.187,50.107
		c0-1.159,0.938-2.099,2.099-2.099c1.156,0,2.096,0.939,2.096,2.099s-0.939,2.097-2.096,2.097
		C95.124,52.204,94.187,51.267,94.187,50.107z"/>
	<circle opacity="0.9181" fill="none" stroke="#799EAD" enable-background="new    " cx="97.506" cy="69.324" r="2.098"/>
	<circle opacity="0.9181" fill="none" stroke="#799EAD" enable-background="new    " cx="97.506" cy="84.632" r="2.098"/>
	<path opacity="0.9181" fill="none" stroke="#799EAD" enable-background="new    " d="M101.811,87.347
		c0-1.155,0.939-2.095,2.097-2.095c1.16,0,2.1,0.939,2.1,2.095c0,1.161-0.939,2.099-2.1,2.099
		C102.75,89.445,101.811,88.508,101.811,87.347z"/>
	<path opacity="0.9181" fill="none" stroke="#799EAD" enable-background="new    " d="M69.993,31.031
		c0-1.158,0.938-2.097,2.095-2.097c1.162,0,2.1,0.938,2.1,2.097c0,1.16-0.938,2.099-2.1,2.099
		C70.931,33.13,69.993,32.191,69.993,31.031z"/>
	<circle opacity="0.9181" fill="none" stroke="#799EAD" enable-background="new    " cx="76.286" cy="31.031" r="2.098"/>
	<path opacity="0.9181" fill="none" stroke="#799EAD" enable-background="new    " d="M74.188,34.631c0-1.159,0.939-2.101,2.1-2.101
		c1.159,0,2.097,0.941,2.097,2.101s-0.938,2.096-2.097,2.096C75.127,36.727,74.188,35.79,74.188,34.631z"/>
	<path opacity="0.9181" fill="none" stroke="#799EAD" enable-background="new    " d="M74.188,37.327c0-1.161,0.939-2.101,2.1-2.101
		c1.159,0,2.097,0.939,2.097,2.101c0,1.156-0.938,2.096-2.097,2.096C75.127,39.423,74.188,38.483,74.188,37.327z"/>
	<path opacity="0.9181" fill="none" stroke="#799EAD" enable-background="new    " d="M74.188,41.071c0-1.159,0.939-2.097,2.1-2.097
		c1.159,0,2.097,0.938,2.097,2.097c0,1.161-0.938,2.099-2.097,2.099C75.127,43.17,74.188,42.232,74.188,41.071z"/>
	<circle opacity="0.9181" fill="none" stroke="#799EAD" enable-background="new    " cx="76.286" cy="43.618" r="2.098"/>
	<circle opacity="0.9181" fill="none" stroke="#799EAD" enable-background="new    " cx="80.483" cy="46.864" r="2.099"/>
	<circle opacity="0.9181" fill="none" stroke="#799EAD" enable-background="new    " cx="80.483" cy="54.592" r="2.099"/>
	<path opacity="0.9181" fill="none" stroke="#799EAD" enable-background="new    " d="M78.384,60.025
		c0-1.16,0.939-2.095,2.099-2.095s2.1,0.935,2.1,2.095s-0.94,2.099-2.1,2.099S78.384,61.186,78.384,60.025z"/>
	<circle opacity="0.9181" fill="none" stroke="#799EAD" enable-background="new    " cx="80.483" cy="70.469" r="2.099"/>
	<circle opacity="0.9181" fill="none" stroke="#799EAD" enable-background="new    " cx="80.483" cy="84.632" r="2.099"/>
	<path opacity="0.9181" fill="none" stroke="#799EAD" enable-background="new    " d="M83.533,87.347c0-1.155,0.94-2.095,2.1-2.095
		c1.159,0,2.097,0.939,2.097,2.095c0,1.161-0.938,2.099-2.097,2.099C84.473,89.445,83.533,88.508,83.533,87.347z"/>
</g>
</svg>
