<?xml version="1.0" encoding="utf-8"?>
<!-- Generator: Adobe Illustrator 15.0.0, SVG Export Plug-In . SVG Version: 6.00 Build 0)  -->
<!DOCTYPE svg PUBLIC "-//W3C//DTD SVG 1.1//EN" "http://www.w3.org/Graphics/SVG/1.1/DTD/svg11.dtd">
<svg version="1.1" id="Capa_1" xmlns="http://www.w3.org/2000/svg" xmlns:xlink="http://www.w3.org/1999/xlink" x="0px" y="0px"
	 width="176px" height="108.892px" viewBox="0 0 176 108.892" enable-background="new 0 0 176 108.892" xml:space="preserve">
<g>
	
		<circle opacity="0.9181" fill="none" stroke="#799EAD" stroke-width="0.25" enable-background="new    " cx="87.999" cy="61.729" r="27.716"/>
	
		<circle opacity="0.9181" fill="none" stroke="#799EAD" stroke-width="0.25" enable-background="new    " cx="87.999" cy="58.433" r="31.013"/>
	
		<circle opacity="0.9181" fill="none" stroke="#799EAD" stroke-width="0.25" enable-background="new    " cx="87.999" cy="58.418" r="31.027"/>
	<path opacity="0.9181" fill="none" stroke="#799EAD" stroke-width="0.25" enable-background="new    " d="M87.999,34.004
		c15.311,0,27.722,12.41,27.722,27.723c0,15.309-12.411,27.719-27.722,27.719c-15.31,0-27.72-12.41-27.72-27.719
		C60.279,46.414,72.689,34.004,87.999,34.004z"/>
	
		<circle opacity="0.9181" fill="none" stroke="#799EAD" stroke-width="0.25" enable-background="new    " cx="87.999" cy="58.416" r="31.029"/>
	
		<circle opacity="0.9181" fill="none" stroke="#799EAD" stroke-width="0.25" enable-background="new    " cx="87.999" cy="61.704" r="27.741"/>
	
		<circle opacity="0.9181" fill="none" stroke="#799EAD" stroke-width="0.25" enable-background="new    " cx="87.999" cy="58.338" r="31.107"/>
	
		<circle opacity="0.9181" fill="none" stroke="#799EAD" stroke-width="0.25" enable-background="new    " cx="87.999" cy="58.408" r="31.037"/>
	
		<circle opacity="0.9181" fill="none" stroke="#799EAD" stroke-width="0.25" enable-background="new    " cx="87.999" cy="57.188" r="32.257"/>
	
		<circle opacity="0.9181" fill="none" stroke="#799EAD" stroke-width="0.25" enable-background="new    " cx="87.999" cy="61.691" r="27.754"/>
	
		<circle opacity="0.9181" fill="none" stroke="#799EAD" stroke-width="0.25" enable-background="new    " cx="87.999" cy="60.697" r="28.748"/>
	
		<circle opacity="0.9181" fill="none" stroke="#799EAD" stroke-width="0.25" enable-background="new    " cx="87.999" cy="61.662" r="27.783"/>
	
		<circle opacity="0.9181" fill="none" stroke="#799EAD" stroke-width="0.25" enable-background="new    " cx="87.999" cy="58.344" r="31.102"/>
	
		<circle opacity="0.9181" fill="none" stroke="#799EAD" stroke-width="0.25" enable-background="new    " cx="87.999" cy="57.204" r="32.241"/>
	
		<circle opacity="0.9181" fill="none" stroke="#799EAD" stroke-width="0.25" enable-background="new    " cx="87.999" cy="61.683" r="27.763"/>
	
		<circle opacity="0.9181" fill="none" stroke="#799EAD" stroke-width="0.25" enable-background="new    " cx="87.999" cy="57.188" r="32.257"/>
	
		<circle opacity="0.9181" fill="none" stroke="#799EAD" stroke-width="0.25" enable-background="new    " cx="87.999" cy="57.173" r="32.272"/>
	
		<circle opacity="0.9181" fill="none" stroke="#799EAD" stroke-width="0.25" enable-background="new    " cx="87.999" cy="60.68" r="28.766"/>
	
		<circle opacity="0.9181" fill="none" stroke="#799EAD" stroke-width="0.25" enable-background="new    " cx="87.999" cy="57.15" r="32.295"/>
	
		<circle opacity="0.9181" fill="none" stroke="#799EAD" stroke-width="0.25" enable-background="new    " cx="87.999" cy="60.669" r="28.776"/>
	
		<circle opacity="0.9181" fill="none" stroke="#799EAD" stroke-width="0.25" enable-background="new    " cx="87.999" cy="60.664" r="28.781"/>
	
		<circle opacity="0.9181" fill="none" stroke="#799EAD" stroke-width="0.25" enable-background="new    " cx="87.999" cy="60.661" r="28.784"/>
	
		<circle opacity="0.9181" fill="none" stroke="#799EAD" stroke-width="0.25" enable-background="new    " cx="87.999" cy="60.66" r="28.785"/>
	<path opacity="0.9181" fill="none" stroke="#799EAD" stroke-width="0.25" enable-background="new    " d="M87.999,24.852
		c17.838,0,32.298,14.459,32.298,32.299c0,17.836-14.46,32.295-32.298,32.295c-17.837,0-32.297-14.459-32.297-32.295
		C55.702,39.311,70.162,24.852,87.999,24.852z"/>
	
		<circle opacity="0.9181" fill="none" stroke="#799EAD" stroke-width="0.25" enable-background="new    " cx="87.999" cy="57.086" r="32.359"/>
	
		<circle opacity="0.9181" fill="none" stroke="#799EAD" stroke-width="0.25" enable-background="new    " cx="87.999" cy="57.124" r="32.321"/>
	
		<circle opacity="0.9181" fill="none" stroke="#799EAD" stroke-width="0.25" enable-background="new    " cx="87.999" cy="60.632" r="28.813"/>
	
		<circle opacity="0.9181" fill="none" stroke="#799EAD" stroke-width="0.25" enable-background="new    " cx="87.999" cy="60.602" r="28.844"/>
	
		<circle opacity="0.9181" fill="none" stroke="#799EAD" stroke-width="0.25" enable-background="new    " cx="87.999" cy="60.629" r="28.816"/>
	
		<circle opacity="0.9181" fill="none" stroke="#799EAD" stroke-width="0.25" enable-background="new    " cx="87.999" cy="60.626" r="28.819"/>
	
		<circle opacity="0.9181" fill="none" stroke="#799EAD" stroke-width="0.25" enable-background="new    " cx="87.999" cy="57.124" r="32.321"/>
	
		<circle opacity="0.9181" fill="none" stroke="#799EAD" stroke-width="0.25" enable-background="new    " cx="87.999" cy="57.122" r="32.323"/>
	<path opacity="0.9181" fill="none" stroke="#799EAD" stroke-width="0.25" enable-background="new    " d="M87.999,24.775
		c17.859,0,32.335,14.477,32.335,32.338c0,17.857-14.476,32.332-32.335,32.332c-17.858,0-32.335-14.475-32.335-32.332
		C55.664,39.252,70.141,24.775,87.999,24.775z"/>
	
		<circle opacity="0.9181" fill="none" stroke="#799EAD" stroke-width="0.25" enable-background="new    " cx="87.999" cy="57.104" r="32.341"/>
	
		<circle opacity="0.9181" fill="none" stroke="#799EAD" stroke-width="0.25" enable-background="new    " cx="87.999" cy="59.608" r="29.837"/>
	
		<circle opacity="0.9181" fill="none" stroke="#799EAD" stroke-width="0.25" enable-background="new    " cx="87.999" cy="57.099" r="32.347"/>
	
		<circle opacity="0.9181" fill="none" stroke="#799EAD" stroke-width="0.25" enable-background="new    " cx="87.999" cy="57.097" r="32.349"/>
	
		<circle opacity="0.9181" fill="none" stroke="#799EAD" stroke-width="0.25" enable-background="new    " cx="87.999" cy="55.857" r="33.588"/>
	
		<circle opacity="0.9181" fill="none" stroke="#799EAD" stroke-width="0.25" enable-background="new    " cx="87.999" cy="55.881" r="33.564"/>
	
		<circle opacity="0.9181" fill="none" stroke="#799EAD" stroke-width="0.25" enable-background="new    " cx="87.999" cy="59.587" r="29.858"/>
	
		<circle opacity="0.9181" fill="none" stroke="#799EAD" stroke-width="0.25" enable-background="new    " cx="87.999" cy="59.555" r="29.891"/>
	
		<circle opacity="0.9181" fill="none" stroke="#799EAD" stroke-width="0.25" enable-background="new    " cx="87.999" cy="59.555" r="29.891"/>
	
		<circle opacity="0.9181" fill="none" stroke="#799EAD" stroke-width="0.25" enable-background="new    " cx="87.999" cy="55.834" r="33.611"/>
	
		<circle opacity="0.9181" fill="none" stroke="#799EAD" stroke-width="0.25" enable-background="new    " cx="87.999" cy="59.553" r="29.893"/>
	
		<circle opacity="0.9181" fill="none" stroke="#799EAD" stroke-width="0.25" enable-background="new    " cx="87.999" cy="59.542" r="29.903"/>
	
		<circle opacity="0.9181" fill="none" stroke="#799EAD" stroke-width="0.25" enable-background="new    " cx="87.999" cy="59.513" r="29.933"/>
	
		<circle opacity="0.9181" fill="none" stroke="#799EAD" stroke-width="0.25" enable-background="new    " cx="87.999" cy="55.823" r="33.622"/>
	
		<circle opacity="0.9181" fill="none" stroke="#799EAD" stroke-width="0.25" enable-background="new    " cx="87.999" cy="55.753" r="33.692"/>
	
		<circle opacity="0.9181" fill="none" stroke="#799EAD" stroke-width="0.25" enable-background="new    " cx="87.999" cy="59.509" r="29.937"/>
	
		<circle opacity="0.9181" fill="none" stroke="#799EAD" stroke-width="0.25" enable-background="new    " cx="87.999" cy="55.802" r="33.644"/>
	
		<circle opacity="0.9181" fill="none" stroke="#799EAD" stroke-width="0.25" enable-background="new    " cx="87.999" cy="55.784" r="33.661"/>
	
		<circle opacity="0.9181" fill="none" stroke="#799EAD" stroke-width="0.25" enable-background="new    " cx="87.999" cy="58.445" r="31"/>
	
		<circle opacity="0.9181" fill="none" stroke="#799EAD" stroke-width="0.25" enable-background="new    " cx="87.999" cy="58.444" r="31.001"/>
	
		<circle opacity="0.9181" fill="none" stroke="#799EAD" stroke-width="0.25" enable-background="new    " cx="87.999" cy="54.45" r="34.995"/>
	
		<circle opacity="0.9181" fill="none" stroke="#799EAD" stroke-width="0.25" enable-background="new    " cx="87.999" cy="58.417" r="31.028"/>
	
		<circle opacity="0.9181" fill="none" stroke="#799EAD" stroke-width="0.25" enable-background="new    " cx="87.999" cy="54.445" r="35"/>
</g>
</svg>
